<svg width="156" height="576" viewBox="0 0 156 576" fill="none" xmlns="http://www.w3.org/2000/svg">
<path d="M76.2451 574.048C55.1364 573.859 20.0949 571.087 18.3922 570.749C16.4867 570.37 9.81102 568.842 8.09476 565.217C6.3785 561.592 3.13528 542.117 3.13528 532.38C3.13528 522.642 5.04062 517.679 5.04062 513.473C5.04062 509.267 4.47314 406.928 4.47314 406.928L3.90534 311.148C3.90534 311.148 2 272.712 2 267.748C2 262.785 3.6486 250.315 10.0136 240.632C16.3787 230.962 22.8655 227.27 27.8251 204.36C29.8117 195.217 39.9741 100.303 39.9741 100.303C39.9741 100.303 45.5958 48.4641 45.0283 46.1785C44.4607 43.8929 43.785 42.1753 43.6904 40.0655C43.5958 37.9557 46.4605 25.1752 46.4605 23.7416C46.4605 22.308 45.5956 22.4027 45.501 21.2531C45.4064 20.1035 46.3661 9.70325 46.3661 8.93236C46.3661 8.16147 45.312 5.49717 47.704 4.53694C50.0959 3.57671 62.6773 2.15666 72.9883 2.04846C74.0289 2.04846 75.137 2.04846 76.2992 2.04846H79.448C80.6102 2.04846 81.7183 2.04846 82.7588 2.04846C93.0564 2.14313 105.651 3.57671 108.043 4.53694C110.435 5.49717 109.381 8.16147 109.381 8.93236C109.381 9.70325 110.341 20.1035 110.246 21.2531C110.152 22.4027 109.286 22.308 109.286 23.7416C109.286 25.1752 112.151 37.9692 112.057 40.0655C111.962 42.1618 111.3 43.8794 110.719 46.1785C110.138 48.4777 115.773 100.303 115.773 100.303C115.773 100.303 125.936 195.217 127.922 204.36C132.882 227.27 139.369 230.962 145.734 240.632C152.099 250.302 153.747 262.785 153.747 267.748C153.747 272.712 151.842 311.148 151.842 311.148L151.274 406.928C151.274 406.928 150.707 509.267 150.707 513.473C150.707 517.679 152.612 522.642 152.612 532.38C152.612 542.117 149.369 561.592 147.652 565.217C145.936 568.842 139.26 570.37 137.355 570.749C135.652 571.087 100.611 573.859 79.5021 574.048H76.3262H76.2451Z" stroke="#FFFF00" stroke-width="4" stroke-miterlimit="10"/>
</svg>
