<svg width="256" height="112" viewBox="0 0 256 112" fill="none" xmlns="http://www.w3.org/2000/svg">
<mask id="path-1-inside-1_556_2919" fill="white">
<path fill-rule="evenodd" clip-rule="evenodd" d="M26.8134 3.14868L26.8133 3.14869L23.5467 6.52247C21.9142 8.20855 20.5985 9.56734 19.6451 10.7059C11.1713 10.7632 6.5462 11.18 3.51472 14.2115C0 17.7262 0 23.383 0 34.6968V88C0 99.3137 0 104.971 3.51472 108.485C7.02944 112 12.6863 112 24 112H232C243.314 112 248.971 112 252.485 108.485C256 104.971 256 99.3137 256 88V34.6968C256 23.383 256 17.7262 252.485 14.2115C248.971 10.6968 243.314 10.6968 232 10.6968H42.5949C41.6422 9.56007 40.3292 8.20405 38.701 6.52248L35.4344 3.1487C33.4081 1.05595 32.3949 0.00958252 31.1239 0.00958252C29.8528 0.00958252 28.8396 1.05595 26.8134 3.14868Z"/>
</mask>
<path fill-rule="evenodd" clip-rule="evenodd" d="M26.8134 3.14868L26.8133 3.14869L23.5467 6.52247C21.9142 8.20855 20.5985 9.56734 19.6451 10.7059C11.1713 10.7632 6.5462 11.18 3.51472 14.2115C0 17.7262 0 23.383 0 34.6968V88C0 99.3137 0 104.971 3.51472 108.485C7.02944 112 12.6863 112 24 112H232C243.314 112 248.971 112 252.485 108.485C256 104.971 256 99.3137 256 88V34.6968C256 23.383 256 17.7262 252.485 14.2115C248.971 10.6968 243.314 10.6968 232 10.6968H42.5949C41.6422 9.56007 40.3292 8.20405 38.701 6.52248L35.4344 3.1487C33.4081 1.05595 32.3949 0.00958252 31.1239 0.00958252C29.8528 0.00958252 28.8396 1.05595 26.8134 3.14868Z" fill="#0A3085" fill-opacity="0.6"/>
<path d="M26.8133 3.14869L26.1548 2.39612L26.1237 2.42336L26.0949 2.45309L26.8133 3.14869ZM26.8134 3.14868L27.4719 3.90126L27.503 3.87402L27.5318 3.84429L26.8134 3.14868ZM23.5467 6.52247L22.8283 5.82686L23.5467 6.52247ZM19.6451 10.7059L19.6519 11.7059L20.1147 11.7027L20.4119 11.3479L19.6451 10.7059ZM3.51472 14.2115L4.22183 14.9186L3.51472 14.2115ZM252.485 108.485L251.778 107.778V107.778L252.485 108.485ZM252.485 14.2115L251.778 14.9186V14.9186L252.485 14.2115ZM42.5949 10.6968L41.8285 11.3391L42.1283 11.6968H42.5949V10.6968ZM38.701 6.52248L39.4195 5.82687V5.82687L38.701 6.52248ZM35.4344 3.1487L34.716 3.84431V3.84431L35.4344 3.1487ZM27.4718 3.90127L27.4719 3.90126L26.1549 2.39611L26.1548 2.39612L27.4718 3.90127ZM24.2651 7.21808L27.5318 3.8443L26.0949 2.45309L22.8283 5.82686L24.2651 7.21808ZM20.4119 11.3479C21.3367 10.2434 22.6226 8.91441 24.2651 7.21808L22.8283 5.82686C21.2057 7.5027 19.8604 8.89124 18.8784 10.0639L20.4119 11.3479ZM4.22183 14.9186C5.55273 13.5877 7.2588 12.792 9.72473 12.326C12.219 11.8546 15.409 11.7346 19.6519 11.7059L19.6384 9.70591C15.4074 9.73452 12.048 9.85152 9.35335 10.3608C6.6304 10.8753 4.50819 11.8038 2.80761 13.5044L4.22183 14.9186ZM1 34.6968C1 29.0116 1.00212 24.8484 1.43042 21.6627C1.85485 18.5059 2.68124 16.4592 4.22183 14.9186L2.80761 13.5044C0.833483 15.4785 -0.0974946 18.0176 -0.551743 21.3962C-1.00212 24.7461 -1 29.0682 -1 34.6968H1ZM1 88V34.6968H-1V88H1ZM4.22183 107.778C2.68124 106.238 1.85485 104.191 1.43042 101.034C1.00212 97.8484 1 93.6851 1 88H-1C-1 93.6286 -1.00212 97.9506 -0.551743 101.301C-0.0974946 104.679 0.833484 107.218 2.80761 109.192L4.22183 107.778ZM24 111C18.3149 111 14.1516 110.998 10.966 110.57C7.80911 110.145 5.76242 109.319 4.22183 107.778L2.80761 109.192C4.78174 111.167 7.32084 112.098 10.6995 112.552C14.0494 113.002 18.3714 113 24 113V111ZM232 111H24V113H232V111ZM251.778 107.778C250.238 109.319 248.191 110.145 245.034 110.57C241.848 110.998 237.685 111 232 111V113C237.629 113 241.951 113.002 245.301 112.552C248.679 112.098 251.218 111.167 253.192 109.192L251.778 107.778ZM255 88C255 93.6851 254.998 97.8484 254.57 101.034C254.145 104.191 253.319 106.238 251.778 107.778L253.192 109.192C255.167 107.218 256.098 104.679 256.552 101.301C257.002 97.9506 257 93.6286 257 88H255ZM255 34.6968V88H257V34.6968H255ZM251.778 14.9186C253.319 16.4592 254.145 18.5059 254.57 21.6627C254.998 24.8484 255 29.0116 255 34.6968H257C257 29.0682 257.002 24.7461 256.552 21.3962C256.098 18.0176 255.167 15.4785 253.192 13.5044L251.778 14.9186ZM232 11.6968C237.685 11.6968 241.848 11.6989 245.034 12.1272C248.191 12.5516 250.238 13.378 251.778 14.9186L253.192 13.5044C251.218 11.5302 248.679 10.5993 245.301 10.145C241.951 9.69463 237.629 9.69675 232 9.69675V11.6968ZM42.5949 11.6968H232V9.69675H42.5949V11.6968ZM37.9826 7.21809C39.6206 8.90982 40.9042 10.2363 41.8285 11.3391L43.3613 10.0544C42.3802 8.88385 41.0378 7.49828 39.4195 5.82687L37.9826 7.21809ZM34.716 3.84431L37.9826 7.21809L39.4195 5.82687L36.1528 2.45309L34.716 3.84431ZM31.1239 1.00958C31.4448 1.00958 31.8012 1.1271 32.3779 1.58049C32.9774 2.05183 33.6828 2.77729 34.716 3.84431L36.1528 2.45309C35.1597 1.42737 34.3454 0.583268 33.614 0.00823014C32.8598 -0.584747 32.074 -0.990417 31.1239 -0.990417V1.00958ZM27.5318 3.84429C28.5649 2.77728 29.2704 2.05182 29.8699 1.58049C30.4466 1.1271 30.8029 1.00958 31.1239 1.00958V-0.990417C30.1738 -0.990417 29.388 -0.584749 28.6337 0.00822634C27.9023 0.583261 27.0881 1.42736 26.0949 2.45308L27.5318 3.84429Z" fill="#FFFF00" mask="url(#path-1-inside-1_556_2919)"/>
<path d="M21.3202 32.2293H16.8952L16.3702 35.1693H20.6452L20.3602 36.8193H16.0852L15.3352 41.0793H13.6102L15.4552 30.5793H21.6052L21.3202 32.2293ZM21.2839 41.0793L22.0939 36.4443L23.2039 30.1293H24.8239L23.6989 36.4893L22.9039 41.0793H21.2839ZM31.0845 33.5793H32.8845L28.6395 41.3193C27.5145 43.4043 26.1345 44.1843 24.4995 44.0793L24.7695 42.5643C25.7895 42.6243 26.3745 42.1443 26.9445 41.1243L27.0795 40.9143L25.2345 33.5793H26.8995L28.1895 39.0843L31.0845 33.5793ZM36.6875 30.5793L34.9475 34.4793H33.5825L34.8875 30.5793H36.6875ZM38.1657 41.2743C36.6057 41.2743 35.6457 40.5693 35.2257 39.4593L36.6807 38.7093C36.8607 39.3393 37.4157 39.7893 38.3007 39.7893C39.0507 39.7893 39.5607 39.5193 39.6507 38.9943C39.8907 37.6143 35.6457 38.3643 36.1557 35.5143C36.3957 34.1643 37.7157 33.3843 39.1107 33.3843C40.4007 33.3843 41.3607 33.9693 41.8107 34.9443L40.3557 35.6793C40.1757 35.1243 39.6507 34.8393 39.0207 34.8393C38.4807 34.8393 37.8807 35.0793 37.7757 35.6493C37.5057 37.1043 41.7807 36.2193 41.2707 39.1443C41.0157 40.5693 39.7557 41.2743 38.1657 41.2743ZM49.5609 35.1393L48.9309 38.7393C48.7659 39.7143 49.4409 39.6993 50.6409 39.6243L50.3859 41.0793C48.0459 41.3793 46.9659 40.6893 47.3109 38.7393L47.9409 35.1393H46.5609L46.8459 33.5793H48.2259L48.5109 31.9593L50.2059 31.4793L49.8309 33.5793H51.7059L51.4209 35.1393H49.5609ZM57.0748 33.3843C58.7548 33.3843 59.8198 34.5393 59.4898 36.4743L58.6798 41.0793H57.0598L57.8398 36.6393C58.0348 35.4843 57.5098 34.8993 56.4598 34.8993C55.4398 34.8993 54.4948 35.4693 54.2098 36.9093L53.4748 41.0793H51.8548L53.6998 30.5793H55.3198L54.6298 34.4793C55.2748 33.7293 56.1598 33.3843 57.0748 33.3843ZM65.1349 33.3843C67.3849 33.3843 68.7949 35.1543 68.3749 37.3443C68.3449 37.4643 68.2699 37.7943 68.1949 38.0193H62.2249C62.2549 39.2193 63.1099 39.7893 64.2499 39.7893C65.1349 39.7893 65.8699 39.4443 66.3649 38.8443L67.5499 39.7443C66.7399 40.7493 65.4949 41.2743 64.1149 41.2743C61.6549 41.2743 60.2899 39.4443 60.6649 37.1793C61.0399 34.9893 62.9149 33.3843 65.1349 33.3843ZM62.4499 36.6843H66.8449C66.8599 35.3943 66.0649 34.8543 65.0299 34.8543C63.8449 34.8543 62.8849 35.5443 62.4499 36.6843ZM78.11 33.3843C79.79 33.3843 80.855 34.5393 80.525 36.4743L79.715 41.0793H78.095L78.875 36.6393C79.07 35.4843 78.545 34.8993 77.495 34.8993C76.49 34.8993 75.545 35.4693 75.245 36.8643L74.51 41.0793H72.89L74.21 33.5793H75.83L75.665 34.4793C76.31 33.7293 77.195 33.3843 78.11 33.3843ZM88.705 33.5793H90.325L89.005 41.0793H87.385L87.535 40.1943C86.875 40.8693 85.96 41.2743 84.79 41.2743C82.54 41.2743 81.31 39.2793 81.7 37.1643C82.105 34.9293 83.86 33.3843 85.96 33.3843C87.115 33.3843 88 33.8943 88.495 34.7943L88.705 33.5793ZM85.27 39.7293C86.545 39.7293 87.67 38.8743 88 37.5993L88.075 37.1643C88.225 35.7243 87.265 34.9293 86.05 34.9293C84.82 34.9293 83.59 35.7543 83.32 37.2843C83.08 38.6793 83.905 39.7293 85.27 39.7293ZM100.388 33.3843C102.008 33.3843 103.058 34.5693 102.728 36.4293L101.918 41.0793H100.298L101.093 36.5343C101.273 35.4843 100.823 34.8993 99.9079 34.8993C99.0079 34.8993 98.2279 35.4693 97.9729 36.7743L97.2079 41.0793H95.5879L96.3829 36.5343C96.5629 35.4843 96.1579 34.8993 95.2579 34.8993C94.4029 34.8993 93.6079 35.4093 93.2929 36.6093L92.5129 41.0793H90.8929L92.2129 33.5793H93.8329L93.6829 34.4043C94.2979 33.7293 95.0929 33.3843 95.9479 33.3843C96.9079 33.3843 97.5829 33.8193 97.8979 34.5843C98.5579 33.7743 99.4729 33.3843 100.388 33.3843ZM108.362 33.3843C110.612 33.3843 112.022 35.1543 111.602 37.3443C111.572 37.4643 111.497 37.7943 111.422 38.0193H105.452C105.482 39.2193 106.337 39.7893 107.477 39.7893C108.362 39.7893 109.097 39.4443 109.592 38.8443L110.777 39.7443C109.967 40.7493 108.722 41.2743 107.342 41.2743C104.882 41.2743 103.517 39.4443 103.892 37.1793C104.267 34.9893 106.142 33.3843 108.362 33.3843ZM105.677 36.6843H110.072C110.087 35.3943 109.292 34.8543 108.257 34.8543C107.072 34.8543 106.112 35.5443 105.677 36.6843ZM123.393 33.5793H125.013L123.693 41.0793H122.073L122.223 40.1943C121.563 40.8693 120.648 41.2743 119.478 41.2743C117.228 41.2743 115.998 39.2793 116.388 37.1643C116.793 34.9293 118.548 33.3843 120.648 33.3843C121.803 33.3843 122.688 33.8943 123.183 34.7943L123.393 33.5793ZM119.958 39.7293C121.233 39.7293 122.358 38.8743 122.688 37.5993L122.763 37.1643C122.913 35.7243 121.953 34.9293 120.738 34.9293C119.508 34.9293 118.278 35.7543 118.008 37.2843C117.768 38.6793 118.593 39.7293 119.958 39.7293ZM130.8 33.3843C132.48 33.3843 133.545 34.5393 133.215 36.4743L132.405 41.0793H130.785L131.565 36.6393C131.76 35.4843 131.235 34.8993 130.185 34.8993C129.18 34.8993 128.235 35.4693 127.935 36.8643L127.2 41.0793H125.58L126.9 33.5793H128.52L128.355 34.4793C129 33.7293 129.885 33.3843 130.8 33.3843ZM141.935 30.5793H143.555L141.71 41.0793H140.09L140.255 40.1793C139.58 40.8693 138.65 41.2743 137.48 41.2743C135.23 41.2743 134 39.2793 134.39 37.1643C134.795 34.9293 136.55 33.3843 138.65 33.3843C139.805 33.3843 140.705 33.9093 141.185 34.8093L141.935 30.5793ZM137.975 39.7293C139.25 39.7293 140.375 38.8593 140.705 37.5843L140.78 37.1493C140.93 35.7093 139.97 34.9293 138.755 34.9293C137.525 34.9293 136.28 35.7543 136.01 37.2843C135.77 38.6793 136.61 39.7293 137.975 39.7293ZM150.723 35.1393L150.093 38.7393C149.928 39.7143 150.603 39.6993 151.803 39.6243L151.548 41.0793C149.208 41.3793 148.128 40.6893 148.473 38.7393L149.103 35.1393H147.723L148.008 33.5793H149.388L149.673 31.9593L151.368 31.4793L150.993 33.5793H152.868L152.583 35.1393H150.723ZM158.237 33.3843C159.917 33.3843 160.982 34.5393 160.652 36.4743L159.842 41.0793H158.222L159.002 36.6393C159.197 35.4843 158.672 34.8993 157.622 34.8993C156.602 34.8993 155.657 35.4693 155.372 36.9093L154.637 41.0793H153.017L154.862 30.5793H156.482L155.792 34.4793C156.437 33.7293 157.322 33.3843 158.237 33.3843ZM167.71 33.5793H169.51L165.265 41.3193C164.14 43.4043 162.76 44.1843 161.125 44.0793L161.395 42.5643C162.415 42.6243 163 42.1443 163.57 41.1243L163.705 40.9143L161.86 33.5793H163.525L164.815 39.0843L167.71 33.5793ZM182.883 33.5793H184.653L180.978 41.0793H179.388L178.713 36.0243L176.328 41.0793H174.663L173.628 33.5793H175.248L175.848 38.7543L178.278 33.5793H179.868L179.853 33.6093L180.543 38.7543L182.883 33.5793ZM186.909 32.4543C186.324 32.4543 185.964 31.9743 186.054 31.4193C186.144 30.8643 186.669 30.3843 187.254 30.3843C187.839 30.3843 188.229 30.8493 188.124 31.4193C188.034 31.9743 187.524 32.4543 186.909 32.4543ZM184.584 41.0793L185.904 33.5793H187.524L186.204 41.0793H184.584ZM190.846 41.2743C189.286 41.2743 188.326 40.5693 187.906 39.4593L189.361 38.7093C189.541 39.3393 190.096 39.7893 190.981 39.7893C191.731 39.7893 192.241 39.5193 192.331 38.9943C192.571 37.6143 188.326 38.3643 188.836 35.5143C189.076 34.1643 190.396 33.3843 191.791 33.3843C193.081 33.3843 194.041 33.9693 194.491 34.9443L193.036 35.6793C192.856 35.1243 192.331 34.8393 191.701 34.8393C191.161 34.8393 190.561 35.0793 190.456 35.6493C190.186 37.1043 194.461 36.2193 193.951 39.1443C193.696 40.5693 192.436 41.2743 190.846 41.2743ZM200.337 33.3843C202.017 33.3843 203.082 34.5393 202.752 36.4743L201.942 41.0793H200.322L201.102 36.6393C201.297 35.4843 200.772 34.8993 199.722 34.8993C198.702 34.8993 197.757 35.4693 197.472 36.9093L196.737 41.0793H195.117L196.962 30.5793H198.582L197.892 34.4793C198.537 33.7293 199.422 33.3843 200.337 33.3843ZM209.732 32.4543C209.147 32.4543 208.787 31.9743 208.877 31.4193C208.967 30.8643 209.492 30.3843 210.077 30.3843C210.662 30.3843 211.052 30.8493 210.947 31.4193C210.857 31.9743 210.347 32.4543 209.732 32.4543ZM207.407 41.0793L208.727 33.5793H210.347L209.027 41.0793H207.407ZM213.669 41.2743C212.109 41.2743 211.149 40.5693 210.729 39.4593L212.184 38.7093C212.364 39.3393 212.919 39.7893 213.804 39.7893C214.554 39.7893 215.064 39.5193 215.154 38.9943C215.394 37.6143 211.149 38.3643 211.659 35.5143C211.899 34.1643 213.219 33.3843 214.614 33.3843C215.904 33.3843 216.864 33.9693 217.314 34.9443L215.859 35.6793C215.679 35.1243 215.154 34.8393 214.524 34.8393C213.984 34.8393 213.384 35.0793 213.279 35.6493C213.009 37.1043 217.284 36.2193 216.774 39.1443C216.519 40.5693 215.259 41.2743 213.669 41.2743ZM231.184 33.3843C232.804 33.3843 233.854 34.5693 233.524 36.4293L232.714 41.0793H231.094L231.889 36.5343C232.069 35.4843 231.619 34.8993 230.704 34.8993C229.804 34.8993 229.024 35.4693 228.769 36.7743L228.004 41.0793H226.384L227.179 36.5343C227.359 35.4843 226.954 34.8993 226.054 34.8993C225.199 34.8993 224.404 35.4093 224.089 36.6093L223.309 41.0793H221.689L223.009 33.5793H224.629L224.479 34.4043C225.094 33.7293 225.889 33.3843 226.744 33.3843C227.704 33.3843 228.379 33.8193 228.694 34.5843C229.354 33.7743 230.269 33.3843 231.184 33.3843ZM240.572 33.5793H242.372L238.127 41.3193C237.002 43.4043 235.622 44.1843 233.987 44.0793L234.257 42.5643C235.277 42.6243 235.862 42.1443 236.432 41.1243L236.567 40.9143L234.722 33.5793H236.387L237.677 39.0843L240.572 33.5793ZM26.9336 57.5793H28.5236L27.2636 64.7343C26.8286 67.2243 25.0436 68.2743 22.9436 68.2743C21.3236 68.2743 20.0786 67.6443 19.5386 66.4593L20.9936 65.7093C21.2636 66.3243 21.8636 66.8043 23.0486 66.8043C24.5036 66.8043 25.4336 66.0693 25.6736 64.7343L25.8086 63.9543C25.1486 64.6743 24.2336 65.1243 23.0936 65.1243C20.7386 65.1243 19.5536 63.2193 19.8986 61.0893C20.2436 58.9743 21.9986 57.3843 24.0986 57.3843C25.2836 57.3843 26.2286 57.9093 26.7086 58.8393L26.9336 57.5793ZM23.5136 63.5943C24.8486 63.5943 26.0186 62.6793 26.2736 61.2993C26.5586 59.7843 25.5236 58.9143 24.2636 58.9143C23.0036 58.9143 21.7436 59.7843 21.5186 61.2093C21.2936 62.5893 22.1186 63.5943 23.5136 63.5943ZM36.3662 57.5793H37.9862L36.6662 65.0793H35.0462L35.1962 64.1943C34.5362 64.8693 33.6212 65.2743 32.4512 65.2743C30.2012 65.2743 28.9712 63.2793 29.3612 61.1643C29.7662 58.9293 31.5212 57.3843 33.6212 57.3843C34.7762 57.3843 35.6612 57.8943 36.1562 58.7943L36.3662 57.5793ZM32.9312 63.7293C34.2062 63.7293 35.3312 62.8743 35.6612 61.5993L35.7362 61.1643C35.8862 59.7243 34.9262 58.9293 33.7112 58.9293C32.4812 58.9293 31.2512 59.7543 30.9812 61.2843C30.7412 62.6793 31.5662 63.7293 32.9312 63.7293ZM48.049 57.3843C49.669 57.3843 50.719 58.5693 50.389 60.4293L49.579 65.0793H47.959L48.754 60.5343C48.934 59.4843 48.484 58.8993 47.569 58.8993C46.669 58.8993 45.889 59.4693 45.634 60.7743L44.869 65.0793H43.249L44.044 60.5343C44.224 59.4843 43.819 58.8993 42.919 58.8993C42.064 58.8993 41.269 59.4093 40.954 60.6093L40.174 65.0793H38.554L39.874 57.5793H41.494L41.344 58.4043C41.959 57.7293 42.754 57.3843 43.609 57.3843C44.569 57.3843 45.244 57.8193 45.559 58.5843C46.219 57.7743 47.134 57.3843 48.049 57.3843ZM56.0235 57.3843C58.2735 57.3843 59.6835 59.1543 59.2635 61.3443C59.2335 61.4643 59.1585 61.7943 59.0835 62.0193H53.1135C53.1435 63.2193 53.9985 63.7893 55.1385 63.7893C56.0235 63.7893 56.7585 63.4443 57.2535 62.8443L58.4385 63.7443C57.6285 64.7493 56.3835 65.2743 55.0035 65.2743C52.5435 65.2743 51.1785 63.4443 51.5535 61.1793C51.9285 58.9893 53.8035 57.3843 56.0235 57.3843ZM53.3385 60.6843H57.7335C57.7485 59.3943 56.9535 58.8543 55.9185 58.8543C54.7335 58.8543 53.7735 59.5443 53.3385 60.6843ZM60.3581 65.2593C59.7431 65.2593 59.3381 64.7343 59.4431 64.1043C59.5481 63.4893 60.0881 63.0093 60.7631 63.0093C61.3781 63.0093 61.7981 63.5343 61.6931 64.1493C61.5731 64.7793 61.0631 65.2593 60.3581 65.2593ZM70.7513 65.2743C68.6363 65.2743 67.3163 64.2693 66.9263 62.6943L68.4863 61.8843C68.7113 62.9043 69.4463 63.6093 70.8713 63.6093C72.1163 63.6093 72.8663 63.0693 73.0313 62.2893C73.2563 61.2843 72.2363 60.9093 71.0213 60.5043C69.4613 59.9793 67.9313 59.1693 68.3063 57.1593C68.6513 55.2243 70.4063 54.3843 72.0413 54.3843C73.8113 54.3843 74.9813 55.3293 75.4613 56.6793L73.9463 57.4743C73.6313 56.6493 73.0613 56.0493 71.9063 56.0493C70.9763 56.0493 70.2113 56.4993 70.0463 57.2793C69.8363 58.2693 70.7963 58.6593 71.9963 59.0793C73.3913 59.5743 75.2063 60.2493 74.7863 62.4543C74.4413 64.3443 72.7913 65.2743 70.7513 65.2743ZM79.4507 65.2743C77.0807 65.2743 75.6257 63.4293 76.0607 61.1343C76.4807 58.8843 78.4157 57.3843 80.6357 57.3843C82.8557 57.3843 84.3107 59.2143 83.9207 61.4793C83.5157 63.7593 81.5507 65.2743 79.4507 65.2743ZM79.5707 63.6993C80.8007 63.6993 82.0457 62.8443 82.3157 61.2993C82.5857 59.8143 81.6257 58.9593 80.4107 58.9593C79.1807 58.9593 77.9507 59.8143 77.6807 61.3293C77.4257 62.8443 78.3407 63.6993 79.5707 63.6993ZM98.4352 57.5793H100.205L96.5302 65.0793H94.9402L94.2652 60.0243L91.8802 65.0793H90.2152L89.1802 57.5793H90.8002L91.4002 62.7543L93.8302 57.5793H95.4202L95.4052 57.6093L96.0952 62.7543L98.4352 57.5793ZM105.356 57.3843C107.036 57.3843 108.101 58.5393 107.771 60.4743L106.961 65.0793H105.341L106.121 60.6393C106.316 59.4843 105.791 58.8993 104.741 58.8993C103.721 58.8993 102.776 59.4693 102.491 60.9093L101.756 65.0793H100.136L101.981 54.5793H103.601L102.911 58.4793C103.556 57.7293 104.441 57.3843 105.356 57.3843ZM113.416 57.3843C115.666 57.3843 117.076 59.1543 116.656 61.3443C116.626 61.4643 116.551 61.7943 116.476 62.0193H110.506C110.536 63.2193 111.391 63.7893 112.531 63.7893C113.416 63.7893 114.151 63.4443 114.646 62.8443L115.831 63.7443C115.021 64.7493 113.776 65.2743 112.396 65.2743C109.936 65.2743 108.571 63.4443 108.946 61.1793C109.321 58.9893 111.196 57.3843 113.416 57.3843ZM110.731 60.6843H115.126C115.141 59.3943 114.346 58.8543 113.311 58.8543C112.126 58.8543 111.166 59.5443 110.731 60.6843ZM120.122 58.7043C120.767 57.7593 121.697 57.4143 122.657 57.4443L122.342 59.1993C121.352 59.1243 120.062 59.5593 119.702 61.1043L118.997 65.0793H117.377L118.697 57.5793H120.317L120.122 58.7043ZM126.995 57.3843C129.245 57.3843 130.655 59.1543 130.235 61.3443C130.205 61.4643 130.13 61.7943 130.055 62.0193H124.085C124.115 63.2193 124.97 63.7893 126.11 63.7893C126.995 63.7893 127.73 63.4443 128.225 62.8443L129.41 63.7443C128.6 64.7493 127.355 65.2743 125.975 65.2743C123.515 65.2743 122.15 63.4443 122.525 61.1793C122.9 58.9893 124.775 57.3843 126.995 57.3843ZM124.31 60.6843H128.705C128.72 59.3943 127.925 58.8543 126.89 58.8543C125.705 58.8543 124.745 59.5443 124.31 60.6843ZM142.565 54.5793H144.185L142.34 65.0793H140.72L140.885 64.1793C140.21 64.8693 139.28 65.2743 138.11 65.2743C135.86 65.2743 134.63 63.2793 135.02 61.1643C135.425 58.9293 137.18 57.3843 139.28 57.3843C140.435 57.3843 141.335 57.9093 141.815 58.8093L142.565 54.5793ZM138.605 63.7293C139.88 63.7293 141.005 62.8593 141.335 61.5843L141.41 61.1493C141.56 59.7093 140.6 58.9293 139.385 58.9293C138.155 58.9293 136.91 59.7543 136.64 61.2843C136.4 62.6793 137.24 63.7293 138.605 63.7293ZM148.338 54.5793L146.598 58.4793H145.233L146.538 54.5793H148.338ZM154.512 57.5793H156.312L152.067 65.3193C150.942 67.4043 149.562 68.1843 147.927 68.0793L148.197 66.5643C149.217 66.6243 149.802 66.1443 150.372 65.1243L150.507 64.9143L148.662 57.5793H150.327L151.617 63.0843L154.512 57.5793ZM162.987 57.5793H164.607L163.287 65.0793H161.667L161.817 64.1943C161.157 64.8693 160.242 65.2743 159.072 65.2743C156.822 65.2743 155.592 63.2793 155.982 61.1643C156.387 58.9293 158.142 57.3843 160.242 57.3843C161.397 57.3843 162.282 57.8943 162.777 58.7943L162.987 57.5793ZM159.552 63.7293C160.827 63.7293 161.952 62.8743 162.282 61.5993L162.357 61.1643C162.507 59.7243 161.547 58.9293 160.332 58.9293C159.102 58.9293 157.872 59.7543 157.602 61.2843C157.362 62.6793 158.187 63.7293 159.552 63.7293ZM178.855 57.5793H180.625L176.95 65.0793H175.36L174.685 60.0243L172.3 65.0793H170.635L169.6 57.5793H171.22L171.82 62.7543L174.25 57.5793H175.84L175.825 57.6093L176.515 62.7543L178.855 57.5793ZM187.538 57.5793H189.158L187.838 65.0793H186.218L186.368 64.1943C185.708 64.8693 184.793 65.2743 183.623 65.2743C181.373 65.2743 180.143 63.2793 180.533 61.1643C180.938 58.9293 182.693 57.3843 184.793 57.3843C185.948 57.3843 186.833 57.8943 187.328 58.7943L187.538 57.5793ZM184.103 63.7293C185.378 63.7293 186.503 62.8743 186.833 61.5993L186.908 61.1643C187.058 59.7243 186.098 58.9293 184.883 58.9293C183.653 58.9293 182.423 59.7543 182.153 61.2843C181.913 62.6793 182.738 63.7293 184.103 63.7293ZM194.946 57.3843C196.626 57.3843 197.691 58.5393 197.361 60.4743L196.551 65.0793H194.931L195.711 60.6393C195.906 59.4843 195.381 58.8993 194.331 58.8993C193.326 58.8993 192.381 59.4693 192.081 60.8643L191.346 65.0793H189.726L191.046 57.5793H192.666L192.501 58.4793C193.146 57.7293 194.031 57.3843 194.946 57.3843ZM203.486 57.3843C205.166 57.3843 206.231 58.5393 205.901 60.4743L205.091 65.0793H203.471L204.251 60.6393C204.446 59.4843 203.921 58.8993 202.871 58.8993C201.866 58.8993 200.921 59.4693 200.621 60.8643L199.886 65.0793H198.266L199.586 57.5793H201.206L201.041 58.4793C201.686 57.7293 202.571 57.3843 203.486 57.3843ZM214.081 57.5793H215.701L214.381 65.0793H212.761L212.911 64.1943C212.251 64.8693 211.336 65.2743 210.166 65.2743C207.916 65.2743 206.686 63.2793 207.076 61.1643C207.481 58.9293 209.236 57.3843 211.336 57.3843C212.491 57.3843 213.376 57.8943 213.871 58.7943L214.081 57.5793ZM210.646 63.7293C211.921 63.7293 213.046 62.8743 213.376 61.5993L213.451 61.1643C213.601 59.7243 212.641 58.9293 211.426 58.9293C210.196 58.9293 208.966 59.7543 208.696 61.2843C208.456 62.6793 209.281 63.7293 210.646 63.7293ZM225.839 54.3843C226.679 54.3843 227.384 54.4893 228.119 54.6543L226.289 65.0793H224.669L226.289 55.8243C226.049 55.8093 225.824 55.8093 225.584 55.8093C224.444 55.8093 223.724 56.2743 223.529 57.4293L223.499 57.5793H224.894L224.624 59.1393H223.229L222.179 65.0793H220.559L221.609 59.1393H220.469L220.739 57.5793H221.879L221.909 57.4293C222.269 55.2843 223.589 54.3843 225.839 54.3843ZM234.463 57.5793H236.263L232.018 65.3193C230.893 67.4043 229.513 68.1843 227.878 68.0793L228.148 66.5643C229.168 66.6243 229.753 66.1443 230.323 65.1243L230.458 64.9143L228.613 57.5793H230.278L231.568 63.0843L234.463 57.5793ZM85.4056 83.1393L84.7756 86.7393C84.6106 87.7143 85.2856 87.6993 86.4856 87.6243L86.2306 89.0793C83.8906 89.3793 82.8106 88.6893 83.1556 86.7393L83.7856 83.1393H82.4056L82.6906 81.5793H84.0706L84.3556 79.9593L86.0506 79.4793L85.6756 81.5793H87.5506L87.2656 83.1393H85.4056ZM92.9196 81.3843C94.5996 81.3843 95.6646 82.5393 95.3346 84.4743L94.5246 89.0793H92.9046L93.6846 84.6393C93.8796 83.4843 93.3546 82.8993 92.3046 82.8993C91.2846 82.8993 90.3396 83.4693 90.0546 84.9093L89.3196 89.0793H87.6996L89.5446 78.5793H91.1646L90.4746 82.4793C91.1196 81.7293 92.0046 81.3843 92.9196 81.3843ZM98.5646 80.4543C97.9796 80.4543 97.6196 79.9743 97.7096 79.4193C97.7996 78.8643 98.3246 78.3843 98.9096 78.3843C99.4946 78.3843 99.8846 78.8493 99.7796 79.4193C99.6896 79.9743 99.1796 80.4543 98.5646 80.4543ZM96.2396 89.0793L97.5596 81.5793H99.1796L97.8596 89.0793H96.2396ZM102.502 89.2743C100.942 89.2743 99.9816 88.5693 99.5616 87.4593L101.017 86.7093C101.197 87.3393 101.752 87.7893 102.637 87.7893C103.387 87.7893 103.897 87.5193 103.987 86.9943C104.227 85.6143 99.9816 86.3643 100.492 83.5143C100.732 82.1643 102.052 81.3843 103.447 81.3843C104.737 81.3843 105.697 81.9693 106.147 82.9443L104.692 83.6793C104.512 83.1243 103.987 82.8393 103.357 82.8393C102.817 82.8393 102.217 83.0793 102.112 83.6493C101.842 85.1043 106.117 84.2193 105.607 87.1443C105.352 88.5693 104.092 89.2743 102.502 89.2743ZM113.327 89.2743C111.767 89.2743 110.807 88.5693 110.387 87.4593L111.842 86.7093C112.022 87.3393 112.577 87.7893 113.462 87.7893C114.212 87.7893 114.722 87.5193 114.812 86.9943C115.052 85.6143 110.807 86.3643 111.317 83.5143C111.557 82.1643 112.877 81.3843 114.272 81.3843C115.562 81.3843 116.522 81.9693 116.972 82.9443L115.517 83.6793C115.337 83.1243 114.812 82.8393 114.182 82.8393C113.642 82.8393 113.042 83.0793 112.937 83.6493C112.667 85.1043 116.942 84.2193 116.432 87.1443C116.177 88.5693 114.917 89.2743 113.327 89.2743ZM123.854 81.5793H125.474L124.154 89.0793H122.534L122.699 88.1793C122.054 88.9293 121.169 89.2743 120.254 89.2743C118.574 89.2743 117.509 88.1193 117.839 86.1843L118.649 81.5793H120.269L119.489 86.0193C119.294 87.1743 119.819 87.7593 120.869 87.7593C121.874 87.7593 122.819 87.1893 123.119 85.7943L123.854 81.5793ZM135.544 81.3843C137.164 81.3843 138.214 82.5693 137.884 84.4293L137.074 89.0793H135.454L136.249 84.5343C136.429 83.4843 135.979 82.8993 135.064 82.8993C134.164 82.8993 133.384 83.4693 133.129 84.7743L132.364 89.0793H130.744L131.539 84.5343C131.719 83.4843 131.314 82.8993 130.414 82.8993C129.559 82.8993 128.764 83.4093 128.449 84.6093L127.669 89.0793H126.049L127.369 81.5793H128.989L128.839 82.4043C129.454 81.7293 130.249 81.3843 131.104 81.3843C132.064 81.3843 132.739 81.8193 133.054 82.5843C133.714 81.7743 134.629 81.3843 135.544 81.3843ZM148.274 81.3843C149.894 81.3843 150.944 82.5693 150.614 84.4293L149.804 89.0793H148.184L148.979 84.5343C149.159 83.4843 148.709 82.8993 147.794 82.8993C146.894 82.8993 146.114 83.4693 145.859 84.7743L145.094 89.0793H143.474L144.269 84.5343C144.449 83.4843 144.044 82.8993 143.144 82.8993C142.289 82.8993 141.494 83.4093 141.179 84.6093L140.399 89.0793H138.779L140.099 81.5793H141.719L141.569 82.4043C142.184 81.7293 142.979 81.3843 143.834 81.3843C144.794 81.3843 145.469 81.8193 145.784 82.5843C146.444 81.7743 147.359 81.3843 148.274 81.3843ZM156.248 81.3843C158.498 81.3843 159.908 83.1543 159.488 85.3443C159.458 85.4643 159.383 85.7943 159.308 86.0193H153.338C153.368 87.2193 154.223 87.7893 155.363 87.7893C156.248 87.7893 156.983 87.4443 157.478 86.8443L158.663 87.7443C157.853 88.7493 156.608 89.2743 155.228 89.2743C152.768 89.2743 151.403 87.4443 151.778 85.1793C152.153 82.9893 154.028 81.3843 156.248 81.3843ZM153.563 84.6843H157.958C157.973 83.3943 157.178 82.8543 156.143 82.8543C154.958 82.8543 153.998 83.5443 153.563 84.6843ZM162.954 82.7043C163.599 81.7593 164.529 81.4143 165.489 81.4443L165.174 83.1993C164.184 83.1243 162.894 83.5593 162.534 85.1043L161.829 89.0793H160.209L161.529 81.5793H163.149L162.954 82.7043ZM167.991 85.7793C168.381 83.4243 171.096 83.0043 171.381 81.3693C171.531 80.4993 170.946 80.0643 170.076 80.0643C169.116 80.0643 168.366 80.5743 167.916 81.4893L166.491 80.6043C167.256 79.1343 168.756 78.3843 170.316 78.3843C172.011 78.3843 173.466 79.4943 173.121 81.3843C172.716 83.6643 169.986 84.1593 169.716 85.7793H167.991ZM168.231 89.2593C167.616 89.2593 167.211 88.7343 167.316 88.1043C167.421 87.4893 167.961 87.0093 168.636 87.0093C169.251 87.0093 169.671 87.5343 169.566 88.1493C169.446 88.7793 168.936 89.2593 168.231 89.2593Z" fill="white"/>
</svg>
