<svg width="32" height="32" viewBox="0 0 32 32" fill="none" xmlns="http://www.w3.org/2000/svg">
<circle cx="15.9998" cy="16" r="13.3333" fill="white"/>
<path d="M20.9152 18.8982L18.0165 16.001L20.9136 13.1039C21.4709 12.5483 21.4709 11.6439 20.9136 11.0883C20.3563 10.5278 19.4553 10.5294 18.898 11.0867L15.9992 13.9838L13.1005 11.0834C12.5432 10.5261 11.6405 10.5294 11.0832 11.0834C10.5276 11.6407 10.5276 12.545 11.0832 13.1007L13.9836 16.001L11.0897 18.8933C10.5325 19.4505 10.5325 20.3549 11.0897 20.9089C11.3684 21.1891 11.7317 21.3276 12.0967 21.3276C12.4634 21.3276 12.8267 21.1891 13.1054 20.9105L15.9992 18.0166L18.8996 20.9154C19.1782 21.194 19.5416 21.3325 19.9066 21.3325C20.2716 21.3325 20.6366 21.1924 20.9152 20.9154C21.4725 20.3581 21.4725 19.4554 20.9152 18.8982Z" fill="#0A3085"/>
</svg>
