<svg width="253" height="387" viewBox="0 0 253 387" fill="none" xmlns="http://www.w3.org/2000/svg">
<path d="M33.7091 125.366C33.7091 125.366 9.76071 120.372 8.47087 132.613C7.58727 141.047 15.7224 149.858 33.9427 152.913" stroke="white" stroke-width="1.3616" stroke-miterlimit="10"/>
<path d="M33.7093 186.752L24.5991 194.487C24.5991 194.487 3.31164 198.679 1.70695 206.413C0.0921054 214.147 5.90148 224.46 14.6054 224.784C23.3093 225.109 34.4405 218.908 34.4405 218.908" stroke="white" stroke-width="1.3616" stroke-miterlimit="10"/>
<path d="M46.7703 264.593C46.7703 264.593 28.4687 274.418 24.5992 277.321C20.7297 280.224 15.8953 285.38 23.9492 292.465C32.0132 299.56 54.2656 294.718 55.2304 293.429C56.1953 292.14 76.8328 296.007 85.2218 289.887L121.012 293.115C121.012 293.115 129.716 307.294 134.236 311.161C134.236 311.161 143.265 336.942 165.192 341.134L178.416 385.287" stroke="white" stroke-width="1.3616" stroke-miterlimit="10"/>
<path d="M269.364 386.251C269.364 386.251 254.211 322.113 253.561 318.896C252.911 315.678 252.911 311.161 252.911 311.161C252.911 311.161 249.681 273.454 244.847 251.216C240.013 228.977 233.878 202.546 233.878 202.546C233.878 202.546 236.133 191.27 231.624 183.535C227.104 175.801 206.792 141.311 202.282 133.577C197.763 125.843 185.514 107.471 185.189 104.568C184.864 101.665 171.966 92.6421 167.456 90.7136L162.937 88.775" stroke="white" stroke-width="1.3616" stroke-miterlimit="10"/>
<path d="M160.693 136.805C160.693 136.805 172.301 154.852 172.301 159.683C172.301 164.515 168.757 169.031 166.177 170.645C163.597 172.259 161.343 173.873 161.343 173.873" stroke="white" stroke-width="1.3616" stroke-miterlimit="10"/>
<path d="M181.005 214.798C181.005 214.798 169.396 203.521 154.243 193.523C139.09 183.536 119.092 163.55 115.548 161.622C112.003 159.683 102.974 145.828 90.3907 152.274C77.8173 158.719 81.6868 173.223 88.136 184.825C94.5852 196.426 107.809 209.317 117.477 218.665C125.562 226.48 134.57 233.169 135.535 240.254C136.5 247.349 138.115 262.492 139.405 270.551C140.695 278.611 152.303 298.271 153.268 300.2C154.233 302.128 156.173 311.162 161.007 314.379" stroke="white" stroke-width="1.3616" stroke-miterlimit="10"/>
<path d="M113.283 200.781C113.283 200.781 116.188 194.011 121.51 190.143C126.832 186.276 130.701 183.373 130.701 183.373" stroke="white" stroke-width="0.6808" stroke-miterlimit="10"/>
<path d="M118.128 202.222C118.128 202.222 126.832 196.101 130.701 190.945" stroke="white" stroke-width="0.6808" stroke-miterlimit="10"/>
<path d="M168.107 200.618C168.107 200.618 179.39 192.884 181.33 188.692" stroke="white" stroke-width="0.6808" stroke-miterlimit="10"/>
<path d="M172.301 159.683C172.301 159.683 183.91 160.333 187.455 157.744" stroke="white" stroke-width="0.6808" stroke-miterlimit="10"/>
<path d="M168.432 104.578L160.693 110.374" stroke="white" stroke-width="0.6808" stroke-miterlimit="10"/>
<path d="M179.075 209.641C179.075 209.641 187.464 190.945 191.334 184.825" stroke="white" stroke-width="0.6808" stroke-miterlimit="10"/>
<path d="M158.753 223.496C158.753 223.496 176.171 229.941 181.33 243.156" stroke="white" stroke-width="0.6808" stroke-miterlimit="10"/>
<path d="M116.838 268.298V285.055" stroke="white" stroke-width="0.6808" stroke-miterlimit="10"/>
<path d="M58.7849 266.359C58.7849 266.359 65.8842 272.479 65.8842 278.925" stroke="white" stroke-width="0.6808" stroke-miterlimit="10"/>
<path d="M30.0835 194.812C30.0835 194.812 33.9531 198.04 34.2781 201.257" stroke="white" stroke-width="0.6808" stroke-miterlimit="10"/>
<path d="M82.6521 167.579C82.6521 167.579 91.0412 179.506 93.9357 179.018C96.8302 178.531 109.414 173.7 109.414 168.868C109.414 160.17 100.222 150.822 100.222 150.822" stroke="white" stroke-width="0.6808" stroke-miterlimit="10"/>
<path d="M134.083 236.061H41.2138V31.5792H153.43V194.162" stroke="white" stroke-width="1.0212" stroke-miterlimit="10"/>
<path d="M138.44 265.385H52.5687C42.6765 265.385 34.5819 257.295 34.5819 247.409V19.1255C34.5819 9.23939 42.6765 1.14984 52.5687 1.14984H142.502C152.394 1.14984 160.489 9.23939 160.489 19.1255V197.877" stroke="white" stroke-width="2.0424" stroke-miterlimit="10"/>
<path d="M138.41 181.444L136.815 165.478L131.89 94.6312C131.89 94.6312 133.372 82.4614 128.375 73.8339C123.379 65.2064 117.518 60.1923 116.036 53.3918C115.203 49.5855 113.568 39.8009 112.278 31.9144" stroke="white" stroke-width="0.7268" stroke-miterlimit="10"/>
<path d="M69.4695 31.9046C69.3679 36.2488 69.2765 39.7404 69.2054 41.7501C68.6671 57.2289 67.4382 66.3233 60.8367 75.3974C54.2351 84.4715 59.9531 102.528 59.9531 102.528L62.7156 133.78L69.7031 230.997C69.7031 230.997 69.9265 233.473 70.9015 236.204" stroke="white" stroke-width="0.7268" stroke-miterlimit="10"/>
<path d="M70.7389 145.077C73.0647 143.148 74.9131 140.671 75.3904 137.769C75.5428 136.652 75.5834 135.241 74.5373 134.521C73.3897 133.709 71.8154 133.912 70.5357 134.338C69.2256 134.784 67.9561 135.475 67.0318 136.419C64.574 139.667 65.2545 144.894 68.2912 147.604C65.7521 146.406 64.4522 142.823 64.7873 140.002C64.9397 136.723 67.3061 134.5 70.424 133.901C71.8357 133.597 73.4303 133.475 74.6897 134.297C76.01 135.15 76.1318 136.957 75.9389 138.378C75.5022 141.209 73.217 144.031 70.7389 145.066V145.077Z" fill="white"/>
<path d="M70.505 138.033L70.5862 137.617C70.6472 137.089 71.2972 137.109 71.5714 137.474C71.9573 137.911 71.937 138.835 72.2315 139.555C72.2518 139.707 72.2823 139.961 72.0589 140.164C71.5206 140.53 70.8808 140.286 70.4643 139.87C69.9261 139.301 70.3018 138.601 70.505 138.043V138.033ZM70.5862 138.053C70.4542 138.5 70.8401 139.017 71.1042 139.281C71.2362 139.444 71.5307 139.545 71.6831 139.636C71.9065 139.677 71.8659 138.967 71.744 138.794C71.5917 138.449 70.9518 138.023 70.9518 137.688C70.9925 137.505 70.6268 137.759 70.5964 138.043L70.5862 138.053Z" fill="white"/>
<path d="M72.5664 145.138C75.6031 143.453 78.5687 141.565 80.9453 139.109C83.2304 136.47 86.064 134.308 88.8367 132.207C91.6601 130.146 94.5445 128.116 97.8554 126.807C101.339 125.406 105.026 124.625 108.743 124.198C107.544 126.107 106.316 127.994 105.046 129.852L104.975 129.811C105.899 128.005 106.854 126.208 107.839 124.432L108.154 124.909C104.752 125.528 101.369 126.37 98.1398 127.548C93.3562 129.476 88.7148 132.146 84.9773 135.749C83.7078 136.957 82.6414 138.266 81.4531 139.596C78.9851 142.052 75.7453 144.224 72.5664 145.138Z" fill="white"/>
<path d="M71.8153 147.412C76.6598 144.824 81.0067 141.566 85.4755 138.429C90.1981 135.638 94.9817 132.948 100.151 131.02C103.645 129.812 107.301 129.386 110.958 128.919L112.166 128.807L111.282 129.609L103.178 136.947L103.117 136.886L110.724 129.03C110.724 129.03 111.059 129.731 111.039 129.721C107.484 130.248 103.807 130.553 100.395 131.71C95.2559 133.395 90.1575 135.608 85.77 138.845C81.5755 142.195 76.8528 145.737 71.8356 147.422L71.8153 147.412Z" fill="white"/>
<path d="M65.3657 147.066C67.7727 150.7 74.9735 148.061 78.2946 146.924C82.6821 145.3 87.1711 143.93 91.5485 142.285C100.303 138.956 108.987 135.434 117.904 132.562C122.19 131.181 127.461 129.385 131.635 132.125C132.874 132.968 134.195 134.51 134.327 135.881C133.829 134.419 132.783 133.161 131.483 132.359C127.298 129.882 122.342 131.74 118.148 133.262C109.363 136.48 100.476 139.433 91.6399 142.529C85.6985 144.549 80.1532 147.482 74.0086 148.923C71.5204 149.522 66.2797 149.959 65.3657 147.066Z" fill="white"/>
<path d="M108.926 155.197C111.983 153.847 115.528 152.73 118.747 151.756C124.12 150.253 130.65 148.538 135.586 152.07C130.498 148.914 124.242 150.893 118.971 152.527C115.741 153.441 112.186 154.435 108.936 155.197H108.926Z" fill="white"/>
<path d="M66.1786 165.296C69.8552 168.747 73.1763 168.148 77.4724 166.474C78.8029 166.068 80.1333 165.662 81.5044 165.367C80.2552 166.007 78.9755 166.555 77.6857 167.093C73.4201 169.163 69.2357 169.508 66.1786 165.296Z" fill="white"/>
<path d="M121.215 166.585C123.134 166.585 125.298 166.422 126.923 167.66L126.344 167.752C127.837 163.56 122.241 161.398 119.366 159.754C122.312 159.784 125.582 159.53 128.466 160.271C128.812 160.383 128.578 160.292 128.538 160.474C128.538 160.484 128.538 160.454 128.538 160.424C128.345 159.632 127.776 158.779 127.38 158.028L127.441 157.977C127.776 158.404 129.919 160.556 128.751 160.941C127.095 160.647 122.566 160.576 120.809 160.474L120.981 159.804C122.515 160.748 123.876 161.916 125.186 163.144C126.75 164.423 127.948 166.534 126.781 168.544C125.379 167.102 123.073 167.173 121.205 166.676V166.595L121.215 166.585Z" fill="white"/>
<path d="M111.018 157.703C116.889 155.856 123.216 156.84 129.167 157.733C129.96 157.855 130.965 157.713 131.29 156.85C131.239 157.297 130.894 157.672 130.478 157.865C129.239 158.403 127.827 157.997 126.537 157.967C121.378 157.581 116.178 157.003 111.028 157.713L111.018 157.703Z" fill="white"/>
<path d="M121.296 96.4378C120.504 96.2856 119.824 96.1333 119.133 96.0115C113.222 95.0067 107.332 95.2807 101.451 96.2348C96.5456 97.0367 91.7417 98.275 87.1003 100.041C84.3581 101.076 81.6159 102.152 78.9652 103.411C69.1847 108.07 60.6331 114.373 53.7269 122.777C52.4472 124.34 51.2792 125.995 50.0909 127.639C49.5831 128.339 49.6339 129.243 50.1316 129.872C50.6495 130.532 51.4722 130.826 52.2644 130.501C52.6402 130.349 53.0363 130.055 53.2699 129.72C57.7081 123.224 63.2128 117.793 69.6214 113.256C72.5972 111.155 75.7152 109.298 78.9753 107.664C85.8917 104.192 93.1128 101.635 100.72 100.203C106.387 99.1377 112.085 98.7317 117.823 99.6249C118.95 99.7975 120.067 100.072 121.195 100.295C121.195 100.346 121.195 100.406 121.195 100.457L120.707 100.691C118.869 101.553 117.031 102.406 115.193 103.269C114.197 103.736 113.76 104.741 114.146 105.705C114.532 106.669 115.548 107.126 116.584 106.791C116.746 106.74 116.899 106.659 117.051 106.588C120.26 105.086 123.48 103.594 126.689 102.091C128.182 101.391 128.538 100.234 127.614 98.8637C125.521 95.7781 123.399 92.7128 121.286 89.6475C120.646 88.7137 119.489 88.5208 118.585 89.1501C117.752 89.7287 117.539 90.8756 118.138 91.7688C119.021 93.0883 119.935 94.3875 120.829 95.707C120.971 95.9202 121.114 96.1435 121.317 96.448L121.296 96.4378Z" fill="#009FE3"/>
</svg>
