<svg width="36" height="36" viewBox="0 0 36 36" fill="none" xmlns="http://www.w3.org/2000/svg">
<path d="M36 27C36 28.0609 35.5786 29.0783 34.8284 29.8284C34.0783 30.5786 33.0609 31 32 31H4C2.93913 31 1.92172 30.5786 1.17157 29.8284C0.421427 29.0783 0 28.0609 0 27V9C0 7.93913 0.421427 6.92172 1.17157 6.17157C1.92172 5.42143 2.93913 5 4 5H32C33.0609 5 34.0783 5.42143 34.8284 6.17157C35.5786 6.92172 36 7.93913 36 9V27Z" fill="#3E5EB9"/>
<path d="M0 10H36V26H0V10Z" fill="#FFD900"/>
<path d="M0 11H36V25H0V11Z" fill="#B10D0D"/>
<path d="M27.5132 16.7791L29.0752 17.3731L30.6062 16.7791L29.0752 16.2791L27.5132 16.7791Z" fill="white"/>
<path d="M28.531 16.8C28.531 16.8746 28.5014 16.946 28.4487 16.9987C28.396 17.0514 28.3245 17.081 28.25 17.081H5.781C5.70647 17.081 5.635 17.0514 5.5823 16.9987C5.52961 16.946 5.5 16.8746 5.5 16.8C5.5 16.7255 5.52961 16.654 5.5823 16.6013C5.635 16.5486 5.70647 16.519 5.781 16.519H28.25C28.405 16.519 28.531 16.645 28.531 16.8Z" fill="#FFD900"/>
<path d="M28.5132 15.7791L30.0752 16.3731L31.6062 15.7791L30.0752 15.2791L28.5132 15.7791Z" fill="white"/>
<path d="M29.5311 15.8C29.5311 15.8746 29.5015 15.946 29.4488 15.9987C29.3961 16.0514 29.3246 16.081 29.2501 16.081H6.78107C6.70655 16.081 6.63507 16.0514 6.58238 15.9987C6.52968 15.946 6.50007 15.8746 6.50007 15.8C6.50007 15.7255 6.52968 15.654 6.58238 15.6013C6.63507 15.5487 6.70655 15.519 6.78107 15.519H29.2501C29.287 15.5189 29.3236 15.5261 29.3578 15.5402C29.3919 15.5542 29.4229 15.5749 29.4491 15.6011C29.4752 15.6272 29.4959 15.6582 29.51 15.6924C29.524 15.7265 29.5312 15.7631 29.5311 15.8ZM33.7271 17.992C33.7272 18.0475 33.7164 18.1024 33.6952 18.1537C33.6741 18.205 33.643 18.2515 33.6038 18.2907C33.5646 18.33 33.518 18.361 33.4667 18.3822C33.4155 18.4034 33.3605 18.4142 33.3051 18.414H3.14807C3.03615 18.414 2.92882 18.3696 2.84968 18.2904C2.77053 18.2113 2.72607 18.104 2.72607 17.992C2.72607 17.8801 2.77053 17.7728 2.84968 17.6936C2.92882 17.6145 3.03615 17.57 3.14807 17.57H33.3041C33.5381 17.57 33.7271 17.759 33.7271 17.992Z" fill="#FFD900"/>
<path d="M27.229 18.031C27.229 18.031 23.171 23.521 18.167 23.521C13.163 23.521 9.104 18.031 9.104 18.031C9.104 18.031 13.162 12.541 18.167 12.541C23.172 12.541 27.229 18.031 27.229 18.031Z" fill="white"/>
<path d="M18.979 22.354C18.541 22.146 17.791 21.896 17.812 21.708C17.833 21.52 18.395 21.458 18.916 21.396C19.437 21.334 19.416 21.084 19.27 20.958C19.124 20.832 18.52 20.666 18.166 20.458C17.812 20.25 18.145 20.062 18.463 19.812C18.781 19.562 18.791 19.271 18.791 19.062C18.791 18.853 19.041 18.416 19.458 18.145C19.875 17.874 19.479 17.833 19.146 17.666C18.813 17.499 18.833 16.937 18.896 16.52C18.959 16.103 18.938 15.874 18.792 15.853C18.646 15.832 18.563 15.707 18.48 15.592C18.397 15.477 18.48 15.269 18.168 15.228C17.856 15.187 17.876 15.082 17.793 14.895C17.71 14.708 17.439 14.416 17.314 14.062C17.209 13.764 17.463 13.199 18.142 12.543C13.149 12.562 9.10596 18.031 9.10596 18.031C9.10596 18.031 13.164 23.521 18.169 23.521C18.81 23.521 19.435 23.429 20.037 23.272C19.894 22.685 19.332 22.522 18.979 22.354Z" fill="black"/>
<path d="M12.479 16.042H12.917V17.521H12.479V16.042ZM12.479 18.5H12.917V19.979H12.479V18.5ZM13.333 16.042H13.771V17.521H13.333V16.042ZM13.333 18.5H13.771V19.979H13.333V18.5ZM14.188 16.042H14.626V17.521H14.188V16.042ZM14.188 18.5H14.626V19.979H14.188V18.5ZM15.042 16.042H15.48V17.521H15.042V16.042ZM15.042 18.5H15.48V19.979H15.042V18.5ZM15.896 16.042H16.334V17.521H15.896V16.042ZM15.896 18.5H16.334V19.979H15.896V18.5ZM16.75 16.042H17.188V17.521H16.75V16.042ZM16.75 18.5H17.188V19.979H16.75V18.5Z" fill="white"/>
<path d="M19.229 16.042H19.667V17.521H19.229V16.042ZM19.229 18.5H19.667V19.979H19.229V18.5ZM20.084 16.042H20.522V17.521H20.084V16.042ZM20.084 18.5H20.522V19.979H20.084V18.5ZM20.938 16.042H21.376V17.521H20.938V16.042ZM20.938 18.5H21.376V19.979H20.938V18.5ZM21.791 16.042H22.229V17.521H21.791V16.042ZM21.791 18.5H22.229V19.979H21.791V18.5ZM22.646 16.042H23.084V17.521H22.646V16.042ZM22.646 18.5H23.084V19.979H22.646V18.5ZM23.5 16.042H23.938V17.521H23.5V16.042ZM23.5 18.5H23.938V19.979H23.5V18.5Z" fill="black"/>
<path d="M15.1559 13.594C14.7559 13.859 13.9369 14.672 13.8899 15.266C14.0619 15.11 14.2649 15.078 14.2649 15.078C14.2649 15.078 14.0309 15.406 14.0619 15.812C14.2029 15.656 14.3429 15.593 14.3429 15.593C14.3429 15.593 14.4259 15.968 14.7339 16.359C14.8899 16.265 14.9369 16.109 14.9369 16.109C14.9369 16.109 15.0309 16.437 15.3589 16.687C15.4789 16.656 15.4789 16.515 15.4789 16.515C15.4789 16.515 15.6719 16.921 16.4689 17.093C16.3279 16.827 16.7809 16.458 16.6099 16.041C16.7499 16.124 16.8909 16.327 16.8909 16.327C16.8909 16.327 17.0309 16.124 16.7499 15.749C16.9219 15.905 17.0159 16.041 17.0159 16.041C17.0159 16.041 17.1239 15.39 16.7499 14.983C16.9849 15.077 17.1879 15.186 17.1879 15.186C17.1879 15.186 17.1489 14.399 16.5629 14.045C15.8119 13.594 15.1559 13.922 15.1559 13.594ZM4.15594 17.906C4.15594 17.906 4.51494 18.234 4.01494 18.281C3.51494 18.328 3.10894 18.922 3.12394 19.515L3.38994 19.39C3.38994 19.39 3.31194 19.796 3.43694 20.062C3.54594 19.796 3.70294 19.812 3.70294 19.812C3.70294 19.812 3.73394 20.203 3.79694 20.5C3.92194 20.344 3.90594 20.172 3.90594 20.172C3.90594 20.172 4.09394 20.234 4.18694 20.5C4.27994 20.766 4.32794 20.969 4.54594 21.094C4.63994 21.047 4.68694 20.922 4.68694 20.922C4.68694 20.922 4.87494 21.078 5.17094 21.203C5.10894 20.781 5.51494 20.828 5.68694 20.531C5.74894 20.609 5.76494 20.765 5.76494 20.765C5.76494 20.765 5.88994 20.531 5.88994 20.296C5.88994 20.061 6.03094 19.874 6.03094 19.874C6.03094 19.874 6.04694 19.983 6.03094 20.155C6.17194 20.077 6.20294 19.186 6.13994 18.905C6.23394 18.983 6.31194 19.155 6.31194 19.155C6.31194 19.155 6.42094 18.702 6.31194 18.413C6.20294 18.124 5.88994 17.889 5.49994 18.03C5.10894 18.171 4.53094 17.796 4.53094 17.796C4.53094 17.796 4.62494 18.03 4.49994 18.108C4.37494 18.186 4.48394 17.984 4.15594 17.906ZM31.5469 17.75C31.5469 17.75 31.2349 17.859 30.7349 18.328C30.2349 18.797 30.0789 19.594 30.0789 19.594C30.0789 19.594 30.3599 19.36 30.4699 19.328C30.2039 19.937 30.7199 20.219 30.6419 20.703C30.8449 20.672 31.0329 20.312 31.0329 20.312C31.0329 20.312 31.4079 20.984 31.9389 21.359C32.0639 21 32.4229 20.703 32.4229 20.703L32.5009 20.906L32.7199 20.359L32.8759 20.625C32.8759 20.625 33.0169 20.318 32.8759 19.979C32.8969 20.04 33.1099 20.203 33.1099 20.203V19.453C33.1099 19.453 33.2349 19.687 33.3289 19.75C33.3289 19.422 33.1409 19.188 33.2199 19.047L33.3289 19.24C33.3289 19.24 33.4229 18.719 32.8759 18.312C32.3289 17.906 31.8189 17.937 31.7069 17.992C31.5939 18.047 31.5469 17.75 31.5469 17.75Z" fill="#3D5DA7"/>
<path d="M14.8589 14.578C15.1489 14.49 15.0469 15.422 14.7029 15.797C14.8909 15.156 14.4999 14.688 14.8589 14.578ZM15.5389 14.312C15.6079 14.072 16.1079 14.703 16.7489 14.734C16.1879 14.828 15.4529 14.609 15.5389 14.312ZM15.3439 15.281C15.5139 15.202 15.5629 16.14 15.3439 16.406C15.3749 15.938 15.1089 15.391 15.3439 15.281ZM15.9689 15.047C15.7519 15.106 16.3899 15.625 16.7499 15.594C16.4119 15.53 16.3119 14.953 15.9689 15.047ZM15.8439 16.042C15.6179 16.042 15.8439 16.641 16.2499 16.781C16.1089 16.562 16.2079 16.042 15.8439 16.042ZM4.23389 18.609C4.43989 18.609 4.17189 19.312 3.73389 19.593C3.96889 19.25 3.93789 18.609 4.23389 18.609ZM4.90589 18.5C4.73889 18.628 5.20289 19.199 5.73389 19.24C5.39089 19 5.10889 18.345 4.90589 18.5ZM4.40589 19.406C4.52989 19.385 4.55389 20.059 4.20289 20.234C4.39089 19.797 4.21889 19.438 4.40589 19.406ZM4.99989 19.406C5.20689 19.279 5.30989 19.808 5.60889 19.979C5.10889 19.859 4.79689 19.531 4.99989 19.406ZM4.74289 19.906C4.94989 19.815 5.06189 20.565 4.74289 20.781C4.85889 20.297 4.56289 19.984 4.74289 19.906ZM31.1559 19.24C31.3719 19.234 30.9839 19.875 30.6559 20.047C30.9689 19.578 30.9219 19.246 31.1559 19.24ZM31.9379 18.906C31.7769 19.017 32.2349 19.328 32.4539 19.328C32.1829 19.244 32.1409 18.766 31.9379 18.906ZM31.3749 19.979C31.5399 19.853 31.6089 20.265 31.3749 20.562C31.5179 20.26 31.1559 20.146 31.3749 19.979ZM32.0469 19.555C31.8759 19.624 32.2029 20.11 32.4529 20.141C32.1799 19.973 32.2969 19.453 32.0469 19.555ZM31.8119 20.047C31.9539 19.94 32.2439 20.641 31.9029 21C32.0649 20.479 31.5439 20.25 31.8119 20.047Z" fill="#A70000"/>
</svg>
