<svg width="36" height="36" viewBox="0 0 36 36" fill="none" xmlns="http://www.w3.org/2000/svg">
<g clip-path="url(#clip0_566_3570)">
<path d="M4 5C2.93913 5 1.92172 5.42143 1.17157 6.17157C0.421427 6.92172 0 7.93913 0 9L0 24.627L26.456 5H4Z" fill="#1EB53A"/>
<path d="M32 31C33.0609 31 34.0783 30.5785 34.8284 29.8284C35.5786 29.0782 36 28.0608 36 27V11.33L9.479 31H32Z" fill="#00A3DD"/>
<path d="M32 5H29.468L0 26.638V27C0 28.0609 0.421427 29.0783 1.17157 29.8284C1.92172 30.5786 2.93913 31 4 31H6.467L36 9.318V9C36 7.93913 35.5786 6.92172 34.8284 6.17157C34.0783 5.42143 33.0609 5 32 5Z" fill="#141414"/>
<path d="M26.456 5L0 24.627V26.638L29.468 5H26.456ZM9.479 31L36 11.33V9.318L6.467 31H9.479Z" fill="#FBD035"/>
</g>
<defs>
<clipPath id="clip0_566_3570">
<rect width="36" height="36" fill="white"/>
</clipPath>
</defs>
</svg>
