<svg width="32" height="32" viewBox="0 0 32 32" fill="none" xmlns="http://www.w3.org/2000/svg">
<g clip-path="url(#clip0_566_3468)">
<path d="M28.4445 4.44446H5.77783L16.8889 12H32.0001V8.00001C32.0001 7.05702 31.6255 6.15265 30.9587 5.48586C30.2919 4.81906 29.3875 4.44446 28.4445 4.44446Z" fill="#DE3830"/>
<path d="M5.77783 27.5556H28.4445C29.3875 27.5556 30.2919 27.181 30.9587 26.5142C31.6255 25.8474 32.0001 24.943 32.0001 24V20H16.8889L5.77783 27.5556Z" fill="#002395"/>
<path d="M0 9.77783V22.2223L9.33333 16.0001L0 9.77783Z" fill="#141414"/>
<path d="M0 8V9.77778L9.33333 16L0 22.2222V24L12 16L0 8Z" fill="#FFB611"/>
<path d="M3.14756 4.46936C2.28122 4.56943 1.48187 4.98442 0.901531 5.63539C0.321193 6.28637 0.000343966 7.12793 0 8.00003L12 16L0 24C0.000343966 24.8721 0.321193 25.7137 0.901531 26.3647C1.48187 27.0156 2.28122 27.4306 3.14756 27.5307L16.4444 18.2222H32V13.7778H16.4444L3.14756 4.46936Z" fill="#007A4D"/>
<path d="M5.77768 4.44446H3.55546C3.41679 4.44446 3.28168 4.45424 3.14746 4.46935L16.4443 13.7778H31.9999V12H16.8888L5.77768 4.44446ZM3.14746 27.5307C3.28168 27.5458 3.41679 27.5556 3.55546 27.5556H5.77768L16.8888 20H31.9999V18.2222H16.4443L3.14746 27.5307Z" fill="#EEEEEE"/>
</g>
<defs>
<clipPath id="clip0_566_3468">
<rect width="32" height="32" fill="white"/>
</clipPath>
</defs>
</svg>
