<svg width="184" height="112" viewBox="0 0 184 112" fill="none" xmlns="http://www.w3.org/2000/svg">
<rect width="184" height="112" rx="8" fill="#0A3085"/>
<path d="M99.4932 40.3333C98.9198 40.3333 98.4665 39.8667 98.4665 39.3067C98.4665 38.8133 97.9732 37.7867 97.1465 36.8933C96.3332 36.0267 95.4398 35.52 94.6932 35.52C94.1198 35.52 93.6665 35.0533 93.6665 34.4933C93.6665 33.9333 94.1332 33.4667 94.6932 33.4667C96.0265 33.4667 97.4265 34.1867 98.6532 35.48C99.7998 36.6933 100.533 38.2 100.533 39.2933C100.533 39.8667 100.067 40.3333 99.4932 40.3333Z" fill="#FFFF00"/>
<path d="M104.307 40.3334C103.734 40.3334 103.28 39.8667 103.28 39.3067C103.28 34.5734 99.4268 30.7334 94.7068 30.7334C94.1335 30.7334 93.6802 30.2667 93.6802 29.7067C93.6802 29.1467 94.1335 28.6667 94.6935 28.6667C100.56 28.6667 105.334 33.44 105.334 39.3067C105.334 39.8667 104.867 40.3334 104.307 40.3334Z" fill="#FFFF00"/>
<path opacity="0.6" d="M91.7198 44.9467L87.3598 49.3067C86.8798 48.88 86.4132 48.44 85.9598 47.9867C84.5865 46.6 83.3465 45.1467 82.2398 43.6267C81.1465 42.1067 80.2665 40.5867 79.6265 39.08C78.9865 37.56 78.6665 36.1067 78.6665 34.72C78.6665 33.8134 78.8265 32.9467 79.1465 32.1467C79.4665 31.3334 79.9732 30.5867 80.6798 29.92C81.5332 29.08 82.4665 28.6667 83.4532 28.6667C83.8265 28.6667 84.1998 28.7467 84.5332 28.9067C84.8798 29.0667 85.1865 29.3067 85.4265 29.6534L88.5198 34.0134C88.7598 34.3467 88.9332 34.6534 89.0532 34.9467C89.1732 35.2267 89.2398 35.5067 89.2398 35.76C89.2398 36.08 89.1465 36.4 88.9598 36.7067C88.7865 37.0134 88.5332 37.3334 88.2132 37.6534L87.1998 38.7067C87.0532 38.8534 86.9865 39.0267 86.9865 39.24C86.9865 39.3467 86.9998 39.44 87.0265 39.5467C87.0665 39.6534 87.1065 39.7334 87.1332 39.8134C87.3732 40.2534 87.7865 40.8267 88.3732 41.52C88.9732 42.2134 89.6132 42.92 90.3065 43.6267C90.7865 44.0934 91.2532 44.5467 91.7198 44.9467Z" fill="#FFFF00"/>
<path d="M105.293 50.44C105.293 50.8133 105.226 51.2 105.093 51.5733C105.053 51.68 105.013 51.7866 104.96 51.8933C104.733 52.3733 104.44 52.8266 104.053 53.2533C103.4 53.9733 102.68 54.4933 101.866 54.8266C101.853 54.8266 101.84 54.84 101.826 54.84C101.04 55.16 100.186 55.3333 99.2665 55.3333C97.9065 55.3333 96.4531 55.0133 94.9198 54.36C93.3865 53.7066 91.8531 52.8266 90.3331 51.72C89.8131 51.3333 89.2931 50.9466 88.7998 50.5333L93.1598 46.1733C93.5331 46.4533 93.8665 46.6666 94.1465 46.8133C94.2131 46.84 94.2931 46.88 94.3865 46.92C94.4931 46.96 94.5998 46.9733 94.7198 46.9733C94.9465 46.9733 95.1198 46.8933 95.2665 46.7466L96.2798 45.7466C96.6131 45.4133 96.9331 45.16 97.2398 45C97.5465 44.8133 97.8531 44.72 98.1865 44.72C98.4398 44.72 98.7065 44.7733 98.9998 44.8933C99.2931 45.0133 99.5998 45.1866 99.9331 45.4133L104.346 48.5466C104.693 48.7866 104.933 49.0666 105.08 49.4C105.213 49.7333 105.293 50.0666 105.293 50.44Z" fill="#FFFF00"/>
<path d="M34.6528 81L34.0648 79.236H30.1588L29.5708 81H27.4848L30.9148 71.2H33.3088L36.7528 81H34.6528ZM30.7748 77.43H33.4628L32.1188 73.426L30.7748 77.43ZM38.4043 71.2H40.3363V81H38.4043V71.2ZM48.2264 81L46.2524 77.598H44.7824V81H42.8504V71.2H46.7704C48.5764 71.2 50.0324 72.656 50.0324 74.448C50.0324 75.68 49.2624 76.786 48.1424 77.304L50.3124 81H48.2264ZM44.7824 73.006V75.904H46.7704C47.4984 75.904 48.1004 75.26 48.1004 74.448C48.1004 73.636 47.4984 73.006 46.7704 73.006H44.7824ZM58.427 71.2V73.048H55.781V81H53.849V73.048H51.217V71.2H58.427ZM60.2055 71.2H62.1375V81H60.2055V71.2ZM74.2416 71.2V81H72.3236V74.644L69.5656 79.194H69.3416L66.5836 74.658V81H64.6516V71.2H66.6396L69.4536 75.834L72.2536 71.2H74.2416ZM78.6996 79.152H82.8296V81H76.7676V71.2H82.7596V73.048H78.6996V75.134H82.4096V76.954H78.6996V79.152ZM91.5134 81L88.2234 71.2H90.3234L92.7174 78.732L95.0974 71.2H97.2114L93.9074 81H91.5134ZM103.052 81.196C100.224 81.196 97.9704 78.956 97.9704 76.1C97.9704 73.23 100.224 71.004 103.052 71.004C105.88 71.004 108.148 73.23 108.148 76.1C108.148 78.956 105.88 81.196 103.052 81.196ZM103.052 79.306C104.83 79.306 106.216 77.976 106.216 76.1C106.216 74.21 104.83 72.88 103.052 72.88C101.274 72.88 99.8884 74.21 99.8884 76.1C99.8884 77.976 101.274 79.306 103.052 79.306ZM113.792 81.196C111.65 81.196 110.054 79.908 110.054 77.794V71.2H111.972V77.64C111.972 78.592 112.476 79.306 113.792 79.306C115.108 79.306 115.612 78.592 115.612 77.64V71.2H117.544V77.794C117.544 79.908 115.948 81.196 113.792 81.196ZM124.632 81.196C121.664 81.196 119.536 78.956 119.536 76.1C119.536 73.23 121.664 71.004 124.632 71.004C126.424 71.004 128.006 71.914 128.846 73.314L127.18 74.28C126.704 73.412 125.752 72.88 124.632 72.88C122.714 72.88 121.454 74.21 121.454 76.1C121.454 77.976 122.714 79.306 124.632 79.306C125.752 79.306 126.718 78.774 127.18 77.92L128.846 78.886C128.02 80.286 126.438 81.196 124.632 81.196ZM136.305 71.2H138.223V81H136.305V76.94H132.665V81H130.733V71.2H132.665V75.092H136.305V71.2ZM142.676 79.152H146.806V81H140.744V71.2H146.736V73.048H142.676V75.134H146.386V76.954H142.676V79.152ZM154.244 81L152.27 77.598H150.8V81H148.868V71.2H152.788C154.594 71.2 156.05 72.656 156.05 74.448C156.05 75.68 155.28 76.786 154.16 77.304L156.33 81H154.244ZM150.8 73.006V75.904H152.788C153.516 75.904 154.118 75.26 154.118 74.448C154.118 73.636 153.516 73.006 152.788 73.006H150.8Z" fill="#FFFF00"/>
</svg>
