<svg width="184" height="112" viewBox="0 0 184 112" fill="none" xmlns="http://www.w3.org/2000/svg">
<rect width="184" height="112" rx="8" fill="#0A3085"/>
<path opacity="0.6" d="M101.733 36.56V43.4267C101.733 47.5333 99.3865 49.2933 95.8665 49.2933H84.1464C83.5464 49.2933 82.9731 49.24 82.4398 49.12C82.1064 49.0667 81.7865 48.9734 81.4931 48.8667C79.4931 48.12 78.2798 46.3867 78.2798 43.4267V36.56C78.2798 32.4533 80.6264 30.6934 84.1464 30.6934H95.8665C98.8531 30.6934 101 31.96 101.573 34.8534C101.666 35.3867 101.733 35.9333 101.733 36.56Z" fill="#FFFF00"/>
<path d="M105.733 40.56V47.4267C105.733 51.5333 103.387 53.2933 99.8666 53.2933H88.1466C87.1599 53.2933 86.2666 53.16 85.4933 52.8667C83.9066 52.28 82.8266 51.0667 82.4399 49.12C82.9733 49.24 83.5466 49.2933 84.1466 49.2933H95.8666C99.3866 49.2933 101.733 47.5333 101.733 43.4267V36.56C101.733 35.9333 101.68 35.3733 101.573 34.8533C104.107 35.3867 105.733 37.1733 105.733 40.56Z" fill="#FFFF00"/>
<path d="M90 43.52C91.944 43.52 93.52 41.944 93.52 40C93.52 38.056 91.944 36.48 90 36.48C88.056 36.48 86.48 38.056 86.48 40C86.48 41.944 88.056 43.52 90 43.52Z" fill="#FFFF00"/>
<path d="M82.3735 37C81.8269 37 81.3735 37.4533 81.3735 38V42C81.3735 42.5467 81.8269 43 82.3735 43C82.9202 43 83.3735 42.5467 83.3735 42V38C83.3735 37.4533 82.9335 37 82.3735 37Z" fill="#FFFF00"/>
<path d="M97.6133 37C97.0666 37 96.6133 37.4533 96.6133 38V42C96.6133 42.5467 97.0666 43 97.6133 43C98.1599 43 98.6133 42.5467 98.6133 42V38C98.6133 37.4533 98.1733 37 97.6133 37Z" fill="#FFFF00"/>
<path d="M78.2355 81.196C75.2675 81.196 73.1395 78.956 73.1395 76.1C73.1395 73.23 75.2675 71.004 78.2355 71.004C80.0275 71.004 81.6095 71.914 82.4495 73.314L80.7835 74.28C80.3075 73.412 79.3555 72.88 78.2355 72.88C76.3175 72.88 75.0575 74.21 75.0575 76.1C75.0575 77.976 76.3175 79.306 78.2355 79.306C79.3555 79.306 80.3215 78.774 80.7835 77.92L82.4495 78.886C81.6235 80.286 80.0415 81.196 78.2355 81.196ZM90.5954 81L90.0074 79.236H86.1014L85.5134 81H83.4274L86.8574 71.2H89.2514L92.6954 81H90.5954ZM86.7174 77.43H89.4054L88.0614 73.426L86.7174 77.43ZM97.4742 81.196C95.4722 81.196 94.1562 80.23 93.6242 78.774L95.2762 77.808C95.6262 78.718 96.3122 79.306 97.5302 79.306C98.6922 79.306 99.0982 78.816 99.0982 78.27C99.0982 77.542 98.4402 77.262 96.9842 76.842C95.4862 76.408 94.0302 75.778 94.0302 73.916C94.0302 72.068 95.5702 71.004 97.2502 71.004C98.8602 71.004 100.092 71.83 100.75 73.202L99.1262 74.14C98.7762 73.398 98.2442 72.88 97.2502 72.88C96.4382 72.88 95.9622 73.3 95.9622 73.86C95.9622 74.462 96.3402 74.784 97.8242 75.232C99.3782 75.722 101.03 76.24 101.03 78.242C101.03 80.076 99.5602 81.196 97.4742 81.196ZM108.494 71.2H110.412V81H108.494V76.94H104.854V81H102.922V71.2H104.854V75.092H108.494V71.2Z" fill="#FFFF00"/>
</svg>
