<svg width="184" height="112" viewBox="0 0 184 112" fill="none" xmlns="http://www.w3.org/2000/svg">
<rect width="184" height="112" rx="8" fill="#0A3085"/>
<path opacity="0.6" d="M91.9999 32.3549C93.2127 32.3549 94.2603 31.5816 94.6367 30.444C93.9187 30.6416 93.0035 30.7609 91.9999 30.7609C90.9963 30.7609 90.0812 30.6416 89.3633 30.444C89.7394 31.5815 90.7869 32.3549 91.9999 32.3549Z" fill="#FFFF00"/>
<path d="M105.965 33.7538C105.908 33.5922 105.788 33.4593 105.632 33.3869L100.293 30.9225C99.1577 30.5379 98.0009 30.234 96.8327 30.0119C96.7916 30.0039 96.7507 30 96.7103 30C96.4212 30 96.1622 30.1996 96.0978 30.4924C95.6712 32.3703 94.0089 33.7762 91.9999 33.7762C89.991 33.7762 88.3286 32.3704 87.9022 30.4924C87.837 30.1996 87.5785 30 87.2895 30C87.2492 30 87.2082 30.0039 87.1671 30.0119C85.9991 30.234 84.8422 30.5379 83.7049 30.9225L78.3685 33.3868C78.2114 33.4592 78.0907 33.5921 78.0359 33.7537C77.9791 33.9173 77.9893 34.0938 78.0693 34.248L80.3868 38.8216C80.4953 39.0387 80.7159 39.169 80.9494 39.169C81.0097 39.169 81.0708 39.1602 81.131 39.1422L83.705 38.3793V53.7253C83.705 54.0738 83.9893 54.358 84.3387 54.358H99.6614C100.01 54.358 100.293 54.0737 100.293 53.7253V38.3794L102.869 39.1423C102.929 39.1604 102.99 39.1692 103.051 39.1692C103.284 39.1692 103.503 39.0389 103.613 38.8218L105.932 34.2482C106.01 34.0939 106.021 33.9174 105.965 33.7538Z" fill="#FFFF00"/>
<path d="M61.2223 81.196C58.2543 81.196 56.1263 78.956 56.1263 76.1C56.1263 73.23 58.2543 71.004 61.2223 71.004C63.0143 71.004 64.5963 71.914 65.4363 73.314L63.7703 74.28C63.2943 73.412 62.3423 72.88 61.2223 72.88C59.3043 72.88 58.0443 74.21 58.0443 76.1C58.0443 77.976 59.3043 79.306 61.2223 79.306C62.3423 79.306 63.3083 78.774 63.7703 77.92L65.4363 78.886C64.6103 80.286 63.0283 81.196 61.2223 81.196ZM69.2551 79.152H72.9931V81H67.3231V71.2H69.2551V79.152ZM78.8231 81.196C75.9951 81.196 73.7411 78.956 73.7411 76.1C73.7411 73.23 75.9951 71.004 78.8231 71.004C81.6511 71.004 83.9191 73.23 83.9191 76.1C83.9191 78.956 81.6511 81.196 78.8231 81.196ZM78.8231 79.306C80.6011 79.306 81.9871 77.976 81.9871 76.1C81.9871 74.21 80.6011 72.88 78.8231 72.88C77.0451 72.88 75.6591 74.21 75.6591 76.1C75.6591 77.976 77.0451 79.306 78.8231 79.306ZM91.8984 71.2V73.048H89.2524V81H87.3204V73.048H84.6884V71.2H91.8984ZM99.249 71.2H101.167V81H99.249V76.94H95.609V81H93.677V71.2H95.609V75.092H99.249V71.2ZM103.688 71.2H105.62V81H103.688V71.2ZM113.804 71.2H115.736V81H114.266L110.066 75.008V81H108.134V71.2H109.604L113.804 77.178V71.2ZM127.872 75.736V76.492C127.872 79.32 125.87 81.196 123.056 81.196C119.99 81.196 117.806 78.914 117.806 76.114C117.806 73.272 120.018 71.004 122.944 71.004C124.806 71.004 126.388 71.942 127.214 73.286L125.562 74.238C125.114 73.454 124.12 72.88 122.93 72.88C121.068 72.88 119.724 74.252 119.724 76.114C119.724 77.934 121.026 79.306 123.07 79.306C124.61 79.306 125.59 78.564 125.926 77.444H122.958V75.736H127.872Z" fill="#FFFF00"/>
</svg>
