<svg width="184" height="112" viewBox="0 0 184 112" fill="none" xmlns="http://www.w3.org/2000/svg">
<rect width="184" height="112" rx="8" fill="#0A3085"/>
<path opacity="0.6" d="M101.8 33.5466L93.4135 29.0267C92.5335 28.5467 91.4669 28.5467 90.5735 29.0267L82.1869 33.5466C81.5736 33.88 81.2002 34.5333 81.2002 35.2533C81.2002 35.9733 81.5736 36.6266 82.1869 36.96L90.5735 41.48C91.0135 41.72 91.5069 41.84 91.9869 41.84C92.4669 41.84 92.9602 41.72 93.4002 41.48L101.787 36.96C102.4 36.6266 102.774 35.9733 102.774 35.2533C102.8 34.5333 102.414 33.88 101.8 33.5466Z" fill="#FFFF00"/>
<path opacity="0.6" d="M89.1998 43.0534L81.3998 39.1467C80.7998 38.84 80.1065 38.88 79.5331 39.2267C78.9598 39.5734 78.6265 40.1867 78.6265 40.8534V48.2267C78.6265 49.5067 79.3331 50.6534 80.4798 51.2267L88.2798 55.1201C88.5465 55.2534 88.8398 55.32 89.1331 55.32C89.4798 55.32 89.8265 55.2267 90.1331 55.0267C90.7065 54.6801 91.0398 54.0667 91.0398 53.4V46.0267C91.0531 44.7734 90.3465 43.6267 89.1998 43.0534Z" fill="#FFFF00"/>
<path opacity="0.6" d="M105.373 40.8667V46.9867C105.36 46.9734 105.347 46.9467 105.333 46.9334C105.333 46.92 105.32 46.9067 105.307 46.8933C105.253 46.8133 105.187 46.7334 105.12 46.6667C105.107 46.6534 105.093 46.6267 105.08 46.6134C104 45.4134 102.413 44.6667 100.667 44.6667C98.9868 44.6667 97.4534 45.36 96.3601 46.48C95.3068 47.56 94.6668 49.04 94.6668 50.6667C94.6668 51.7867 94.9868 52.8534 95.5334 53.76C95.7601 54.1467 96.0401 54.4933 96.3468 54.8133L95.7201 55.1333C95.4535 55.2667 95.1601 55.3334 94.8668 55.3334C94.5201 55.3334 94.1735 55.2401 93.8535 55.0401C93.2935 54.6934 92.9468 54.08 92.9468 53.4134V46.0533C92.9468 44.7733 93.6535 43.6267 94.8001 43.0533L102.6 39.16C103.2 38.8534 103.893 38.88 104.467 39.24C105.027 39.5867 105.373 40.2001 105.373 40.8667Z" fill="#FFFF00"/>
<path d="M105.307 46.8933C104.213 45.5466 102.547 44.6934 100.667 44.6934C99.2532 44.6934 97.9465 45.1867 96.9198 46.0133C95.5332 47.1067 94.6665 48.8 94.6665 50.6934C94.6665 51.8134 94.9865 52.88 95.5332 53.7867C95.8932 54.3867 96.3465 54.9067 96.8798 55.3333H96.8932C97.9199 56.1867 99.2398 56.6934 100.667 56.6934C102.187 56.6934 103.56 56.1334 104.613 55.2C105.08 54.8 105.48 54.32 105.8 53.7867C106.347 52.88 106.667 51.8134 106.667 50.6934C106.667 49.2534 106.16 47.92 105.307 46.8933ZM103.68 49.9467L100.48 52.9067C100.293 53.08 100.04 53.1733 99.7998 53.1733C99.5465 53.1733 99.2932 53.08 99.0932 52.88L97.6132 51.4C97.2265 51.0133 97.2265 50.3733 97.6132 49.9867C97.9998 49.6 98.6398 49.6 99.0265 49.9867L99.8265 50.7867L102.32 48.48C102.72 48.1066 103.36 48.1334 103.733 48.5334C104.12 48.9467 104.093 49.5734 103.68 49.9467Z" fill="#FFFF00"/>
<path d="M27.0002 71.2C29.7022 71.2 31.7182 73.342 31.7182 76.1C31.7182 78.858 29.7022 81 27.0002 81H23.1082V71.2H27.0002ZM27.0002 79.152C28.6942 79.152 29.8702 77.906 29.8702 76.1C29.8702 74.294 28.6942 73.048 27.0002 73.048H25.0402V79.152H27.0002ZM35.7207 79.152H39.8507V81H33.7887V71.2H39.7807V73.048H35.7207V75.134H39.4307V76.954H35.7207V79.152ZM43.8445 79.152H47.5825V81H41.9125V71.2H43.8445V79.152ZM49.3801 71.2H51.3121V81H49.3801V71.2ZM56.2482 81L52.9582 71.2H55.0582L57.4522 78.732L59.8322 71.2H61.9462L58.6422 81H56.2482ZM65.5227 79.152H69.6527V81H63.5907V71.2H69.5827V73.048H65.5227V75.134H69.2327V76.954H65.5227V79.152ZM77.0905 81L75.1165 77.598H73.6465V81H71.7145V71.2H75.6345C77.4405 71.2 78.8965 72.656 78.8965 74.448C78.8965 75.68 78.1265 76.786 77.0065 77.304L79.1765 81H77.0905ZM73.6465 73.006V75.904H75.6345C76.3625 75.904 76.9645 75.26 76.9645 74.448C76.9645 73.636 76.3625 73.006 75.6345 73.006H73.6465ZM88.4967 71.2L85.1367 77.178V81H83.2187V77.178L79.8727 71.2H82.0567L84.1847 75.288L86.3127 71.2H88.4967ZM96.758 81L93.468 71.2H95.568L97.962 78.732L100.342 71.2H102.456L99.152 81H96.758ZM108.297 81.196C105.469 81.196 103.215 78.956 103.215 76.1C103.215 73.23 105.469 71.004 108.297 71.004C111.125 71.004 113.393 73.23 113.393 76.1C113.393 78.956 111.125 81.196 108.297 81.196ZM108.297 79.306C110.075 79.306 111.461 77.976 111.461 76.1C111.461 74.21 110.075 72.88 108.297 72.88C106.519 72.88 105.133 74.21 105.133 76.1C105.133 77.976 106.519 79.306 108.297 79.306ZM119.036 81.196C116.894 81.196 115.298 79.908 115.298 77.794V71.2H117.216V77.64C117.216 78.592 117.72 79.306 119.036 79.306C120.352 79.306 120.856 78.592 120.856 77.64V71.2H122.788V77.794C122.788 79.908 121.192 81.196 119.036 81.196ZM129.877 81.196C126.909 81.196 124.781 78.956 124.781 76.1C124.781 73.23 126.909 71.004 129.877 71.004C131.669 71.004 133.251 71.914 134.091 73.314L132.425 74.28C131.949 73.412 130.997 72.88 129.877 72.88C127.959 72.88 126.699 74.21 126.699 76.1C126.699 77.976 127.959 79.306 129.877 79.306C130.997 79.306 131.963 78.774 132.425 77.92L134.091 78.886C133.265 80.286 131.683 81.196 129.877 81.196ZM141.55 71.2H143.468V81H141.55V76.94H137.91V81H135.978V71.2H137.91V75.092H141.55V71.2ZM147.92 79.152H152.05V81H145.988V71.2H151.98V73.048H147.92V75.134H151.63V76.954H147.92V79.152ZM159.488 81L157.514 77.598H156.044V81H154.112V71.2H158.032C159.838 71.2 161.294 72.656 161.294 74.448C161.294 75.68 160.524 76.786 159.404 77.304L161.574 81H159.488ZM156.044 73.006V75.904H158.032C158.76 75.904 159.362 75.26 159.362 74.448C159.362 73.636 158.76 73.006 158.032 73.006H156.044Z" fill="#FFFF00"/>
</svg>
