<svg width="184" height="112" viewBox="0 0 184 112" fill="none" xmlns="http://www.w3.org/2000/svg">
<rect width="184" height="112" rx="8" fill="#0A3085"/>
<path d="M88.1012 23.0561V20.7031C88.1012 20.3148 87.7863 20 87.398 20H84.9634C84.5751 20 84.2603 20.3148 84.2603 20.7031V23.0561H88.1012Z" fill="#FFFF00"/>
<path d="M90.8976 29.8432C90.7525 28.5656 90.0167 27.4167 88.8821 26.7236L88.101 26.2464V24.4623H84.26V26.2464L83.4788 26.7236C82.3442 27.4167 81.6085 28.5656 81.4634 29.8432H90.8976Z" fill="#FFFF00"/>
<path d="M99.7403 23.0561V20.7031C99.7403 20.3148 99.4255 20 99.0372 20H96.6025C96.2142 20 95.8994 20.3148 95.8994 20.7031V23.0561H99.7403Z" fill="#FFFF00"/>
<path d="M95.8992 24.4623V26.2464L95.118 26.7236C93.9833 27.4168 93.2476 28.5656 93.1025 29.8432H102.537C102.392 28.5656 101.656 27.4167 100.521 26.7236L99.7401 26.2464V24.4623H95.8992Z" fill="#FFFF00"/>
<path opacity="0.6" d="M103.297 31.2496H80.7031C80.3148 31.2496 80 31.5644 80 31.9527V43.2969C80 43.6852 80.3148 44 80.7031 44H103.297C103.685 44 104 43.6852 104 43.2969V31.9527C104 31.5644 103.685 31.2496 103.297 31.2496ZM94.5214 38.5549H89.4787C88.3156 38.5549 87.3692 37.6086 87.3692 36.4454C87.3692 35.2822 88.3156 34.3359 89.4787 34.3359H94.5214C95.6845 34.3359 96.6308 35.2822 96.6308 36.4454C96.6308 37.6086 95.6845 38.5549 94.5214 38.5549Z" fill="#FFFF00"/>
<path d="M89.4786 35.7421C89.0909 35.7421 88.7754 36.0576 88.7754 36.4453C88.7754 36.8331 89.0909 37.1486 89.4786 37.1486H94.4744C94.8621 37.1486 95.1776 36.8331 95.1776 36.4453C95.1776 36.0576 94.8621 35.7421 94.4744 35.7421H89.4786Z" fill="#FFFF00"/>
<path d="M25.8984 64.378C27.9284 64.434 29.3284 65.82 29.3284 67.78C29.3284 69.782 27.8724 71.196 25.7724 71.196C23.6724 71.196 22.2304 69.782 22.2304 67.78C22.2304 67.024 22.4404 66.352 22.8044 65.806L25.8564 61.2H28.0684L25.8984 64.378ZM25.7724 69.376C26.6824 69.376 27.4104 68.774 27.4104 67.78C27.4104 66.8 26.6824 66.198 25.7724 66.198C24.8624 66.198 24.1484 66.786 24.1484 67.78C24.1484 68.774 24.8624 69.376 25.7724 69.376ZM31.2567 67.64V65.904H36.5067V67.64H31.2567ZM42.679 61.2C44.569 61.2 46.025 62.656 46.025 64.49C46.025 66.324 44.569 67.78 42.679 67.78H40.957V71H39.025V61.2H42.679ZM42.679 65.974C43.505 65.974 44.107 65.33 44.107 64.49C44.107 63.636 43.505 63.006 42.679 63.006H40.957V65.974H42.679ZM53.2848 71L52.6968 69.236H48.7908L48.2028 71H46.1168L49.5468 61.2H51.9408L55.3848 71H53.2848ZM49.4068 67.43H52.0948L50.7508 63.426L49.4068 67.43ZM61.3289 71.196C58.3609 71.196 56.2329 68.956 56.2329 66.1C56.2329 63.23 58.3609 61.004 61.3289 61.004C63.1209 61.004 64.7029 61.914 65.5429 63.314L63.8769 64.28C63.4009 63.412 62.4489 62.88 61.3289 62.88C59.4109 62.88 58.1509 64.21 58.1509 66.1C58.1509 67.976 59.4109 69.306 61.3289 69.306C62.4489 69.306 63.4149 68.774 63.8769 67.92L65.5429 68.886C64.7169 70.286 63.1349 71.196 61.3289 71.196ZM75.0877 71H72.8617L69.3617 66.408V71H67.4297V61.2H69.3617V65.526L72.7217 61.2H74.9477L71.3217 65.96L75.0877 71ZM79.5285 71.196C77.5265 71.196 76.2105 70.23 75.6785 68.774L77.3305 67.808C77.6805 68.718 78.3665 69.306 79.5845 69.306C80.7465 69.306 81.1525 68.816 81.1525 68.27C81.1525 67.542 80.4945 67.262 79.0385 66.842C77.5405 66.408 76.0845 65.778 76.0845 63.916C76.0845 62.068 77.6245 61.004 79.3045 61.004C80.9145 61.004 82.1465 61.83 82.8045 63.202L81.1805 64.14C80.8305 63.398 80.2985 62.88 79.3045 62.88C78.4925 62.88 78.0165 63.3 78.0165 63.86C78.0165 64.462 78.3945 64.784 79.8785 65.232C81.4325 65.722 83.0845 66.24 83.0845 68.242C83.0845 70.076 81.6145 71.196 79.5285 71.196ZM93.8786 71.196C91.0506 71.196 88.7966 68.956 88.7966 66.1C88.7966 63.23 91.0506 61.004 93.8786 61.004C96.7066 61.004 98.9746 63.23 98.9746 66.1C98.9746 68.956 96.7066 71.196 93.8786 71.196ZM93.8786 69.306C95.6566 69.306 97.0426 67.976 97.0426 66.1C97.0426 64.21 95.6566 62.88 93.8786 62.88C92.1006 62.88 90.7146 64.21 90.7146 66.1C90.7146 67.976 92.1006 69.306 93.8786 69.306ZM106.884 63.048H102.964V65.372H106.772V67.22H102.964V71H101.032V61.2H106.884V63.048ZM119.044 63.048H115.124V65.372H118.932V67.22H115.124V71H113.192V61.2H119.044V63.048ZM123.084 69.152H126.822V71H121.152V61.2H123.084V69.152ZM135.104 61.2L131.744 67.178V71H129.826V67.178L126.48 61.2H128.664L130.792 65.288L132.92 61.2H135.104ZM136.743 61.2H138.675V71H136.743V61.2ZM146.859 61.2H148.791V71H147.321L143.121 65.008V71H141.189V61.2H142.659L146.859 67.178V61.2ZM160.927 65.736V66.492C160.927 69.32 158.925 71.196 156.111 71.196C153.045 71.196 150.861 68.914 150.861 66.114C150.861 63.272 153.073 61.004 155.999 61.004C157.861 61.004 159.443 61.942 160.269 63.286L158.617 64.238C158.169 63.454 157.175 62.88 155.985 62.88C154.123 62.88 152.779 64.252 152.779 66.114C152.779 67.934 154.081 69.306 156.125 69.306C157.665 69.306 158.645 68.564 158.981 67.444H156.013V65.736H160.927ZM83.5821 83.048H79.6621V85.372H83.4701V87.22H79.6621V91H77.7301V81.2H83.5821V83.048ZM85.6899 81.2H87.6219V91H85.6899V81.2ZM93.3316 91.196C91.3296 91.196 90.0136 90.23 89.4816 88.774L91.1336 87.808C91.4836 88.718 92.1696 89.306 93.3876 89.306C94.5496 89.306 94.9556 88.816 94.9556 88.27C94.9556 87.542 94.2976 87.262 92.8416 86.842C91.3436 86.408 89.8876 85.778 89.8876 83.916C89.8876 82.068 91.4276 81.004 93.1076 81.004C94.7176 81.004 95.9496 81.83 96.6076 83.202L94.9836 84.14C94.6336 83.398 94.1016 82.88 93.1076 82.88C92.2956 82.88 91.8196 83.3 91.8196 83.86C91.8196 84.462 92.1976 84.784 93.6816 85.232C95.2356 85.722 96.8876 86.24 96.8876 88.242C96.8876 90.076 95.4176 91.196 93.3316 91.196ZM104.351 81.2H106.269V91H104.351V86.94H100.711V91H98.7793V81.2H100.711V85.092H104.351V81.2Z" fill="#FFFF00"/>
</svg>
