<svg width="184" height="112" viewBox="0 0 184 112" fill="none" xmlns="http://www.w3.org/2000/svg">
<rect width="184" height="112" rx="8" fill="#0A3085"/>
<path d="M105 46.3509C105 42.9031 103.63 39.5965 101.192 37.1585C98.7544 34.7205 95.4478 33.3509 92 33.3509C88.5522 33.3509 85.2456 34.7205 82.8076 37.1585C80.3696 39.5965 79 42.9031 79 46.3509L105 46.3509Z" fill="#FFFF00"/>
<path d="M94.2605 32.2609C94.2605 31.6612 94.0223 31.0862 93.5983 30.6622C93.1743 30.2382 92.5993 30 91.9996 30C91.4 30 90.825 30.2382 90.401 30.6622C89.977 31.0862 89.7388 31.6612 89.7388 32.2609L94.2605 32.2609Z" fill="#FFFF00"/>
<path opacity="0.6" d="M79 49.3384H105V51.295C105 52.3995 104.105 53.295 103 53.295H81C79.8954 53.295 79 52.3995 79 51.295V49.3384Z" fill="#FFFF00"/>
<path d="M78.004 73.048H74.084V75.372H77.892V77.22H74.084V81H72.152V71.2H78.004V73.048ZM84.7458 81.196C81.9178 81.196 79.6638 78.956 79.6638 76.1C79.6638 73.23 81.9178 71.004 84.7458 71.004C87.5738 71.004 89.8418 73.23 89.8418 76.1C89.8418 78.956 87.5738 81.196 84.7458 81.196ZM84.7458 79.306C86.5238 79.306 87.9098 77.976 87.9098 76.1C87.9098 74.21 86.5238 72.88 84.7458 72.88C82.9678 72.88 81.5818 74.21 81.5818 76.1C81.5818 77.976 82.9678 79.306 84.7458 79.306ZM96.5336 81.196C93.7056 81.196 91.4516 78.956 91.4516 76.1C91.4516 73.23 93.7056 71.004 96.5336 71.004C99.3616 71.004 101.63 73.23 101.63 76.1C101.63 78.956 99.3616 81.196 96.5336 81.196ZM96.5336 79.306C98.3116 79.306 99.6976 77.976 99.6976 76.1C99.6976 74.21 98.3116 72.88 96.5336 72.88C94.7556 72.88 93.3696 74.21 93.3696 76.1C93.3696 77.976 94.7556 79.306 96.5336 79.306ZM107.58 71.2C110.282 71.2 112.298 73.342 112.298 76.1C112.298 78.858 110.282 81 107.58 81H103.688V71.2H107.58ZM107.58 79.152C109.274 79.152 110.45 77.906 110.45 76.1C110.45 74.294 109.274 73.048 107.58 73.048H105.62V79.152H107.58Z" fill="#FFFF00"/>
</svg>
