<svg width="184" height="112" viewBox="0 0 184 112" fill="none" xmlns="http://www.w3.org/2000/svg">
<rect width="184" height="112" rx="8" fill="#0A3085"/>
<path opacity="0.6" d="M102.153 33.44H101.62L97.1132 28.9333C96.7532 28.5733 96.1665 28.5733 95.7932 28.9333C95.4332 29.2933 95.4332 29.88 95.7932 30.2533L98.9798 33.44H86.0198L89.2065 30.2533C89.5665 29.8933 89.5665 29.3067 89.2065 28.9333C88.8465 28.5733 88.2598 28.5733 87.8865 28.9333L83.3932 33.44H82.8598C81.6598 33.44 79.1665 33.44 79.1665 36.8533C79.1665 38.1467 79.4332 39 79.9932 39.56C80.3132 39.8933 80.6998 40.0667 81.1132 40.16C81.4998 40.2533 81.9132 40.2667 82.3132 40.2667H102.687C103.1 40.2667 103.487 40.24 103.86 40.16C104.98 39.8933 105.833 39.0933 105.833 36.8533C105.833 33.44 103.34 33.44 102.153 33.44Z" fill="#FFFF00"/>
<path d="M102.7 40.2667H82.3133C81.9266 40.2667 81.4999 40.2533 81.1133 40.1467L82.7933 50.4C83.1666 52.6933 84.1666 55.3333 88.6066 55.3333H96.0866C100.58 55.3333 101.38 53.08 101.86 50.56L103.873 40.1467C103.5 40.24 103.1 40.2667 102.7 40.2667ZM92.4999 50.6667C89.3799 50.6667 86.8333 48.12 86.8333 45C86.8333 44.4533 87.2866 44 87.8333 44C88.3799 44 88.8333 44.4533 88.8333 45C88.8333 47.0267 90.4733 48.6667 92.4999 48.6667C94.5266 48.6667 96.1666 47.0267 96.1666 45C96.1666 44.4533 96.6199 44 97.1666 44C97.7133 44 98.1666 44.4533 98.1666 45C98.1666 48.12 95.6199 50.6667 92.4999 50.6667Z" fill="#FFFF00"/>
<path d="M23.0851 81.196C21.0831 81.196 19.7671 80.23 19.2351 78.774L20.8871 77.808C21.2371 78.718 21.9231 79.306 23.1411 79.306C24.3031 79.306 24.7091 78.816 24.7091 78.27C24.7091 77.542 24.0511 77.262 22.5951 76.842C21.0971 76.408 19.6411 75.778 19.6411 73.916C19.6411 72.068 21.1811 71.004 22.8611 71.004C24.4711 71.004 25.7031 71.83 26.3611 73.202L24.7371 74.14C24.3871 73.398 23.8551 72.88 22.8611 72.88C22.0491 72.88 21.5731 73.3 21.5731 73.86C21.5731 74.462 21.9511 74.784 23.4351 75.232C24.9891 75.722 26.6411 76.24 26.6411 78.242C26.6411 80.076 25.1711 81.196 23.0851 81.196ZM34.1049 71.2H36.0229V81H34.1049V76.94H30.4649V81H28.5329V71.2H30.4649V75.092H34.1049V71.2ZM43.1774 81.196C40.3494 81.196 38.0954 78.956 38.0954 76.1C38.0954 73.23 40.3494 71.004 43.1774 71.004C46.0054 71.004 48.2734 73.23 48.2734 76.1C48.2734 78.956 46.0054 81.196 43.1774 81.196ZM43.1774 79.306C44.9554 79.306 46.3414 77.976 46.3414 76.1C46.3414 74.21 44.9554 72.88 43.1774 72.88C41.3994 72.88 40.0134 74.21 40.0134 76.1C40.0134 77.976 41.3994 79.306 43.1774 79.306ZM53.9853 71.2C55.8753 71.2 57.3313 72.656 57.3313 74.49C57.3313 76.324 55.8753 77.78 53.9853 77.78H52.2633V81H50.3313V71.2H53.9853ZM53.9853 75.974C54.8113 75.974 55.4133 75.33 55.4133 74.49C55.4133 73.636 54.8113 73.006 53.9853 73.006H52.2633V75.974H53.9853ZM62.9431 71.2C64.8331 71.2 66.2891 72.656 66.2891 74.49C66.2891 76.324 64.8331 77.78 62.9431 77.78H61.2211V81H59.2891V71.2H62.9431ZM62.9431 75.974C63.7691 75.974 64.3711 75.33 64.3711 74.49C64.3711 73.636 63.7691 73.006 62.9431 73.006H61.2211V75.974H62.9431ZM68.2469 71.2H70.1789V81H68.2469V71.2ZM78.363 71.2H80.295V81H78.825L74.625 75.008V81H72.693V71.2H74.163L78.363 77.178V71.2ZM92.4309 75.736V76.492C92.4309 79.32 90.4289 81.196 87.6149 81.196C84.5489 81.196 82.3649 78.914 82.3649 76.114C82.3649 73.272 84.5769 71.004 87.5029 71.004C89.3649 71.004 90.9469 71.942 91.7729 73.286L90.1209 74.238C89.6729 73.454 88.6789 72.88 87.4889 72.88C85.6269 72.88 84.2829 74.252 84.2829 76.114C84.2829 77.934 85.5849 79.306 87.6289 79.306C89.1689 79.306 90.1489 78.564 90.4849 77.444H87.5169V75.736H92.4309ZM101.127 81L97.8371 71.2H99.9371L102.331 78.732L104.711 71.2H106.825L103.521 81H101.127ZM112.666 81.196C109.838 81.196 107.584 78.956 107.584 76.1C107.584 73.23 109.838 71.004 112.666 71.004C115.494 71.004 117.762 73.23 117.762 76.1C117.762 78.956 115.494 81.196 112.666 81.196ZM112.666 79.306C114.444 79.306 115.83 77.976 115.83 76.1C115.83 74.21 114.444 72.88 112.666 72.88C110.888 72.88 109.502 74.21 109.502 76.1C109.502 77.976 110.888 79.306 112.666 79.306ZM123.406 81.196C121.264 81.196 119.668 79.908 119.668 77.794V71.2H121.586V77.64C121.586 78.592 122.09 79.306 123.406 79.306C124.722 79.306 125.226 78.592 125.226 77.64V71.2H127.158V77.794C127.158 79.908 125.562 81.196 123.406 81.196ZM134.246 81.196C131.278 81.196 129.15 78.956 129.15 76.1C129.15 73.23 131.278 71.004 134.246 71.004C136.038 71.004 137.62 71.914 138.46 73.314L136.794 74.28C136.318 73.412 135.366 72.88 134.246 72.88C132.328 72.88 131.068 74.21 131.068 76.1C131.068 77.976 132.328 79.306 134.246 79.306C135.366 79.306 136.332 78.774 136.794 77.92L138.46 78.886C137.634 80.286 136.052 81.196 134.246 81.196ZM145.919 71.2H147.837V81H145.919V76.94H142.279V81H140.347V71.2H142.279V75.092H145.919V71.2ZM152.289 79.152H156.419V81H150.357V71.2H156.349V73.048H152.289V75.134H155.999V76.954H152.289V79.152ZM163.857 81L161.883 77.598H160.413V81H158.481V71.2H162.401C164.207 71.2 165.663 72.656 165.663 74.448C165.663 75.68 164.893 76.786 163.773 77.304L165.943 81H163.857ZM160.413 73.006V75.904H162.401C163.129 75.904 163.731 75.26 163.731 74.448C163.731 73.636 163.129 73.006 162.401 73.006H160.413Z" fill="#FFFF00"/>
</svg>
