<svg width="184" height="112" viewBox="0 0 184 112" fill="none" xmlns="http://www.w3.org/2000/svg">
<rect width="184" height="112" rx="8" fill="#0A3085"/>
<path opacity="0.6" d="M79.6664 40.8667C79.1198 40.8667 78.6664 40.4133 78.6664 39.8667V32.2667C78.5998 28.6533 79.9464 25.24 82.4531 22.68C84.9598 20.1333 88.3198 18.7333 91.9331 18.7333C99.3198 18.7333 105.333 24.7467 105.333 32.1333V39.7333C105.333 40.28 104.88 40.7333 104.333 40.7333C103.786 40.7333 103.333 40.28 103.333 39.7333V32.1333C103.333 25.8533 98.2264 20.7333 91.9331 20.7333C88.8531 20.7333 85.9998 21.92 83.8798 24.08C81.7464 26.2533 80.6131 29.1467 80.6664 32.24V39.8533C80.6664 40.4133 80.2264 40.8667 79.6664 40.8667Z" fill="#FFFF00"/>
<path d="M83.9198 32.6H83.7465C80.9465 32.6 78.6665 34.88 78.6665 37.68V40.1866C78.6665 42.9866 80.9465 45.2666 83.7465 45.2666H83.9198C86.7198 45.2666 88.9998 42.9866 88.9998 40.1866V37.68C88.9998 34.88 86.7198 32.6 83.9198 32.6Z" fill="#FFFF00"/>
<path d="M100.253 32.6H100.08C97.28 32.6 95 34.88 95 37.68V40.1866C95 42.9866 97.28 45.2666 100.08 45.2666H100.253C103.053 45.2666 105.333 42.9866 105.333 40.1866V37.68C105.333 34.88 103.053 32.6 100.253 32.6Z" fill="#FFFF00"/>
<path d="M61.1849 71.196C59.1829 71.196 57.8669 70.23 57.3349 68.774L58.9869 67.808C59.3369 68.718 60.0229 69.306 61.2409 69.306C62.4029 69.306 62.8089 68.816 62.8089 68.27C62.8089 67.542 62.1509 67.262 60.6949 66.842C59.1969 66.408 57.7409 65.778 57.7409 63.916C57.7409 62.068 59.2809 61.004 60.9609 61.004C62.5709 61.004 63.8029 61.83 64.4609 63.202L62.8369 64.14C62.4869 63.398 61.9549 62.88 60.9609 62.88C60.1489 62.88 59.6729 63.3 59.6729 63.86C59.6729 64.462 60.0509 64.784 61.5349 65.232C63.0889 65.722 64.7409 66.24 64.7409 68.242C64.7409 70.076 63.2709 71.196 61.1849 71.196ZM70.2867 61.2C72.1767 61.2 73.6327 62.656 73.6327 64.49C73.6327 66.324 72.1767 67.78 70.2867 67.78H68.5647V71H66.6327V61.2H70.2867ZM70.2867 65.974C71.1127 65.974 71.7147 65.33 71.7147 64.49C71.7147 63.636 71.1127 63.006 70.2867 63.006H68.5647V65.974H70.2867ZM77.5225 69.152H81.6525V71H75.5905V61.2H81.5825V63.048H77.5225V65.134H81.2325V66.954H77.5225V69.152ZM90.1647 71L89.5767 69.236H85.6707L85.0827 71H82.9967L86.4267 61.2H88.8207L92.2647 71H90.1647ZM86.2867 67.43H88.9747L87.6307 63.426L86.2867 67.43ZM101.574 71H99.3482L95.8482 66.408V71H93.9162V61.2H95.8482V65.526L99.2082 61.2H101.434L97.8082 65.96L101.574 71ZM105.162 69.152H109.292V71H103.23V61.2H109.222V63.048H105.162V65.134H108.872V66.954H105.162V69.152ZM116.729 71L114.755 67.598H113.285V71H111.353V61.2H115.273C117.079 61.2 118.535 62.656 118.535 64.448C118.535 65.68 117.765 66.786 116.645 67.304L118.815 71H116.729ZM113.285 63.006V65.904H115.273C116.001 65.904 116.603 65.26 116.603 64.448C116.603 63.636 116.001 63.006 115.273 63.006H113.285ZM121.003 72.4H120.205L125.805 59.8H126.603L121.003 72.4ZM54.8236 81.2H56.7416V91H54.8236V86.94H51.1836V91H49.2516V81.2H51.1836V85.092H54.8236V81.2ZM61.1942 89.152H65.3242V91H59.2622V81.2H65.2542V83.048H61.1942V85.134H64.9042V86.954H61.1942V89.152ZM73.8364 91L73.2484 89.236H69.3424L68.7544 91H66.6684L70.0984 81.2H72.4924L75.9364 91H73.8364ZM69.9584 87.43H72.6464L71.3024 83.426L69.9584 87.43ZM81.4799 81.2C84.1819 81.2 86.1979 83.342 86.1979 86.1C86.1979 88.858 84.1819 91 81.4799 91H77.5879V81.2H81.4799ZM81.4799 89.152C83.1739 89.152 84.3499 87.906 84.3499 86.1C84.3499 84.294 83.1739 83.048 81.4799 83.048H79.5199V89.152H81.4799ZM91.9224 81.2C93.8124 81.2 95.2684 82.656 95.2684 84.49C95.2684 86.324 93.8124 87.78 91.9224 87.78H90.2004V91H88.2684V81.2H91.9224ZM91.9224 85.974C92.7484 85.974 93.3504 85.33 93.3504 84.49C93.3504 83.636 92.7484 83.006 91.9224 83.006H90.2004V85.974H91.9224ZM102.798 81.2H104.716V91H102.798V86.94H99.1582V91H97.2262V81.2H99.1582V85.092H102.798V81.2ZM111.871 91.196C109.043 91.196 106.789 88.956 106.789 86.1C106.789 83.23 109.043 81.004 111.871 81.004C114.699 81.004 116.967 83.23 116.967 86.1C116.967 88.956 114.699 91.196 111.871 91.196ZM111.871 89.306C113.649 89.306 115.035 87.976 115.035 86.1C115.035 84.21 113.649 82.88 111.871 82.88C110.093 82.88 108.707 84.21 108.707 86.1C108.707 87.976 110.093 89.306 111.871 89.306ZM124.695 81.2H126.627V91H125.157L120.957 85.008V91H119.025V81.2H120.495L124.695 87.178V81.2ZM131.077 89.152H135.207V91H129.145V81.2H135.137V83.048H131.077V85.134H134.787V86.954H131.077V89.152Z" fill="#FFFF00"/>
</svg>
