<svg width="184" height="112" viewBox="0 0 184 112" fill="none" xmlns="http://www.w3.org/2000/svg">
<rect width="184" height="112" rx="8" fill="#0A3085"/>
<path opacity="0.6" d="M105.833 21H79.1665C78.6198 21 78.1665 20.5467 78.1665 20C78.1665 19.4533 78.6198 19 79.1665 19H105.833C106.38 19 106.833 19.4533 106.833 20C106.833 20.5467 106.38 21 105.833 21Z" fill="#FFFF00"/>
<path opacity="0.6" d="M91.1665 29H79.1665C78.6198 29 78.1665 28.5467 78.1665 28C78.1665 27.4533 78.6198 27 79.1665 27H91.1665C91.7132 27 92.1665 27.4533 92.1665 28C92.1665 28.5467 91.7132 29 91.1665 29Z" fill="#FFFF00"/>
<path opacity="0.6" d="M87.1665 37H79.1665C78.6198 37 78.1665 36.5467 78.1665 36C78.1665 35.4533 78.6198 35 79.1665 35H87.1665C87.7132 35 88.1665 35.4533 88.1665 36C88.1665 36.5467 87.7132 37 87.1665 37Z" fill="#FFFF00"/>
<path opacity="0.6" d="M84.4998 45H79.1665C78.6198 45 78.1665 44.5467 78.1665 44C78.1665 43.4533 78.6198 43 79.1665 43H84.4998C85.0465 43 85.4998 43.4533 85.4998 44C85.4998 44.5467 85.0465 45 84.4998 45Z" fill="#FFFF00"/>
<path d="M105.647 26.24C104.86 25.64 103.78 25.5201 102.513 25.8667L96.7132 27.4401C95.1532 27.8667 94.1932 29.1334 94.1932 30.7334V34.1333V39.0401C93.6332 38.7201 92.9799 38.5201 92.2866 38.5201C90.1399 38.5201 88.3799 40.2667 88.3799 42.4267C88.3799 44.5734 90.1265 46.3334 92.2866 46.3334C94.4465 46.3334 96.1932 44.5867 96.1932 42.4267V34.8933L104.833 32.5334V37.1067C104.273 36.7867 103.62 36.5867 102.927 36.5867C100.78 36.5867 99.0199 38.3334 99.0199 40.4934C99.0199 42.64 100.767 44.4 102.927 44.4C105.087 44.4 106.833 42.6534 106.833 40.4934V31.2267V29.16C106.833 27.8134 106.433 26.8267 105.647 26.24ZM92.2866 44.3334C91.2332 44.3334 90.3799 43.48 90.3799 42.4267C90.3799 41.3734 91.2332 40.5201 92.2866 40.5201C93.3399 40.5201 94.1932 41.3734 94.1932 42.4267C94.1932 43.48 93.3399 44.3334 92.2866 44.3334ZM102.927 42.4C101.873 42.4 101.02 41.5467 101.02 40.4934C101.02 39.44 101.873 38.5867 102.927 38.5867C103.98 38.5867 104.833 39.44 104.833 40.4934C104.833 41.5467 103.98 42.4 102.927 42.4Z" fill="#FFFF00"/>
<path d="M36.4863 61.2V71H34.5683V64.644L31.8103 69.194H31.5863L28.8283 64.658V71H26.8963V61.2H28.8843L31.6983 65.834L34.4983 61.2H36.4863ZM42.6663 71.196C40.5243 71.196 38.9283 69.908 38.9283 67.794V61.2H40.8463V67.64C40.8463 68.592 41.3503 69.306 42.6663 69.306C43.9823 69.306 44.4863 68.592 44.4863 67.64V61.2H46.4183V67.794C46.4183 69.908 44.8223 71.196 42.6663 71.196ZM52.2048 71.196C50.2028 71.196 48.8868 70.23 48.3548 68.774L50.0068 67.808C50.3568 68.718 51.0428 69.306 52.2608 69.306C53.4228 69.306 53.8288 68.816 53.8288 68.27C53.8288 67.542 53.1708 67.262 51.7148 66.842C50.2168 66.408 48.7608 65.778 48.7608 63.916C48.7608 62.068 50.3008 61.004 51.9808 61.004C53.5908 61.004 54.8228 61.83 55.4808 63.202L53.8568 64.14C53.5068 63.398 52.9748 62.88 51.9808 62.88C51.1688 62.88 50.6928 63.3 50.6928 63.86C50.6928 64.462 51.0708 64.784 52.5548 65.232C54.1088 65.722 55.7608 66.24 55.7608 68.242C55.7608 70.076 54.2908 71.196 52.2048 71.196ZM57.6526 61.2H59.5846V71H57.6526V61.2ZM66.7467 71.196C63.7787 71.196 61.6507 68.956 61.6507 66.1C61.6507 63.23 63.7787 61.004 66.7467 61.004C68.5387 61.004 70.1207 61.914 70.9607 63.314L69.2947 64.28C68.8187 63.412 67.8667 62.88 66.7467 62.88C64.8287 62.88 63.5687 64.21 63.5687 66.1C63.5687 67.976 64.8287 69.306 66.7467 69.306C67.8667 69.306 68.8327 68.774 69.2947 67.92L70.9607 68.886C70.1347 70.286 68.5527 71.196 66.7467 71.196ZM80.5029 71.196C78.5009 71.196 77.1849 70.23 76.6529 68.774L78.3049 67.808C78.6549 68.718 79.3409 69.306 80.5589 69.306C81.7209 69.306 82.1269 68.816 82.1269 68.27C82.1269 67.542 81.4689 67.262 80.0129 66.842C78.5149 66.408 77.0589 65.778 77.0589 63.916C77.0589 62.068 78.5989 61.004 80.2789 61.004C81.8889 61.004 83.1209 61.83 83.7789 63.202L82.1549 64.14C81.8049 63.398 81.2729 62.88 80.2789 62.88C79.4669 62.88 78.9909 63.3 78.9909 63.86C78.9909 64.462 79.3689 64.784 80.8529 65.232C82.4069 65.722 84.0589 66.24 84.0589 68.242C84.0589 70.076 82.5889 71.196 80.5029 71.196ZM92.1455 61.2V63.048H89.4995V71H87.5675V63.048H84.9355V61.2H92.1455ZM99.3001 71L97.3261 67.598H95.8561V71H93.9241V61.2H97.8441C99.6501 61.2 101.106 62.656 101.106 64.448C101.106 65.68 100.336 66.786 99.2161 67.304L101.386 71H99.3001ZM95.8561 63.006V65.904H97.8441C98.5721 65.904 99.1741 65.26 99.1741 64.448C99.1741 63.636 98.5721 63.006 97.8441 63.006H95.8561ZM105.156 69.152H109.286V71H103.224V61.2H109.216V63.048H105.156V65.134H108.866V66.954H105.156V69.152ZM117.798 71L117.21 69.236H113.304L112.716 71H110.63L114.06 61.2H116.454L119.898 71H117.798ZM113.92 67.43H116.608L115.264 63.426L113.92 67.43ZM131.139 61.2V71H129.221V64.644L126.463 69.194H126.239L123.481 64.658V71H121.549V61.2H123.537L126.351 65.834L129.151 61.2H131.139ZM133.665 61.2H135.597V71H133.665V61.2ZM143.782 61.2H145.714V71H144.244L140.044 65.008V71H138.112V61.2H139.582L143.782 67.178V61.2ZM157.849 65.736V66.492C157.849 69.32 155.847 71.196 153.033 71.196C149.967 71.196 147.783 68.914 147.783 66.114C147.783 63.272 149.995 61.004 152.921 61.004C154.783 61.004 156.365 61.942 157.191 63.286L155.539 64.238C155.091 63.454 154.097 62.88 152.907 62.88C151.045 62.88 149.701 64.252 149.701 66.114C149.701 67.934 151.003 69.306 153.047 69.306C154.587 69.306 155.567 68.564 155.903 67.444H152.935V65.736H157.849ZM61.6441 91L58.3541 81.2H60.4541L62.8481 88.732L65.2281 81.2H67.3421L64.0381 91H61.6441ZM73.1831 91.196C70.3551 91.196 68.1011 88.956 68.1011 86.1C68.1011 83.23 70.3551 81.004 73.1831 81.004C76.0111 81.004 78.2791 83.23 78.2791 86.1C78.2791 88.956 76.0111 91.196 73.1831 91.196ZM73.1831 89.306C74.9611 89.306 76.3471 87.976 76.3471 86.1C76.3471 84.21 74.9611 82.88 73.1831 82.88C71.4051 82.88 70.0191 84.21 70.0191 86.1C70.0191 87.976 71.4051 89.306 73.1831 89.306ZM83.9226 91.196C81.7806 91.196 80.1846 89.908 80.1846 87.794V81.2H82.1026V87.64C82.1026 88.592 82.6066 89.306 83.9226 89.306C85.2386 89.306 85.7426 88.592 85.7426 87.64V81.2H87.6746V87.794C87.6746 89.908 86.0786 91.196 83.9226 91.196ZM94.7631 91.196C91.7951 91.196 89.6671 88.956 89.6671 86.1C89.6671 83.23 91.7951 81.004 94.7631 81.004C96.5551 81.004 98.1371 81.914 98.9771 83.314L97.3111 84.28C96.8351 83.412 95.8831 82.88 94.7631 82.88C92.8451 82.88 91.5851 84.21 91.5851 86.1C91.5851 87.976 92.8451 89.306 94.7631 89.306C95.8831 89.306 96.8491 88.774 97.3111 87.92L98.9771 88.886C98.1511 90.286 96.5691 91.196 94.7631 91.196ZM106.436 81.2H108.354V91H106.436V86.94H102.796V91H100.864V81.2H102.796V85.092H106.436V81.2ZM112.806 89.152H116.936V91H110.874V81.2H116.866V83.048H112.806V85.134H116.516V86.954H112.806V89.152ZM124.374 91L122.4 87.598H120.93V91H118.998V81.2H122.918C124.724 81.2 126.18 82.656 126.18 84.448C126.18 85.68 125.41 86.786 124.29 87.304L126.46 91H124.374ZM120.93 83.006V85.904H122.918C123.646 85.904 124.248 85.26 124.248 84.448C124.248 83.636 123.646 83.006 122.918 83.006H120.93Z" fill="#FFFF00"/>
</svg>
