<svg width="256" height="128" viewBox="0 0 256 128" fill="none" xmlns="http://www.w3.org/2000/svg">
<mask id="path-1-inside-1_569_3770" fill="white">
<path fill-rule="evenodd" clip-rule="evenodd" d="M31.1239 0.151611C29.7336 0.151611 28.671 1.40578 26.5459 3.91411L22.0653 9.20278C21.0863 10.3584 20.2398 11.3575 19.5419 12.2347C11.1337 12.2947 6.53386 12.7204 3.51472 15.7396C0 19.2543 0 24.9111 0 36.2248V104C0 115.314 0 120.971 3.51472 124.485C7.02944 128 12.6863 128 24 128H232C243.314 128 248.971 128 252.485 124.485C256 120.971 256 115.314 256 104V36.2248C256 24.9111 256 19.2543 252.485 15.7396C248.971 12.2248 243.314 12.2248 232 12.2248H42.698C42.0016 11.35 41.1578 10.354 40.1824 9.20278L35.7018 3.91411C33.5767 1.40578 32.5141 0.151611 31.1239 0.151611Z"/>
</mask>
<path fill-rule="evenodd" clip-rule="evenodd" d="M31.1239 0.151611C29.7336 0.151611 28.671 1.40578 26.5459 3.91411L22.0653 9.20278C21.0863 10.3584 20.2398 11.3575 19.5419 12.2347C11.1337 12.2947 6.53386 12.7204 3.51472 15.7396C0 19.2543 0 24.9111 0 36.2248V104C0 115.314 0 120.971 3.51472 124.485C7.02944 128 12.6863 128 24 128H232C243.314 128 248.971 128 252.485 124.485C256 120.971 256 115.314 256 104V36.2248C256 24.9111 256 19.2543 252.485 15.7396C248.971 12.2248 243.314 12.2248 232 12.2248H42.698C42.0016 11.35 41.1578 10.354 40.1824 9.20278L35.7018 3.91411C33.5767 1.40578 32.5141 0.151611 31.1239 0.151611Z" fill="#0A3085" fill-opacity="0.6"/>
<path d="M26.5459 3.91411L27.3089 4.56052L26.5459 3.91411ZM22.0653 9.20278L21.3023 8.55637V8.55637L22.0653 9.20278ZM19.5419 12.2347L19.549 13.2347L20.0269 13.2313L20.3244 12.8573L19.5419 12.2347ZM3.51472 15.7396L4.22183 16.4467H4.22183L3.51472 15.7396ZM252.485 124.485L251.778 123.778L252.485 124.485ZM252.485 15.7396L251.778 16.4467L252.485 15.7396ZM42.698 12.2248L41.9157 12.8477L42.2159 13.2248H42.698V12.2248ZM40.1824 9.20278L40.9454 8.55637V8.55637L40.1824 9.20278ZM35.7018 3.91411L34.9388 4.56053V4.56053L35.7018 3.91411ZM27.3089 4.56052C28.3912 3.28304 29.1354 2.40832 29.775 1.83945C30.3938 1.28916 30.778 1.15161 31.1239 1.15161V-0.848389C30.0795 -0.848389 29.2373 -0.358858 28.4459 0.345019C27.6754 1.03032 26.8258 2.03684 25.783 3.2677L27.3089 4.56052ZM22.8283 9.8492L27.3089 4.56052L25.783 3.2677L21.3023 8.55637L22.8283 9.8492ZM20.3244 12.8573C21.0107 11.9947 21.8461 11.0085 22.8283 9.8492L21.3023 8.55637C20.3264 9.70823 19.4689 10.7203 18.7593 11.6121L20.3244 12.8573ZM4.22183 16.4467C5.54739 15.1211 7.24501 14.3266 9.69458 13.8598C12.1724 13.3876 15.3395 13.2647 19.549 13.2347L19.5347 11.2347C15.336 11.2647 11.9991 11.3846 9.3202 11.8951C6.61304 12.411 4.50119 13.3389 2.80761 15.0325L4.22183 16.4467ZM1 36.2248C1 30.5397 1.00212 26.3765 1.43042 23.1908C1.85485 20.0339 2.68124 17.9873 4.22183 16.4467L2.80761 15.0325C0.833483 17.0066 -0.0974946 19.5457 -0.551743 22.9243C-1.00212 26.2742 -1 30.5963 -1 36.2248H1ZM1 104V36.2248H-1V104H1ZM4.22183 123.778C2.68124 122.238 1.85485 120.191 1.43042 117.034C1.00212 113.848 1 109.685 1 104H-1C-1 109.629 -1.00212 113.951 -0.551743 117.301C-0.0974946 120.679 0.833484 123.218 2.80761 125.192L4.22183 123.778ZM24 127C18.3149 127 14.1516 126.998 10.966 126.57C7.80911 126.145 5.76242 125.319 4.22183 123.778L2.80761 125.192C4.78174 127.167 7.32084 128.097 10.6995 128.552C14.0494 129.002 18.3714 129 24 129V127ZM232 127H24V129H232V127ZM251.778 123.778C250.238 125.319 248.191 126.145 245.034 126.57C241.848 126.998 237.685 127 232 127V129C237.629 129 241.951 129.002 245.301 128.552C248.679 128.097 251.218 127.167 253.192 125.192L251.778 123.778ZM255 104C255 109.685 254.998 113.848 254.57 117.034C254.145 120.191 253.319 122.238 251.778 123.778L253.192 125.192C255.167 123.218 256.098 120.679 256.552 117.301C257.002 113.951 257 109.629 257 104H255ZM255 36.2248V104H257V36.2248H255ZM251.778 16.4467C253.319 17.9873 254.145 20.0339 254.57 23.1908C254.998 26.3765 255 30.5397 255 36.2248H257C257 30.5963 257.002 26.2742 256.552 22.9243C256.098 19.5457 255.167 17.0066 253.192 15.0325L251.778 16.4467ZM232 13.2248C237.685 13.2248 241.848 13.227 245.034 13.6553C248.191 14.0797 250.238 14.9061 251.778 16.4467L253.192 15.0325C251.218 13.0583 248.679 12.1273 245.301 11.6731C241.951 11.2227 237.629 11.2248 232 11.2248V13.2248ZM42.698 13.2248H232V11.2248H42.698V13.2248ZM39.4194 9.8492C40.3979 11.0041 41.2308 11.9873 41.9157 12.8477L43.4804 11.602C42.7724 10.7127 41.9177 9.70395 40.9454 8.55637L39.4194 9.8492ZM34.9388 4.56053L39.4194 9.8492L40.9454 8.55637L36.4648 3.2677L34.9388 4.56053ZM31.1239 1.15161C31.4697 1.15161 31.854 1.28916 32.4727 1.83945C33.1123 2.40832 33.8565 3.28304 34.9388 4.56053L36.4648 3.2677C35.422 2.03685 34.5724 1.03032 33.8018 0.345019C33.0104 -0.358858 32.1683 -0.848389 31.1239 -0.848389V1.15161Z" fill="#FFFF00" mask="url(#path-1-inside-1_569_3770)"/>
<path d="M30.8442 30.3271L30.5592 31.9771H27.6042L26.0442 40.8271H24.3192L25.8792 31.9771H22.9092L23.1942 30.3271H30.8442ZM35.3898 33.1321C37.0698 33.1321 38.1348 34.2871 37.8048 36.2221L36.9948 40.8271H35.3748L36.1548 36.3871C36.3498 35.2321 35.8248 34.6471 34.7748 34.6471C33.7548 34.6471 32.8098 35.2171 32.5248 36.6571L31.7898 40.8271H30.1698L32.0148 30.3271H33.6348L32.9448 34.2271C33.5898 33.4771 34.4748 33.1321 35.3898 33.1321ZM45.9848 33.3271H47.6048L46.2848 40.8271H44.6648L44.8148 39.9421C44.1548 40.6171 43.2398 41.0221 42.0698 41.0221C39.8198 41.0221 38.5898 39.0271 38.9798 36.9121C39.3848 34.6771 41.1398 33.1321 43.2398 33.1321C44.3948 33.1321 45.2798 33.6421 45.7748 34.5421L45.9848 33.3271ZM42.5498 39.4771C43.8248 39.4771 44.9498 38.6221 45.2798 37.3471L45.3548 36.9121C45.5048 35.4721 44.5448 34.6771 43.3298 34.6771C42.0998 34.6771 40.8698 35.5021 40.5998 37.0321C40.3598 38.4271 41.1848 39.4771 42.5498 39.4771ZM53.3927 33.1321C55.0727 33.1321 56.1377 34.2871 55.8077 36.2221L54.9977 40.8271H53.3777L54.1577 36.3871C54.3527 35.2321 53.8277 34.6471 52.7777 34.6471C51.7727 34.6471 50.8277 35.2171 50.5277 36.6121L49.7927 40.8271H48.1727L49.4927 33.3271H51.1127L50.9477 34.2271C51.5927 33.4771 52.4777 33.1321 53.3927 33.1321ZM64.4677 33.3271L60.5527 37.0021L63.2677 40.8271H61.4677L58.9627 37.2271L58.3327 40.8271H56.7127L58.5577 30.3271H60.1777L59.0827 36.5221L62.4877 33.3271H64.4677ZM66.6369 41.0221C65.0769 41.0221 64.1169 40.3171 63.6969 39.2071L65.1519 38.4571C65.3319 39.0871 65.8869 39.5371 66.7719 39.5371C67.5219 39.5371 68.0319 39.2671 68.1219 38.7421C68.3619 37.3621 64.1169 38.1121 64.6269 35.2621C64.8669 33.9121 66.1869 33.1321 67.5819 33.1321C68.8719 33.1321 69.8319 33.7171 70.2819 34.6921L68.8269 35.4271C68.6469 34.8721 68.1219 34.5871 67.4919 34.5871C66.9519 34.5871 66.3519 34.8271 66.2469 35.3971C65.9769 36.8521 70.2519 35.9671 69.7419 38.8921C69.4869 40.3171 68.2269 41.0221 66.6369 41.0221ZM76.5471 33.1771C76.9071 31.0771 78.2421 29.9821 80.4771 30.1321L80.2071 31.6921C79.1121 31.5871 78.3621 32.0221 78.1671 33.1771L78.1371 33.3271H79.9071L79.6371 34.8871H77.8671L76.8171 40.8271H75.1971L76.2471 34.8871H75.1071L75.3771 33.3271H76.5171L76.5471 33.1771ZM82.8438 41.0221C80.4738 41.0221 79.0188 39.1771 79.4538 36.8821C79.8738 34.6321 81.8088 33.1321 84.0288 33.1321C86.2488 33.1321 87.7038 34.9621 87.3138 37.2271C86.9088 39.5071 84.9438 41.0221 82.8438 41.0221ZM82.9638 39.4471C84.1938 39.4471 85.4388 38.5921 85.7088 37.0471C85.9788 35.5621 85.0188 34.7071 83.8038 34.7071C82.5738 34.7071 81.3438 35.5621 81.0738 37.0771C80.8188 38.5921 81.7338 39.4471 82.9638 39.4471ZM90.8933 34.4521C91.5383 33.5071 92.4683 33.1621 93.4283 33.1921L93.1133 34.9471C92.1233 34.8721 90.8333 35.3071 90.4733 36.8521L89.7683 40.8271H88.1483L89.4683 33.3271H91.0883L90.8933 34.4521ZM103.34 33.3271H105.14L100.895 41.0671C99.7699 43.1521 98.3899 43.9321 96.7549 43.8271L97.0249 42.3121C98.0449 42.3721 98.6299 41.8921 99.1999 40.8721L99.3349 40.6621L97.4899 33.3271H99.1549L100.445 38.8321L103.34 33.3271ZM108.215 41.0221C105.845 41.0221 104.39 39.1771 104.825 36.8821C105.245 34.6321 107.18 33.1321 109.4 33.1321C111.62 33.1321 113.075 34.9621 112.685 37.2271C112.28 39.5071 110.315 41.0221 108.215 41.0221ZM108.335 39.4471C109.565 39.4471 110.81 38.5921 111.08 37.0471C111.35 35.5621 110.39 34.7071 109.175 34.7071C107.945 34.7071 106.715 35.5621 106.445 37.0771C106.19 38.5921 107.105 39.4471 108.335 39.4471ZM119.864 33.3271H121.484L120.164 40.8271H118.544L118.709 39.9271C118.064 40.6771 117.179 41.0221 116.264 41.0221C114.584 41.0221 113.519 39.8671 113.849 37.9321L114.659 33.3271H116.279L115.499 37.7671C115.304 38.9221 115.829 39.5071 116.879 39.5071C117.884 39.5071 118.829 38.9371 119.129 37.5421L119.864 33.3271ZM124.804 34.4521C125.449 33.5071 126.379 33.1621 127.339 33.1921L127.024 34.9471C126.034 34.8721 124.744 35.3071 124.384 36.8521L123.679 40.8271H122.059L123.379 33.3271H124.999L124.804 34.4521ZM140.881 33.3271H142.651L138.976 40.8271H137.386L136.711 35.7721L134.326 40.8271H132.661L131.626 33.3271H133.246L133.846 38.5021L136.276 33.3271H137.866L137.851 33.3571L138.541 38.5021L140.881 33.3271ZM144.907 32.2021C144.322 32.2021 143.962 31.7221 144.052 31.1671C144.142 30.6121 144.667 30.1321 145.252 30.1321C145.837 30.1321 146.227 30.5971 146.122 31.1671C146.032 31.7221 145.522 32.2021 144.907 32.2021ZM142.582 40.8271L143.902 33.3271H145.522L144.202 40.8271H142.582ZM148.844 41.0221C147.284 41.0221 146.324 40.3171 145.904 39.2071L147.359 38.4571C147.539 39.0871 148.094 39.5371 148.979 39.5371C149.729 39.5371 150.239 39.2671 150.329 38.7421C150.569 37.3621 146.324 38.1121 146.834 35.2621C147.074 33.9121 148.394 33.1321 149.789 33.1321C151.079 33.1321 152.039 33.7171 152.489 34.6921L151.034 35.4271C150.854 34.8721 150.329 34.5871 149.699 34.5871C149.159 34.5871 148.559 34.8271 148.454 35.3971C148.184 36.8521 152.459 35.9671 151.949 38.8921C151.694 40.3171 150.434 41.0221 148.844 41.0221ZM158.334 33.1321C160.014 33.1321 161.079 34.2871 160.749 36.2221L159.939 40.8271H158.319L159.099 36.3871C159.294 35.2321 158.769 34.6471 157.719 34.6471C156.699 34.6471 155.754 35.2171 155.469 36.6571L154.734 40.8271H153.114L154.959 30.3271H156.579L155.889 34.2271C156.534 33.4771 157.419 33.1321 158.334 33.1321ZM164.219 39.0271L162.479 42.9271H161.114L162.419 39.0271H164.219ZM171.324 30.3271H173.049L171.204 40.8271H169.479L171.324 30.3271ZM177.307 30.3271L175.567 34.2271H174.202L175.507 30.3271H177.307ZM177.196 40.8271L178.006 36.1921L179.116 29.8771H180.736L179.611 36.2371L178.816 40.8271H177.196ZM180.712 40.8271L181.522 36.1921L182.632 29.8771H184.252L183.127 36.2371L182.332 40.8271H180.712ZM187.978 40.8271L188.788 36.1921L189.898 29.8771H191.518L190.393 36.2371L189.598 40.8271H187.978ZM196.218 33.1321C198.468 33.1321 199.878 34.9021 199.458 37.0921C199.428 37.2121 199.353 37.5421 199.278 37.7671H193.308C193.338 38.9671 194.193 39.5371 195.333 39.5371C196.218 39.5371 196.953 39.1921 197.448 38.5921L198.633 39.4921C197.823 40.4971 196.578 41.0221 195.198 41.0221C192.738 41.0221 191.373 39.1921 191.748 36.9271C192.123 34.7371 193.998 33.1321 196.218 33.1321ZM193.533 36.4321H197.928C197.943 35.1421 197.148 34.6021 196.113 34.6021C194.928 34.6021 193.968 35.2921 193.533 36.4321ZM203.364 34.8871L202.734 38.4871C202.569 39.4621 203.244 39.4471 204.444 39.3721L204.189 40.8271C201.849 41.1271 200.769 40.4371 201.114 38.4871L201.744 34.8871H200.364L200.649 33.3271H202.029L202.314 31.7071L204.009 31.2271L203.634 33.3271H205.509L205.224 34.8871H203.364ZM215.781 33.3271H217.581L213.336 41.0671C212.211 43.1521 210.831 43.9321 209.196 43.8271L209.466 42.3121C210.486 42.3721 211.071 41.8921 211.641 40.8721L211.776 40.6621L209.931 33.3271H211.596L212.886 38.8321L215.781 33.3271ZM220.656 41.0221C218.286 41.0221 216.831 39.1771 217.266 36.8821C217.686 34.6321 219.621 33.1321 221.841 33.1321C224.061 33.1321 225.516 34.9621 225.126 37.2271C224.721 39.5071 222.756 41.0221 220.656 41.0221ZM220.776 39.4471C222.006 39.4471 223.251 38.5921 223.521 37.0471C223.791 35.5621 222.831 34.7071 221.616 34.7071C220.386 34.7071 219.156 35.5621 218.886 37.0771C218.631 38.5921 219.546 39.4471 220.776 39.4471ZM232.306 33.3271H233.926L232.606 40.8271H230.986L231.151 39.9271C230.506 40.6771 229.621 41.0221 228.706 41.0221C227.026 41.0221 225.961 39.8671 226.291 37.9321L227.101 33.3271H228.721L227.941 37.7671C227.746 38.9221 228.271 39.5071 229.321 39.5071C230.326 39.5071 231.271 38.9371 231.571 37.5421L232.306 33.3271ZM31.4941 57.3271L27.5791 61.0021L30.2941 64.8271H28.4941L25.9891 61.2271L25.3591 64.8271H23.7391L25.5841 54.3271H27.2041L26.1091 60.5221L29.5141 57.3271H31.4941ZM36.6056 57.1321C38.2856 57.1321 39.3506 58.2871 39.0206 60.2221L38.2106 64.8271H36.5906L37.3706 60.3871C37.5656 59.2321 37.0406 58.6471 35.9906 58.6471C34.9856 58.6471 34.0406 59.2171 33.7406 60.6121L33.0056 64.8271H31.3856L32.7056 57.3271H34.3256L34.1606 58.2271C34.8056 57.4771 35.6906 57.1321 36.6056 57.1321ZM43.6006 65.0221C41.2306 65.0221 39.7756 63.1771 40.2106 60.8821C40.6306 58.6321 42.5656 57.1321 44.7856 57.1321C47.0056 57.1321 48.4606 58.9621 48.0706 61.2271C47.6656 63.5071 45.7006 65.0221 43.6006 65.0221ZM43.7206 63.4471C44.9506 63.4471 46.1956 62.5921 46.4656 61.0471C46.7356 59.5621 45.7756 58.7071 44.5606 58.7071C43.3306 58.7071 42.1006 59.5621 41.8306 61.0771C41.5756 62.5921 42.4906 63.4471 43.7206 63.4471ZM58.4103 57.3271H60.1803L56.5053 64.8271H54.9153L54.2403 59.7721L51.8553 64.8271H50.1903L49.1553 57.3271H50.7753L51.3753 62.5021L53.8053 57.3271H55.3953L55.3803 57.3571L56.0703 62.5021L58.4103 57.3271ZM66.1862 56.2021C65.6012 56.2021 65.2412 55.7221 65.3312 55.1671C65.4212 54.6121 65.9462 54.1321 66.5312 54.1321C67.1162 54.1321 67.5062 54.5971 67.4012 55.1671C67.3112 55.7221 66.8012 56.2021 66.1862 56.2021ZM63.8612 64.8271L65.1812 57.3271H66.8012L65.4812 64.8271H63.8612ZM69.2521 57.1771C69.6121 55.0771 70.9471 53.9821 73.1821 54.1321L72.9121 55.6921C71.8171 55.5871 71.0671 56.0221 70.8721 57.1771L70.8421 57.3271H72.6121L72.3421 58.8871H70.5721L69.5221 64.8271H67.9021L68.9521 58.8871H67.8121L68.0821 57.3271H69.2221L69.2521 57.1771ZM78.3297 56.2021C77.7447 56.2021 77.3847 55.7221 77.4747 55.1671C77.5647 54.6121 78.0897 54.1321 78.6747 54.1321C79.2597 54.1321 79.6497 54.5971 79.5447 55.1671C79.4547 55.7221 78.9447 56.2021 78.3297 56.2021ZM76.0047 64.8271L77.3247 57.3271H78.9447L77.6247 64.8271H76.0047ZM82.8807 58.8871L82.2507 62.4871C82.0857 63.4621 82.7607 63.4471 83.9607 63.3721L83.7057 64.8271C81.3657 65.1271 80.2857 64.4371 80.6307 62.4871L81.2607 58.8871H79.8807L80.1657 57.3271H81.5457L81.8307 55.7071L83.5257 55.2271L83.1507 57.3271H85.0257L84.7407 58.8871H82.8807ZM91.3229 56.2021C90.7379 56.2021 90.3779 55.7221 90.4679 55.1671C90.5579 54.6121 91.0829 54.1321 91.6679 54.1321C92.2529 54.1321 92.6429 54.5971 92.5379 55.1671C92.4479 55.7221 91.9379 56.2021 91.3229 56.2021ZM88.9979 64.8271L90.3179 57.3271H91.9379L90.6179 64.8271H88.9979ZM95.2599 65.0221C93.6999 65.0221 92.7399 64.3171 92.3199 63.2071L93.7749 62.4571C93.9549 63.0871 94.5099 63.5371 95.3949 63.5371C96.1449 63.5371 96.6549 63.2671 96.7449 62.7421C96.9849 61.3621 92.7399 62.1121 93.2499 59.2621C93.4899 57.9121 94.8099 57.1321 96.2049 57.1321C97.4949 57.1321 98.4549 57.7171 98.9049 58.6921L97.4499 59.4271C97.2699 58.8721 96.7449 58.5871 96.1149 58.5871C95.5749 58.5871 94.9749 58.8271 94.8699 59.3971C94.5999 60.8521 98.8749 59.9671 98.3649 62.8921C98.1099 64.3171 96.8499 65.0221 95.2599 65.0221ZM110.6 57.3271H112.19L110.93 64.4821C110.495 66.9721 108.71 68.0221 106.61 68.0221C104.99 68.0221 103.745 67.3921 103.205 66.2071L104.66 65.4571C104.93 66.0721 105.53 66.5521 106.715 66.5521C108.17 66.5521 109.1 65.8171 109.34 64.4821L109.475 63.7021C108.815 64.4221 107.9 64.8721 106.76 64.8721C104.405 64.8721 103.22 62.9671 103.565 60.8371C103.91 58.7221 105.665 57.1321 107.765 57.1321C108.95 57.1321 109.895 57.6571 110.375 58.5871L110.6 57.3271ZM107.18 63.3421C108.515 63.3421 109.685 62.4271 109.94 61.0471C110.225 59.5321 109.19 58.6621 107.93 58.6621C106.67 58.6621 105.41 59.5321 105.185 60.9571C104.96 62.3371 105.785 63.3421 107.18 63.3421ZM115.503 58.4521C116.148 57.5071 117.078 57.1621 118.038 57.1921L117.723 58.9471C116.733 58.8721 115.443 59.3071 115.083 60.8521L114.378 64.8271H112.758L114.078 57.3271H115.698L115.503 58.4521ZM124.911 57.3271H126.531L125.211 64.8271H123.591L123.741 63.9421C123.081 64.6171 122.166 65.0221 120.996 65.0221C118.746 65.0221 117.516 63.0271 117.906 60.9121C118.311 58.6771 120.066 57.1321 122.166 57.1321C123.321 57.1321 124.206 57.6421 124.701 58.5421L124.911 57.3271ZM121.476 63.4771C122.751 63.4771 123.876 62.6221 124.206 61.3471L124.281 60.9121C124.431 59.4721 123.471 58.6771 122.256 58.6771C121.026 58.6771 119.796 59.5021 119.526 61.0321C119.286 62.4271 120.111 63.4771 121.476 63.4771ZM132.318 57.1321C133.998 57.1321 135.063 58.2871 134.733 60.2221L133.923 64.8271H132.303L133.083 60.3871C133.278 59.2321 132.753 58.6471 131.703 58.6471C130.698 58.6471 129.753 59.2171 129.453 60.6121L128.718 64.8271H127.098L128.418 57.3271H130.038L129.873 58.2271C130.518 57.4771 131.403 57.1321 132.318 57.1321ZM139.014 58.8871L138.384 62.4871C138.219 63.4621 138.894 63.4471 140.094 63.3721L139.839 64.8271C137.499 65.1271 136.419 64.4371 136.764 62.4871L137.394 58.8871H136.014L136.299 57.3271H137.679L137.964 55.7071L139.659 55.2271L139.284 57.3271H141.159L140.874 58.8871H139.014ZM145.74 57.1321C147.99 57.1321 149.4 58.9021 148.98 61.0921C148.95 61.2121 148.875 61.5421 148.8 61.7671H142.83C142.86 62.9671 143.715 63.5371 144.855 63.5371C145.74 63.5371 146.475 63.1921 146.97 62.5921L148.155 63.4921C147.345 64.4971 146.1 65.0221 144.72 65.0221C142.26 65.0221 140.895 63.1921 141.27 60.9271C141.645 58.7371 143.52 57.1321 145.74 57.1321ZM143.055 60.4321H147.45C147.465 59.1421 146.67 58.6021 145.635 58.6021C144.45 58.6021 143.49 59.2921 143.055 60.4321ZM157.516 54.3271H159.136L157.291 64.8271H155.671L155.836 63.9271C155.161 64.6171 154.231 65.0221 153.061 65.0221C150.811 65.0221 149.581 63.0271 149.971 60.9121C150.376 58.6771 152.131 57.1321 154.231 57.1321C155.386 57.1321 156.286 57.6571 156.766 58.5571L157.516 54.3271ZM153.556 63.4771C154.831 63.4771 155.956 62.6071 156.286 61.3321L156.361 60.8971C156.511 59.4571 155.551 58.6771 154.336 58.6771C153.106 58.6771 151.861 59.5021 151.591 61.0321C151.351 62.4271 152.191 63.4771 153.556 63.4771ZM160.094 61.5271L160.499 57.3271L161.024 54.3271H162.974L162.449 57.3271L161.369 61.5271H160.094ZM160.109 65.0071C159.494 65.0071 159.089 64.4821 159.194 63.8521C159.299 63.2371 159.839 62.7571 160.514 62.7571C161.129 62.7571 161.549 63.2821 161.444 63.8971C161.324 64.5271 160.814 65.0071 160.109 65.0071ZM175.422 57.3121C175.287 58.2271 174.747 58.9621 173.997 59.4271C174.747 59.9071 175.182 60.7621 175.017 61.9021C174.792 63.5371 173.427 64.8271 171.282 64.8271H166.857L168.702 54.3271H172.692C174.432 54.3271 175.677 55.6021 175.422 57.3121ZM172.512 55.9471H170.142L169.662 58.7071H172.062C172.857 58.7071 173.547 58.1071 173.697 57.3271C173.832 56.5771 173.382 55.9471 172.512 55.9471ZM173.322 61.7371C173.472 60.9121 172.977 60.2671 172.122 60.2671H169.377L168.867 63.2071H171.552C172.452 63.2071 173.187 62.5471 173.322 61.7371ZM182.399 57.3271H184.019L182.699 64.8271H181.079L181.244 63.9271C180.599 64.6771 179.714 65.0221 178.799 65.0221C177.119 65.0221 176.054 63.8671 176.384 61.9321L177.194 57.3271H178.814L178.034 61.7671C177.839 62.9221 178.364 63.5071 179.414 63.5071C180.419 63.5071 181.364 62.9371 181.664 61.5421L182.399 57.3271ZM187.969 58.8871L187.339 62.4871C187.174 63.4621 187.849 63.4471 189.049 63.3721L188.794 64.8271C186.454 65.1271 185.374 64.4371 185.719 62.4871L186.349 58.8871H184.969L185.254 57.3271H186.634L186.919 55.7071L188.614 55.2271L188.239 57.3271H190.114L189.829 58.8871H187.969ZM196.411 56.2021C195.826 56.2021 195.466 55.7221 195.556 55.1671C195.646 54.6121 196.171 54.1321 196.756 54.1321C197.341 54.1321 197.731 54.5971 197.626 55.1671C197.536 55.7221 197.026 56.2021 196.411 56.2021ZM194.086 64.8271L195.406 57.3271H197.026L195.706 64.8271H194.086ZM202.807 57.1321C204.487 57.1321 205.552 58.2871 205.222 60.2221L204.412 64.8271H202.792L203.572 60.3871C203.767 59.2321 203.242 58.6471 202.192 58.6471C201.187 58.6471 200.242 59.2171 199.942 60.6121L199.207 64.8271H197.587L198.907 57.3271H200.527L200.362 58.2271C201.007 57.4771 201.892 57.1321 202.807 57.1321ZM213.252 58.8871L212.622 62.4871C212.457 63.4621 213.132 63.4471 214.332 63.3721L214.077 64.8271C211.737 65.1271 210.657 64.4371 211.002 62.4871L211.632 58.8871H210.252L210.537 57.3271H211.917L212.202 55.7071L213.897 55.2271L213.522 57.3271H215.397L215.112 58.8871H213.252ZM220.766 57.1321C222.446 57.1321 223.511 58.2871 223.181 60.2221L222.371 64.8271H220.751L221.531 60.3871C221.726 59.2321 221.201 58.6471 220.151 58.6471C219.131 58.6471 218.186 59.2171 217.901 60.6571L217.166 64.8271H215.546L217.391 54.3271H219.011L218.321 58.2271C218.966 57.4771 219.851 57.1321 220.766 57.1321ZM228.826 57.1321C231.076 57.1321 232.486 58.9021 232.066 61.0921C232.036 61.2121 231.961 61.5421 231.886 61.7671H225.916C225.946 62.9671 226.801 63.5371 227.941 63.5371C228.826 63.5371 229.561 63.1921 230.056 62.5921L231.241 63.4921C230.431 64.4971 229.186 65.0221 227.806 65.0221C225.346 65.0221 223.981 63.1921 224.356 60.9271C224.731 58.7371 226.606 57.1321 228.826 57.1321ZM226.141 60.4321H230.536C230.551 59.1421 229.756 58.6021 228.721 58.6021C227.536 58.6021 226.576 59.2921 226.141 60.4321ZM44.2424 81.1321C45.8624 81.1321 46.9124 82.3171 46.5824 84.1771L45.7724 88.8271H44.1524L44.9474 84.2821C45.1274 83.2321 44.6774 82.6471 43.7624 82.6471C42.8624 82.6471 42.0824 83.2171 41.8274 84.5221L41.0624 88.8271H39.4424L40.2374 84.2821C40.4174 83.2321 40.0124 82.6471 39.1124 82.6471C38.2574 82.6471 37.4624 83.1571 37.1474 84.3571L36.3674 88.8271H34.7474L36.0674 81.3271H37.6874L37.5374 82.1521C38.1524 81.4771 38.9474 81.1321 39.8024 81.1321C40.7624 81.1321 41.4374 81.5671 41.7524 82.3321C42.4124 81.5221 43.3274 81.1321 44.2424 81.1321ZM52.2169 81.1321C54.4669 81.1321 55.8769 82.9021 55.4569 85.0921C55.4269 85.2121 55.3519 85.5421 55.2769 85.7671H49.3069C49.3369 86.9671 50.1919 87.5371 51.3319 87.5371C52.2169 87.5371 52.9519 87.1921 53.4469 86.5921L54.6319 87.4921C53.8219 88.4971 52.5769 89.0221 51.1969 89.0221C48.7369 89.0221 47.3719 87.1921 47.7469 84.9271C48.1219 82.7371 49.9969 81.1321 52.2169 81.1321ZM49.5319 84.4321H53.9269C53.9419 83.1421 53.1469 82.6021 52.1119 82.6021C50.9269 82.6021 49.9669 83.2921 49.5319 84.4321ZM63.4531 81.3271H65.0731L63.7531 88.8271H62.1331L62.2831 87.9421C61.6231 88.6171 60.7081 89.0221 59.5381 89.0221C57.2881 89.0221 56.0581 87.0271 56.4481 84.9121C56.8531 82.6771 58.6081 81.1321 60.7081 81.1321C61.8631 81.1321 62.7481 81.6421 63.2431 82.5421L63.4531 81.3271ZM60.0181 87.4771C61.2931 87.4771 62.4181 86.6221 62.7481 85.3471L62.8231 84.9121C62.9731 83.4721 62.0131 82.6771 60.7981 82.6771C59.5681 82.6771 58.3381 83.5021 58.0681 85.0321C57.8281 86.4271 58.6531 87.4771 60.0181 87.4771ZM70.861 81.1321C72.541 81.1321 73.606 82.2871 73.276 84.2221L72.466 88.8271H70.846L71.626 84.3871C71.821 83.2321 71.296 82.6471 70.246 82.6471C69.241 82.6471 68.296 83.2171 67.996 84.6121L67.261 88.8271H65.641L66.961 81.3271H68.581L68.416 82.2271C69.061 81.4771 69.946 81.1321 70.861 81.1321ZM77.556 82.8871L76.926 86.4871C76.761 87.4621 77.436 87.4471 78.636 87.3721L78.381 88.8271C76.041 89.1271 74.961 88.4371 75.306 86.4871L75.936 82.8871H74.556L74.841 81.3271H76.221L76.506 79.7071L78.201 79.2271L77.826 81.3271H79.701L79.416 82.8871H77.556ZM82.1749 80.2021C81.5899 80.2021 81.2299 79.7221 81.3199 79.1671C81.4099 78.6121 81.9349 78.1321 82.5199 78.1321C83.1049 78.1321 83.4949 78.5971 83.3899 79.1671C83.2999 79.7221 82.7899 80.2021 82.1749 80.2021ZM79.8499 88.8271L81.1699 81.3271H82.7899L81.4699 88.8271H79.8499ZM92.8459 81.1321C94.4659 81.1321 95.5159 82.3171 95.1859 84.1771L94.3759 88.8271H92.7559L93.5509 84.2821C93.7309 83.2321 93.2809 82.6471 92.3659 82.6471C91.4659 82.6471 90.6859 83.2171 90.4309 84.5221L89.6659 88.8271H88.0459L88.8409 84.2821C89.0209 83.2321 88.6159 82.6471 87.7159 82.6471C86.8609 82.6471 86.0659 83.1571 85.7509 84.3571L84.9709 88.8271H83.3509L84.6709 81.3271H86.2909L86.1409 82.1521C86.7559 81.4771 87.5509 81.1321 88.4059 81.1321C89.3659 81.1321 90.0409 81.5671 90.3559 82.3321C91.0159 81.5221 91.9309 81.1321 92.8459 81.1321ZM100.82 81.1321C103.07 81.1321 104.48 82.9021 104.06 85.0921C104.03 85.2121 103.955 85.5421 103.88 85.7671H97.9104C97.9404 86.9671 98.7954 87.5371 99.9354 87.5371C100.82 87.5371 101.555 87.1921 102.05 86.5921L103.235 87.4921C102.425 88.4971 101.18 89.0221 99.8004 89.0221C97.3404 89.0221 95.9754 87.1921 96.3504 84.9271C96.7254 82.7371 98.6004 81.1321 100.82 81.1321ZM98.1354 84.4321H102.53C102.545 83.1421 101.75 82.6021 100.715 82.6021C99.5304 82.6021 98.5704 83.2921 98.1354 84.4321ZM106.79 87.0271L105.05 90.9271H103.685L104.99 87.0271H106.79ZM117.165 81.1321C118.845 81.1321 119.91 82.2871 119.58 84.2221L118.77 88.8271H117.15L117.93 84.3871C118.125 83.2321 117.6 82.6471 116.55 82.6471C115.53 82.6471 114.585 83.2171 114.3 84.6571L113.565 88.8271H111.945L113.79 78.3271H115.41L114.72 82.2271C115.365 81.4771 116.25 81.1321 117.165 81.1321ZM125.225 81.1321C127.475 81.1321 128.885 82.9021 128.465 85.0921C128.435 85.2121 128.36 85.5421 128.285 85.7671H122.315C122.345 86.9671 123.2 87.5371 124.34 87.5371C125.225 87.5371 125.96 87.1921 126.455 86.5921L127.64 87.4921C126.83 88.4971 125.585 89.0221 124.205 89.0221C121.745 89.0221 120.38 87.1921 120.755 84.9271C121.13 82.7371 123.005 81.1321 125.225 81.1321ZM122.54 84.4321H126.935C126.95 83.1421 126.155 82.6021 125.12 82.6021C123.935 82.6021 122.975 83.2921 122.54 84.4321ZM131.931 82.4521C132.576 81.5071 133.506 81.1621 134.466 81.1921L134.151 82.9471C133.161 82.8721 131.871 83.3071 131.511 84.8521L130.806 88.8271H129.186L130.506 81.3271H132.126L131.931 82.4521ZM138.804 81.1321C141.054 81.1321 142.464 82.9021 142.044 85.0921C142.014 85.2121 141.939 85.5421 141.864 85.7671H135.894C135.924 86.9671 136.779 87.5371 137.919 87.5371C138.804 87.5371 139.539 87.1921 140.034 86.5921L141.219 87.4921C140.409 88.4971 139.164 89.0221 137.784 89.0221C135.324 89.0221 133.959 87.1921 134.334 84.9271C134.709 82.7371 136.584 81.1321 138.804 81.1321ZM136.119 84.4321H140.514C140.529 83.1421 139.734 82.6021 138.699 82.6021C137.514 82.6021 136.554 83.2921 136.119 84.4321ZM146.025 78.3271L144.285 82.2271H142.92L144.225 78.3271H146.025ZM147.504 89.0221C145.944 89.0221 144.984 88.3171 144.564 87.2071L146.019 86.4571C146.199 87.0871 146.754 87.5371 147.639 87.5371C148.389 87.5371 148.899 87.2671 148.989 86.7421C149.229 85.3621 144.984 86.1121 145.494 83.2621C145.734 81.9121 147.054 81.1321 148.449 81.1321C149.739 81.1321 150.699 81.7171 151.149 82.6921L149.694 83.4271C149.514 82.8721 148.989 82.5871 148.359 82.5871C147.819 82.5871 147.219 82.8271 147.114 83.3971C146.844 84.8521 151.119 83.9671 150.609 86.8921C150.354 88.3171 149.094 89.0221 147.504 89.0221ZM162.799 81.3271H164.419L163.099 88.8271H161.479L161.629 87.9421C160.969 88.6171 160.054 89.0221 158.884 89.0221C156.634 89.0221 155.404 87.0271 155.794 84.9121C156.199 82.6771 157.954 81.1321 160.054 81.1321C161.209 81.1321 162.094 81.6421 162.589 82.5421L162.799 81.3271ZM159.364 87.4771C160.639 87.4771 161.764 86.6221 162.094 85.3471L162.169 84.9121C162.319 83.4721 161.359 82.6771 160.144 82.6771C158.914 82.6771 157.684 83.5021 157.414 85.0321C157.174 86.4271 157.999 87.4771 159.364 87.4771ZM168.752 88.8271L169.562 84.1921L170.672 77.8771H172.292L171.167 84.2371L170.372 88.8271H168.752ZM174.577 80.2021C173.992 80.2021 173.632 79.7221 173.722 79.1671C173.812 78.6121 174.337 78.1321 174.922 78.1321C175.507 78.1321 175.897 78.5971 175.792 79.1671C175.702 79.7221 175.192 80.2021 174.577 80.2021ZM172.252 88.8271L173.572 81.3271H175.192L173.872 88.8271H172.252ZM179.128 82.8871L178.498 86.4871C178.333 87.4621 179.008 87.4471 180.208 87.3721L179.953 88.8271C177.613 89.1271 176.533 88.4371 176.878 86.4871L177.508 82.8871H176.128L176.413 81.3271H177.793L178.078 79.7071L179.773 79.2271L179.398 81.3271H181.273L180.988 82.8871H179.128ZM184.446 82.8871L183.816 86.4871C183.651 87.4621 184.326 87.4471 185.526 87.3721L185.271 88.8271C182.931 89.1271 181.851 88.4371 182.196 86.4871L182.826 82.8871H181.446L181.731 81.3271H183.111L183.396 79.7071L185.091 79.2271L184.716 81.3271H186.591L186.306 82.8871H184.446ZM186.755 88.8271L187.565 84.1921L188.675 77.8771H190.295L189.17 84.2371L188.375 88.8271H186.755ZM194.995 81.1321C197.245 81.1321 198.655 82.9021 198.235 85.0921C198.205 85.2121 198.13 85.5421 198.055 85.7671H192.085C192.115 86.9671 192.97 87.5371 194.11 87.5371C194.995 87.5371 195.73 87.1921 196.225 86.5921L197.41 87.4921C196.6 88.4971 195.355 89.0221 193.975 89.0221C191.515 89.0221 190.15 87.1921 190.525 84.9271C190.9 82.7371 192.775 81.1321 194.995 81.1321ZM192.31 84.4321H196.705C196.72 83.1421 195.925 82.6021 194.89 82.6021C193.705 82.6021 192.745 83.2921 192.31 84.4321ZM210.565 79.9771H206.14L205.615 82.9171H209.89L209.605 84.5671H205.33L204.58 88.8271H202.855L204.7 78.3271H210.85L210.565 79.9771ZM210.529 88.8271L211.339 84.1921L212.449 77.8771H214.069L212.944 84.2371L212.149 88.8271H210.529ZM220.33 81.3271H222.13L217.885 89.0671C216.76 91.1521 215.38 91.9321 213.745 91.8271L214.015 90.3121C215.035 90.3721 215.62 89.8921 216.19 88.8721L216.325 88.6621L214.48 81.3271H216.145L217.435 86.8321L220.33 81.3271ZM16.4294 113.022C14.8694 113.022 13.9094 112.317 13.4894 111.207L14.9444 110.457C15.1244 111.087 15.6794 111.537 16.5644 111.537C17.3144 111.537 17.8244 111.267 17.9144 110.742C18.1544 109.362 13.9094 110.112 14.4194 107.262C14.6594 105.912 15.9794 105.132 17.3744 105.132C18.6644 105.132 19.6244 105.717 20.0744 106.692L18.6194 107.427C18.4394 106.872 17.9144 106.587 17.2844 106.587C16.7444 106.587 16.1444 106.827 16.0394 107.397C15.7694 108.852 20.0444 107.967 19.5344 110.892C19.2794 112.317 18.0194 113.022 16.4294 113.022ZM24.1109 113.022C21.7409 113.022 20.2859 111.177 20.7209 108.882C21.1409 106.632 23.0759 105.132 25.2959 105.132C27.5159 105.132 28.9709 106.962 28.5809 109.227C28.1759 111.507 26.2109 113.022 24.1109 113.022ZM24.2309 111.447C25.4609 111.447 26.7059 110.592 26.9759 109.047C27.2459 107.562 26.2859 106.707 25.0709 106.707C23.8409 106.707 22.6109 107.562 22.3409 109.077C22.0859 110.592 23.0009 111.447 24.2309 111.447ZM38.9104 105.132C40.5304 105.132 41.5804 106.317 41.2504 108.177L40.4404 112.827H38.8204L39.6154 108.282C39.7954 107.232 39.3454 106.647 38.4304 106.647C37.5304 106.647 36.7504 107.217 36.4954 108.522L35.7304 112.827H34.1104L34.9054 108.282C35.0854 107.232 34.6804 106.647 33.7804 106.647C32.9254 106.647 32.1304 107.157 31.8154 108.357L31.0354 112.827H29.4154L30.7354 105.327H32.3554L32.2054 106.152C32.8204 105.477 33.6154 105.132 34.4704 105.132C35.4304 105.132 36.1054 105.567 36.4204 106.332C37.0804 105.522 37.9954 105.132 38.9104 105.132ZM46.8849 105.132C49.1349 105.132 50.5449 106.902 50.1249 109.092C50.0949 109.212 50.0199 109.542 49.9449 109.767H43.9749C44.0049 110.967 44.8599 111.537 45.9999 111.537C46.8849 111.537 47.6199 111.192 48.1149 110.592L49.2999 111.492C48.4899 112.497 47.2449 113.022 45.8649 113.022C43.4049 113.022 42.0399 111.192 42.4149 108.927C42.7899 106.737 44.6649 105.132 46.8849 105.132ZM44.1999 108.432H48.5949C48.6099 107.142 47.8149 106.602 46.7799 106.602C45.5949 106.602 44.6349 107.292 44.1999 108.432ZM54.0306 106.887L53.4006 110.487C53.2356 111.462 53.9106 111.447 55.1106 111.372L54.8556 112.827C52.5156 113.127 51.4356 112.437 51.7806 110.487L52.4106 106.887H51.0306L51.3156 105.327H52.6956L52.9806 103.707L54.6756 103.227L54.3006 105.327H56.1756L55.8906 106.887H54.0306ZM61.5446 105.132C63.2246 105.132 64.2896 106.287 63.9596 108.222L63.1496 112.827H61.5296L62.3096 108.387C62.5046 107.232 61.9796 106.647 60.9296 106.647C59.9096 106.647 58.9646 107.217 58.6796 108.657L57.9446 112.827H56.3246L58.1696 102.327H59.7896L59.0996 106.227C59.7446 105.477 60.6296 105.132 61.5446 105.132ZM67.1896 104.202C66.6046 104.202 66.2446 103.722 66.3346 103.167C66.4246 102.612 66.9496 102.132 67.5346 102.132C68.1196 102.132 68.5096 102.597 68.4046 103.167C68.3146 103.722 67.8046 104.202 67.1896 104.202ZM64.8646 112.827L66.1846 105.327H67.8046L66.4846 112.827H64.8646ZM73.5856 105.132C75.2656 105.132 76.3306 106.287 76.0006 108.222L75.1906 112.827H73.5706L74.3506 108.387C74.5456 107.232 74.0206 106.647 72.9706 106.647C71.9656 106.647 71.0206 107.217 70.7206 108.612L69.9856 112.827H68.3656L69.6856 105.327H71.3056L71.1406 106.227C71.7856 105.477 72.6706 105.132 73.5856 105.132ZM80.2685 102.327L78.5285 106.227H77.1635L78.4685 102.327H80.2685ZM87.2679 106.887L86.6379 110.487C86.4729 111.462 87.1479 111.447 88.3479 111.372L88.0929 112.827C85.7529 113.127 84.6729 112.437 85.0179 110.487L85.6479 106.887H84.2679L84.5529 105.327H85.9329L86.2179 103.707L87.9129 103.227L87.5379 105.327H89.4129L89.1279 106.887H87.2679ZM92.9292 113.022C90.5592 113.022 89.1042 111.177 89.5392 108.882C89.9592 106.632 91.8942 105.132 94.1142 105.132C96.3342 105.132 97.7892 106.962 97.3992 109.227C96.9942 111.507 95.0292 113.022 92.9292 113.022ZM93.0492 111.447C94.2792 111.447 95.5242 110.592 95.7942 109.047C96.0642 107.562 95.1042 106.707 93.8892 106.707C92.6592 106.707 91.4292 107.562 91.1592 109.077C90.9042 110.592 91.8192 111.447 93.0492 111.447ZM109.739 105.327L105.824 109.002L108.539 112.827H106.739L104.234 109.227L103.604 112.827H101.984L103.829 102.327H105.449L104.354 108.522L107.759 105.327H109.739ZM113.77 105.132C116.02 105.132 117.43 106.902 117.01 109.092C116.98 109.212 116.905 109.542 116.83 109.767H110.86C110.89 110.967 111.745 111.537 112.885 111.537C113.77 111.537 114.505 111.192 115 110.592L116.185 111.492C115.375 112.497 114.13 113.022 112.75 113.022C110.29 113.022 108.925 111.192 109.3 108.927C109.675 106.737 111.55 105.132 113.77 105.132ZM111.085 108.432H115.48C115.495 107.142 114.7 106.602 113.665 106.602C112.48 106.602 111.52 107.292 111.085 108.432ZM122.471 105.132C124.721 105.132 126.131 106.902 125.711 109.092C125.681 109.212 125.606 109.542 125.531 109.767H119.561C119.591 110.967 120.446 111.537 121.586 111.537C122.471 111.537 123.206 111.192 123.701 110.592L124.886 111.492C124.076 112.497 122.831 113.022 121.451 113.022C118.991 113.022 117.626 111.192 118.001 108.927C118.376 106.737 120.251 105.132 122.471 105.132ZM119.786 108.432H124.181C124.196 107.142 123.401 106.602 122.366 106.602C121.181 106.602 120.221 107.292 119.786 108.432ZM131.952 105.132C134.097 105.132 135.402 107.067 135.057 109.227C134.697 111.432 132.957 113.022 130.857 113.022C129.672 113.022 128.757 112.497 128.277 111.582L127.527 115.827H125.892L127.752 105.327H129.372L129.207 106.272C129.897 105.552 130.827 105.132 131.952 105.132ZM133.437 109.107C133.677 107.712 132.852 106.677 131.487 106.677C130.212 106.677 129.087 107.547 128.757 108.822L128.682 109.257C128.547 110.682 129.492 111.477 130.707 111.477C131.952 111.477 133.167 110.637 133.437 109.107ZM143.02 106.887L142.39 110.487C142.225 111.462 142.9 111.447 144.1 111.372L143.845 112.827C141.505 113.127 140.425 112.437 140.77 110.487L141.4 106.887H140.02L140.305 105.327H141.685L141.97 103.707L143.665 103.227L143.29 105.327H145.165L144.88 106.887H143.02ZM150.534 105.132C152.214 105.132 153.279 106.287 152.949 108.222L152.139 112.827H150.519L151.299 108.387C151.494 107.232 150.969 106.647 149.919 106.647C148.899 106.647 147.954 107.217 147.669 108.657L146.934 112.827H145.314L147.159 102.327H148.779L148.089 106.227C148.734 105.477 149.619 105.132 150.534 105.132ZM158.594 105.132C160.844 105.132 162.254 106.902 161.834 109.092C161.804 109.212 161.729 109.542 161.654 109.767H155.684C155.714 110.967 156.569 111.537 157.709 111.537C158.594 111.537 159.329 111.192 159.824 110.592L161.009 111.492C160.199 112.497 158.954 113.022 157.574 113.022C155.114 113.022 153.749 111.192 154.124 108.927C154.499 106.737 156.374 105.132 158.594 105.132ZM155.909 108.432H160.304C160.319 107.142 159.524 106.602 158.489 106.602C157.304 106.602 156.344 107.292 155.909 108.432ZM172.199 105.327H173.999L169.949 112.827H168.224L166.799 105.327H168.464L169.349 110.907L172.199 105.327ZM176.027 104.202C175.442 104.202 175.082 103.722 175.172 103.167C175.262 102.612 175.787 102.132 176.372 102.132C176.957 102.132 177.347 102.597 177.242 103.167C177.152 103.722 176.642 104.202 176.027 104.202ZM173.702 112.827L175.022 105.327H176.642L175.322 112.827H173.702ZM182.723 105.132C184.868 105.132 186.173 107.007 185.828 109.167C185.483 111.237 183.833 113.022 181.508 113.022C180.323 113.022 179.483 112.467 179.033 111.612L178.823 112.827H177.203L179.048 102.327H180.668L179.963 106.302C180.668 105.567 181.613 105.132 182.723 105.132ZM184.208 109.032C184.448 107.622 183.608 106.677 182.273 106.677C180.938 106.677 179.723 107.667 179.483 109.077C179.243 110.487 180.098 111.477 181.433 111.477C182.813 111.477 183.968 110.442 184.208 109.032ZM191.392 105.132C193.642 105.132 195.052 106.902 194.632 109.092C194.602 109.212 194.527 109.542 194.452 109.767H188.482C188.512 110.967 189.367 111.537 190.507 111.537C191.392 111.537 192.127 111.192 192.622 110.592L193.807 111.492C192.997 112.497 191.752 113.022 190.372 113.022C187.912 113.022 186.547 111.192 186.922 108.927C187.297 106.737 189.172 105.132 191.392 105.132ZM188.707 108.432H193.102C193.117 107.142 192.322 106.602 191.287 106.602C190.102 106.602 189.142 107.292 188.707 108.432ZM206.467 105.327H208.057L206.797 112.482C206.362 114.972 204.577 116.022 202.477 116.022C200.857 116.022 199.612 115.392 199.072 114.207L200.527 113.457C200.797 114.072 201.397 114.552 202.582 114.552C204.037 114.552 204.967 113.817 205.207 112.482L205.342 111.702C204.682 112.422 203.767 112.872 202.627 112.872C200.272 112.872 199.087 110.967 199.432 108.837C199.777 106.722 201.532 105.132 203.632 105.132C204.817 105.132 205.762 105.657 206.242 106.587L206.467 105.327ZM203.047 111.342C204.382 111.342 205.552 110.427 205.807 109.047C206.092 107.532 205.057 106.662 203.797 106.662C202.537 106.662 201.277 107.532 201.052 108.957C200.827 110.337 201.652 111.342 203.047 111.342ZM212.299 113.022C209.929 113.022 208.474 111.177 208.909 108.882C209.329 106.632 211.264 105.132 213.484 105.132C215.704 105.132 217.159 106.962 216.769 109.227C216.364 111.507 214.399 113.022 212.299 113.022ZM212.419 111.447C213.649 111.447 214.894 110.592 215.164 109.047C215.434 107.562 214.474 106.707 213.259 106.707C212.029 106.707 210.799 107.562 210.529 109.077C210.274 110.592 211.189 111.447 212.419 111.447ZM219.929 104.202C219.344 104.202 218.984 103.722 219.074 103.167C219.164 102.612 219.689 102.132 220.274 102.132C220.859 102.132 221.249 102.597 221.144 103.167C221.054 103.722 220.544 104.202 219.929 104.202ZM217.604 112.827L218.924 105.327H220.544L219.224 112.827H217.604ZM226.325 105.132C228.005 105.132 229.07 106.287 228.74 108.222L227.93 112.827H226.31L227.09 108.387C227.285 107.232 226.76 106.647 225.71 106.647C224.705 106.647 223.76 107.217 223.46 108.612L222.725 112.827H221.105L222.425 105.327H224.045L223.88 106.227C224.525 105.477 225.41 105.132 226.325 105.132ZM236.965 105.327H238.555L237.295 112.482C236.86 114.972 235.075 116.022 232.975 116.022C231.355 116.022 230.11 115.392 229.57 114.207L231.025 113.457C231.295 114.072 231.895 114.552 233.08 114.552C234.535 114.552 235.465 113.817 235.705 112.482L235.84 111.702C235.18 112.422 234.265 112.872 233.125 112.872C230.77 112.872 229.585 110.967 229.93 108.837C230.275 106.722 232.03 105.132 234.13 105.132C235.315 105.132 236.26 105.657 236.74 106.587L236.965 105.327ZM233.545 111.342C234.88 111.342 236.05 110.427 236.305 109.047C236.59 107.532 235.555 106.662 234.295 106.662C233.035 106.662 231.775 107.532 231.55 108.957C231.325 110.337 232.15 111.342 233.545 111.342ZM240.052 113.007C239.437 113.007 239.032 112.482 239.137 111.852C239.242 111.237 239.782 110.757 240.457 110.757C241.072 110.757 241.492 111.282 241.387 111.897C241.267 112.527 240.757 113.007 240.052 113.007Z" fill="white"/>
</svg>
