<svg width="256" height="128" viewBox="0 0 256 128" fill="none" xmlns="http://www.w3.org/2000/svg">
<mask id="path-1-inside-1_569_3851" fill="white">
<path fill-rule="evenodd" clip-rule="evenodd" d="M31.1239 0.151611C29.7336 0.151611 28.671 1.40578 26.5459 3.91411L22.0653 9.20278C21.0863 10.3584 20.2398 11.3575 19.5419 12.2347C11.1337 12.2947 6.53386 12.7204 3.51472 15.7396C0 19.2543 0 24.9111 0 36.2248V104C0 115.314 0 120.971 3.51472 124.485C7.02944 128 12.6863 128 24 128H232C243.314 128 248.971 128 252.485 124.485C256 120.971 256 115.314 256 104V36.2248C256 24.9111 256 19.2543 252.485 15.7396C248.971 12.2248 243.314 12.2248 232 12.2248H42.698C42.0016 11.35 41.1578 10.354 40.1824 9.20278L35.7018 3.91411C33.5767 1.40578 32.5141 0.151611 31.1239 0.151611Z"/>
</mask>
<path fill-rule="evenodd" clip-rule="evenodd" d="M31.1239 0.151611C29.7336 0.151611 28.671 1.40578 26.5459 3.91411L22.0653 9.20278C21.0863 10.3584 20.2398 11.3575 19.5419 12.2347C11.1337 12.2947 6.53386 12.7204 3.51472 15.7396C0 19.2543 0 24.9111 0 36.2248V104C0 115.314 0 120.971 3.51472 124.485C7.02944 128 12.6863 128 24 128H232C243.314 128 248.971 128 252.485 124.485C256 120.971 256 115.314 256 104V36.2248C256 24.9111 256 19.2543 252.485 15.7396C248.971 12.2248 243.314 12.2248 232 12.2248H42.698C42.0016 11.35 41.1578 10.354 40.1824 9.20278L35.7018 3.91411C33.5767 1.40578 32.5141 0.151611 31.1239 0.151611Z" fill="#0A3085" fill-opacity="0.6"/>
<path d="M26.5459 3.91411L27.3089 4.56052L26.5459 3.91411ZM22.0653 9.20278L21.3023 8.55637V8.55637L22.0653 9.20278ZM19.5419 12.2347L19.549 13.2347L20.0269 13.2313L20.3244 12.8573L19.5419 12.2347ZM3.51472 15.7396L4.22183 16.4467L3.51472 15.7396ZM252.485 124.485L251.778 123.778L252.485 124.485ZM252.485 15.7396L251.778 16.4467L252.485 15.7396ZM42.698 12.2248L41.9157 12.8477L42.2159 13.2248H42.698V12.2248ZM40.1824 9.20278L40.9454 8.55637V8.55637L40.1824 9.20278ZM35.7018 3.91411L34.9388 4.56053L35.7018 3.91411ZM27.3089 4.56052C28.3912 3.28304 29.1354 2.40832 29.775 1.83945C30.3938 1.28916 30.778 1.15161 31.1239 1.15161V-0.848389C30.0795 -0.848389 29.2373 -0.358858 28.4459 0.345019C27.6754 1.03032 26.8258 2.03684 25.783 3.2677L27.3089 4.56052ZM22.8283 9.8492L27.3089 4.56052L25.783 3.2677L21.3023 8.55637L22.8283 9.8492ZM20.3244 12.8573C21.0107 11.9947 21.8461 11.0085 22.8283 9.8492L21.3023 8.55637C20.3264 9.70823 19.4689 10.7203 18.7593 11.6121L20.3244 12.8573ZM4.22183 16.4467C5.54739 15.1211 7.24501 14.3266 9.69458 13.8598C12.1724 13.3876 15.3395 13.2647 19.549 13.2347L19.5347 11.2347C15.336 11.2647 11.9991 11.3846 9.3202 11.8951C6.61304 12.411 4.50119 13.3389 2.80761 15.0325L4.22183 16.4467ZM1 36.2248C1 30.5397 1.00212 26.3765 1.43042 23.1908C1.85485 20.0339 2.68124 17.9873 4.22183 16.4467L2.80761 15.0325C0.833483 17.0066 -0.0974946 19.5457 -0.551743 22.9243C-1.00212 26.2742 -1 30.5963 -1 36.2248H1ZM1 104V36.2248H-1V104H1ZM4.22183 123.778C2.68124 122.238 1.85485 120.191 1.43042 117.034C1.00212 113.848 1 109.685 1 104H-1C-1 109.629 -1.00212 113.951 -0.551743 117.301C-0.0974946 120.679 0.833484 123.218 2.80761 125.192L4.22183 123.778ZM24 127C18.3149 127 14.1516 126.998 10.966 126.57C7.80911 126.145 5.76242 125.319 4.22183 123.778L2.80761 125.192C4.78174 127.167 7.32084 128.097 10.6995 128.552C14.0494 129.002 18.3714 129 24 129V127ZM232 127H24V129H232V127ZM251.778 123.778C250.238 125.319 248.191 126.145 245.034 126.57C241.848 126.998 237.685 127 232 127V129C237.629 129 241.951 129.002 245.301 128.552C248.679 128.097 251.218 127.167 253.192 125.192L251.778 123.778ZM255 104C255 109.685 254.998 113.848 254.57 117.034C254.145 120.191 253.319 122.238 251.778 123.778L253.192 125.192C255.167 123.218 256.098 120.679 256.552 117.301C257.002 113.951 257 109.629 257 104H255ZM255 36.2248V104H257V36.2248H255ZM251.778 16.4467C253.319 17.9873 254.145 20.0339 254.57 23.1908C254.998 26.3765 255 30.5397 255 36.2248H257C257 30.5963 257.002 26.2742 256.552 22.9243C256.098 19.5457 255.167 17.0066 253.192 15.0325L251.778 16.4467ZM232 13.2248C237.685 13.2248 241.848 13.227 245.034 13.6553C248.191 14.0797 250.238 14.9061 251.778 16.4467L253.192 15.0325C251.218 13.0583 248.679 12.1273 245.301 11.6731C241.951 11.2227 237.629 11.2248 232 11.2248V13.2248ZM42.698 13.2248H232V11.2248H42.698V13.2248ZM39.4194 9.8492C40.3979 11.0041 41.2308 11.9873 41.9157 12.8477L43.4804 11.602C42.7724 10.7127 41.9177 9.70395 40.9454 8.55637L39.4194 9.8492ZM34.9388 4.56053L39.4194 9.8492L40.9454 8.55637L36.4648 3.2677L34.9388 4.56053ZM31.1239 1.15161C31.4697 1.15161 31.854 1.28916 32.4727 1.83945C33.1123 2.40832 33.8565 3.28304 34.9388 4.56053L36.4648 3.2677C35.422 2.03684 34.5724 1.03032 33.8018 0.345019C33.0104 -0.358858 32.1683 -0.848389 31.1239 -0.848389V1.15161Z" fill="#FFFF00" mask="url(#path-1-inside-1_569_3851)"/>
</svg>
