<svg width="256" height="68" viewBox="0 0 256 68" fill="none" xmlns="http://www.w3.org/2000/svg">
<mask id="path-1-inside-1_569_3894" fill="white">
<path fill-rule="evenodd" clip-rule="evenodd" d="M31.1239 0.152344C29.7336 0.152344 28.671 1.40651 26.5459 3.91484L22.0653 9.20352C21.7984 9.51856 21.5413 9.82197 21.2945 10.1145C11.7608 10.1367 6.73734 10.4045 3.51472 13.6272C0 17.1419 0 22.7987 0 34.1124V44C0 55.3137 0 60.9706 3.51472 64.4853C7.02944 68 12.6863 68 24 68H232C243.314 68 248.971 68 252.485 64.4853C256 60.9706 256 55.3137 256 44V34.1124C256 22.7987 256 17.1419 252.485 13.6272C248.971 10.1124 243.314 10.1124 232 10.1124H40.9516C40.7052 9.82058 40.4487 9.51783 40.1824 9.20352L35.7018 3.91484C33.5767 1.40651 32.5141 0.152344 31.1239 0.152344Z"/>
</mask>
<path fill-rule="evenodd" clip-rule="evenodd" d="M31.1239 0.152344C29.7336 0.152344 28.671 1.40651 26.5459 3.91484L22.0653 9.20352C21.7984 9.51856 21.5413 9.82197 21.2945 10.1145C11.7608 10.1367 6.73734 10.4045 3.51472 13.6272C0 17.1419 0 22.7987 0 34.1124V44C0 55.3137 0 60.9706 3.51472 64.4853C7.02944 68 12.6863 68 24 68H232C243.314 68 248.971 68 252.485 64.4853C256 60.9706 256 55.3137 256 44V34.1124C256 22.7987 256 17.1419 252.485 13.6272C248.971 10.1124 243.314 10.1124 232 10.1124H40.9516C40.7052 9.82058 40.4487 9.51783 40.1824 9.20352L35.7018 3.91484C33.5767 1.40651 32.5141 0.152344 31.1239 0.152344Z" fill="#0A3085" fill-opacity="0.6"/>
<path d="M26.5459 3.91484L27.3089 4.56126L26.5459 3.91484ZM22.0653 9.20352L21.3023 8.5571V8.5571L22.0653 9.20352ZM21.2945 10.1145L21.2968 11.1145L21.7599 11.1134L22.0586 10.7595L21.2945 10.1145ZM3.51472 13.6272L2.80761 12.9201L3.51472 13.6272ZM3.51472 64.4853L2.80761 65.1924H2.80761L3.51472 64.4853ZM252.485 64.4853L251.778 63.7782L252.485 64.4853ZM252.485 13.6272L251.778 14.3343V14.3343L252.485 13.6272ZM40.9516 10.1124L40.1874 10.7575L40.487 11.1124H40.9516V10.1124ZM40.1824 9.20352L39.4194 9.84993V9.84993L40.1824 9.20352ZM35.7018 3.91484L34.9388 4.56126L35.7018 3.91484ZM27.3089 4.56126C28.3912 3.28378 29.1354 2.40906 29.775 1.84019C30.3938 1.2899 30.778 1.15234 31.1239 1.15234V-0.847656C30.0795 -0.847656 29.2373 -0.358125 28.4459 0.345751C27.6754 1.03105 26.8258 2.03758 25.783 3.26843L27.3089 4.56126ZM22.8283 9.84993L27.3089 4.56126L25.783 3.26843L21.3023 8.5571L22.8283 9.84993ZM22.0586 10.7595C22.3048 10.4678 22.5613 10.1651 22.8283 9.84993L21.3023 8.5571C21.0355 8.872 20.7779 9.17613 20.5303 9.46944L22.0586 10.7595ZM4.22183 14.3343C5.63554 12.9205 7.47409 12.1094 10.2015 11.6572C12.9581 11.2002 16.515 11.1256 21.2968 11.1145L21.2921 9.11446C16.5402 9.12555 12.8186 9.19602 9.87441 9.68414C6.90103 10.1771 4.61651 11.1111 2.80761 12.9201L4.22183 14.3343ZM1 34.1124C1 28.4273 1.00212 24.2641 1.43042 21.0784C1.85485 17.9215 2.68124 15.8749 4.22183 14.3343L2.80761 12.9201C0.833484 14.8942 -0.0974946 17.4333 -0.551743 20.8119C-1.00212 24.1618 -1 28.4839 -1 34.1124H1ZM1 44V34.1124H-1V44H1ZM4.22183 63.7782C2.68124 62.2376 1.85485 60.1909 1.43042 57.034C1.00212 53.8484 1 49.6851 1 44H-1C-1 49.6286 -1.00212 53.9506 -0.551743 57.3005C-0.0974946 60.6792 0.833484 63.2183 2.80761 65.1924L4.22183 63.7782ZM24 67C18.3149 67 14.1516 66.9979 10.966 66.5696C7.80911 66.1452 5.76242 65.3188 4.22183 63.7782L2.80761 65.1924C4.78174 67.1665 7.32084 68.0975 10.6995 68.5518C14.0494 69.0021 18.3714 69 24 69V67ZM232 67H24V69H232V67ZM251.778 63.7782C250.238 65.3188 248.191 66.1452 245.034 66.5696C241.848 66.9979 237.685 67 232 67V69C237.629 69 241.951 69.0021 245.301 68.5518C248.679 68.0975 251.218 67.1665 253.192 65.1924L251.778 63.7782ZM255 44C255 49.6851 254.998 53.8484 254.57 57.034C254.145 60.1909 253.319 62.2376 251.778 63.7782L253.192 65.1924C255.167 63.2183 256.098 60.6792 256.552 57.3005C257.002 53.9506 257 49.6286 257 44H255ZM255 34.1124V44H257V34.1124H255ZM251.778 14.3343C253.319 15.8749 254.145 17.9215 254.57 21.0784C254.998 24.2641 255 28.4273 255 34.1124H257C257 28.4839 257.002 24.1618 256.552 20.8119C256.098 17.4333 255.167 14.8942 253.192 12.92L251.778 14.3343ZM232 11.1124C237.685 11.1124 241.848 11.1146 245.034 11.5429C248.191 11.9673 250.238 12.7937 251.778 14.3343L253.192 12.9201C251.218 10.9459 248.679 10.0149 245.301 9.5607C241.951 9.11031 237.629 9.11244 232 9.11244V11.1124ZM40.9516 11.1124H232V9.11244H40.9516V11.1124ZM39.4194 9.84993C39.6859 10.1644 39.9417 10.4664 40.1874 10.7575L41.7157 9.46741C41.4687 9.17473 41.2116 8.87128 40.9454 8.5571L39.4194 9.84993ZM34.9388 4.56126L39.4194 9.84993L40.9454 8.5571L36.4648 3.26843L34.9388 4.56126ZM31.1239 1.15234C31.4697 1.15234 31.854 1.2899 32.4727 1.84019C33.1123 2.40906 33.8565 3.28378 34.9388 4.56126L36.4648 3.26843C35.422 2.03758 34.5724 1.03105 33.8018 0.345751C33.0104 -0.358125 32.1683 -0.847656 31.1239 -0.847656V1.15234Z" fill="#FFFF00" mask="url(#path-1-inside-1_569_3894)"/>
<path d="M106.352 39.3971L106.232 40.1171C105.737 43.0121 103.397 45.0221 100.307 45.0221C96.9766 45.0221 95.0716 42.4571 95.6116 39.3821C96.1366 36.3521 98.7466 34.1321 101.837 34.1321C103.937 34.1321 105.422 35.1221 106.202 36.6971L104.627 37.5221C104.102 36.4871 103.187 35.8121 101.702 35.8121C99.4666 35.8121 97.6966 37.3871 97.3216 39.5471C96.9466 41.7071 98.1316 43.3421 100.457 43.3421C102.437 43.3421 103.727 42.3521 104.282 40.9421H100.832L101.102 39.3971H106.352ZM110.553 45.0221C108.183 45.0221 106.728 43.1771 107.163 40.8821C107.583 38.6321 109.518 37.1321 111.738 37.1321C113.958 37.1321 115.413 38.9621 115.023 41.2271C114.618 43.5071 112.653 45.0221 110.553 45.0221ZM110.673 43.4471C111.903 43.4471 113.148 42.5921 113.418 41.0471C113.688 39.5621 112.728 38.7071 111.513 38.7071C110.283 38.7071 109.053 39.5621 108.783 41.0771C108.528 42.5921 109.443 43.4471 110.673 43.4471ZM119.086 38.8871L118.456 42.4871C118.291 43.4621 118.966 43.4471 120.166 43.3721L119.911 44.8271C117.571 45.1271 116.491 44.4371 116.836 42.4871L117.466 38.8871H116.086L116.371 37.3271H117.751L118.036 35.7071L119.731 35.2271L119.356 37.3271H121.231L120.946 38.8871H119.086ZM124.404 38.8871L123.774 42.4871C123.609 43.4621 124.284 43.4471 125.484 43.3721L125.229 44.8271C122.889 45.1271 121.809 44.4371 122.154 42.4871L122.784 38.8871H121.404L121.689 37.3271H123.069L123.354 35.7071L125.049 35.2271L124.674 37.3271H126.549L126.264 38.8871H124.404ZM133.665 37.3271H135.285L133.965 44.8271H132.345L132.495 43.9421C131.835 44.6171 130.92 45.0221 129.75 45.0221C127.5 45.0221 126.27 43.0271 126.66 40.9121C127.065 38.6771 128.82 37.1321 130.92 37.1321C132.075 37.1321 132.96 37.6421 133.455 38.5421L133.665 37.3271ZM130.23 43.4771C131.505 43.4771 132.63 42.6221 132.96 41.3471L133.035 40.9121C133.185 39.4721 132.225 38.6771 131.01 38.6771C129.78 38.6771 128.55 39.5021 128.28 41.0321C128.04 42.4271 128.865 43.4771 130.23 43.4771ZM147.418 35.9771H142.993L142.468 38.9171H146.743L146.458 40.5671H142.183L141.433 44.8271H139.708L141.553 34.3271H147.703L147.418 35.9771ZM147.382 44.8271L148.192 40.1921L149.302 33.8771H150.922L149.797 40.2371L149.002 44.8271H147.382ZM157.182 37.3271H158.982L154.737 45.0671C153.612 47.1521 152.232 47.9321 150.597 47.8271L150.867 46.3121C151.887 46.3721 152.472 45.8921 153.042 44.8721L153.177 44.6621L151.332 37.3271H152.997L154.287 42.8321L157.182 37.3271ZM159.59 41.5271L159.995 37.3271L160.52 34.3271H162.47L161.945 37.3271L160.865 41.5271H159.59ZM159.605 45.0071C158.99 45.0071 158.585 44.4821 158.69 43.8521C158.795 43.2371 159.335 42.7571 160.01 42.7571C160.625 42.7571 161.045 43.2821 160.94 43.8971C160.82 44.5271 160.31 45.0071 159.605 45.0071Z" fill="white"/>
</svg>
