<svg width="256" height="89" viewBox="0 0 256 89" fill="none" xmlns="http://www.w3.org/2000/svg">
<mask id="path-1-inside-1_569_3911" fill="white">
<path fill-rule="evenodd" clip-rule="evenodd" d="M31.1239 0C29.8621 0 28.8532 1.03108 26.8354 3.09324L23.6731 6.32502C22.5241 7.4993 21.5302 8.51502 20.7067 9.40835C11.5531 9.44127 6.67046 9.76359 3.51472 12.9193C0 16.434 0 22.0909 0 33.4046V65C0 76.3137 0 81.9706 3.51472 85.4853C7.02944 89 12.6863 89 24 89H232C243.314 89 248.971 89 252.485 85.4853C256 81.9706 256 76.3137 256 65V33.4046C256 22.0909 256 16.434 252.485 12.9193C248.971 9.40461 243.314 9.40461 232 9.40461H41.5376C40.7148 8.51218 39.7221 7.49766 38.5746 6.32503L35.4124 3.09324L35.4123 3.09322C33.3945 1.03107 32.3856 0 31.1239 0Z"/>
</mask>
<path fill-rule="evenodd" clip-rule="evenodd" d="M31.1239 0C29.8621 0 28.8532 1.03108 26.8354 3.09324L23.6731 6.32502C22.5241 7.4993 21.5302 8.51502 20.7067 9.40835C11.5531 9.44127 6.67046 9.76359 3.51472 12.9193C0 16.434 0 22.0909 0 33.4046V65C0 76.3137 0 81.9706 3.51472 85.4853C7.02944 89 12.6863 89 24 89H232C243.314 89 248.971 89 252.485 85.4853C256 81.9706 256 76.3137 256 65V33.4046C256 22.0909 256 16.434 252.485 12.9193C248.971 9.40461 243.314 9.40461 232 9.40461H41.5376C40.7148 8.51218 39.7221 7.49766 38.5746 6.32503L35.4124 3.09324L35.4123 3.09322C33.3945 1.03107 32.3856 0 31.1239 0Z" fill="#0A3085" fill-opacity="0.6"/>
<path d="M26.8354 3.09324L27.5501 3.79262V3.79262L26.8354 3.09324ZM23.6731 6.32502L22.9583 5.62564V5.62564L23.6731 6.32502ZM20.7067 9.40835L20.7103 10.4083L21.1464 10.4068L21.4419 10.0861L20.7067 9.40835ZM3.51472 12.9193L4.22183 13.6264H4.22183L3.51472 12.9193ZM3.51472 85.4853L2.80761 86.1924H2.80761L3.51472 85.4853ZM252.485 85.4853L251.778 84.7782L252.485 85.4853ZM252.485 12.9193L251.778 13.6264V13.6264L252.485 12.9193ZM41.5376 9.40461L40.8024 10.0825L41.0994 10.4046H41.5376V9.40461ZM38.5746 6.32503L39.2894 5.62565V5.62565L38.5746 6.32503ZM35.4124 3.09324L36.1271 2.39386L36.0916 2.35755L36.0526 2.32502L35.4124 3.09324ZM35.4123 3.09322L34.6976 3.7926L34.7331 3.82892L34.7722 3.86144L35.4123 3.09322ZM27.5501 3.79262C28.579 2.7411 29.2812 2.02657 29.8774 1.56236C30.4508 1.116 30.8049 1 31.1239 1V-1C30.181 -1 29.3998 -0.600457 28.6488 -0.0157458C27.9207 0.551128 27.1095 1.38321 26.1206 2.39386L27.5501 3.79262ZM24.3878 7.0244L27.5501 3.79262L26.1206 2.39386L22.9583 5.62564L24.3878 7.0244ZM21.4419 10.0861C22.2532 9.20608 23.2355 8.20206 24.3878 7.0244L22.9583 5.62564C21.8126 6.79654 20.8072 7.82396 19.9714 8.73057L21.4419 10.0861ZM4.22183 13.6264C5.60655 12.2417 7.39841 11.4355 10.0326 10.978C12.6958 10.5156 16.1217 10.4249 20.7103 10.4083L20.7031 8.40836C16.1381 8.42478 12.5459 8.51167 9.69042 9.00753C6.80596 9.50842 4.57862 10.4412 2.80761 12.2122L4.22183 13.6264ZM1 33.4046C1 27.7195 1.00212 23.5562 1.43042 20.3706C1.85485 17.2137 2.68123 15.167 4.22183 13.6264L2.80761 12.2122C0.833484 14.1863 -0.0974945 16.7254 -0.551743 20.1041C-1.00212 23.454 -1 27.776 -1 33.4046H1ZM1 65V33.4046H-1V65H1ZM4.22183 84.7782C2.68124 83.2376 1.85485 81.1909 1.43042 78.034C1.00212 74.8484 1 70.6852 1 65H-1C-1 70.6286 -1.00212 74.9507 -0.551743 78.3005C-0.0974946 81.6792 0.833484 84.2183 2.80761 86.1924L4.22183 84.7782ZM24 88C18.3149 88 14.1516 87.9979 10.966 87.5696C7.80911 87.1452 5.76242 86.3188 4.22183 84.7782L2.80761 86.1924C4.78174 88.1665 7.32084 89.0975 10.6995 89.5518C14.0494 90.0022 18.3714 90 24 90V88ZM232 88H24V90H232V88ZM251.778 84.7782C250.238 86.3188 248.191 87.1452 245.034 87.5696C241.848 87.9979 237.685 88 232 88V90C237.629 90 241.951 90.0022 245.301 89.5518C248.679 89.0975 251.218 88.1665 253.192 86.1924L251.778 84.7782ZM255 65C255 70.6852 254.998 74.8484 254.57 78.034C254.145 81.1909 253.319 83.2376 251.778 84.7782L253.192 86.1924C255.167 84.2183 256.098 81.6792 256.552 78.3005C257.002 74.9507 257 70.6286 257 65H255ZM255 33.4046V65H257V33.4046H255ZM251.778 13.6264C253.319 15.167 254.145 17.2137 254.57 20.3706C254.998 23.5562 255 27.7195 255 33.4046H257C257 27.776 257.002 23.454 256.552 20.1041C256.098 16.7254 255.167 14.1863 253.192 12.2122L251.778 13.6264ZM232 10.4046C237.685 10.4046 241.848 10.4067 245.034 10.835C248.191 11.2595 250.238 12.0858 251.778 13.6264L253.192 12.2122C251.218 10.2381 248.679 9.30712 245.301 8.85287C241.951 8.40249 237.629 8.40461 232 8.40461V10.4046ZM41.5376 10.4046H232V8.40461H41.5376V10.4046ZM37.8599 7.02441C39.0106 8.20041 39.9918 9.20327 40.8024 10.0825L42.2728 8.72675C41.4378 7.82109 40.4335 6.79491 39.2894 5.62565L37.8599 7.02441ZM34.6976 3.79262L37.8599 7.02441L39.2894 5.62565L36.1271 2.39386L34.6976 3.79262ZM34.7722 3.86144L34.7722 3.86146L36.0526 2.32502L36.0525 2.325L34.7722 3.86144ZM31.1239 1C31.4428 1 31.7969 1.116 32.3703 1.56236C32.9665 2.02656 33.6687 2.74109 34.6976 3.7926L36.1271 2.39384C35.1382 1.3832 34.327 0.551122 33.5989 -0.0157497C32.8479 -0.600459 32.0667 -1 31.1239 -1V1Z" fill="#FFFF00" mask="url(#path-1-inside-1_569_3911)"/>
<path d="M37.6412 32.3971L37.5212 33.1171C37.0262 36.0121 34.6862 38.0221 31.5962 38.0221C28.2662 38.0221 26.3612 35.4571 26.9012 32.3821C27.4262 29.3521 30.0362 27.1321 33.1262 27.1321C35.2262 27.1321 36.7112 28.1221 37.4912 29.6971L35.9162 30.5221C35.3912 29.4871 34.4762 28.8121 32.9912 28.8121C30.7562 28.8121 28.9862 30.3871 28.6112 32.5471C28.2362 34.7071 29.4212 36.3421 31.7462 36.3421C33.7262 36.3421 35.0162 35.3521 35.5712 33.9421H32.1212L32.3912 32.3971H37.6412ZM41.8428 38.0221C39.4728 38.0221 38.0178 36.1771 38.4528 33.8821C38.8728 31.6321 40.8078 30.1321 43.0278 30.1321C45.2478 30.1321 46.7028 31.9621 46.3128 34.2271C45.9078 36.5071 43.9428 38.0221 41.8428 38.0221ZM41.9628 36.4471C43.1928 36.4471 44.4378 35.5921 44.7078 34.0471C44.9778 32.5621 44.0178 31.7071 42.8028 31.7071C41.5728 31.7071 40.3428 32.5621 40.0728 34.0771C39.8178 35.5921 40.7328 36.4471 41.9628 36.4471ZM50.3758 31.8871L49.7458 35.4871C49.5808 36.4621 50.2558 36.4471 51.4558 36.3721L51.2008 37.8271C48.8608 38.1271 47.7808 37.4371 48.1258 35.4871L48.7558 31.8871H47.3758L47.6608 30.3271H49.0408L49.3258 28.7071L51.0208 28.2271L50.6458 30.3271H52.5208L52.2358 31.8871H50.3758ZM63.768 30.3271H65.388L64.068 37.8271H62.448L62.598 36.9421C61.938 37.6171 61.023 38.0221 59.853 38.0221C57.603 38.0221 56.373 36.0271 56.763 33.9121C57.168 31.6771 58.923 30.1321 61.023 30.1321C62.178 30.1321 63.063 30.6421 63.558 31.5421L63.768 30.3271ZM60.333 36.4771C61.608 36.4771 62.733 35.6221 63.063 34.3471L63.138 33.9121C63.288 32.4721 62.328 31.6771 61.113 31.6771C59.883 31.6771 58.653 32.5021 58.383 34.0321C58.143 35.4271 58.968 36.4771 60.333 36.4771ZM71.1759 30.1321C72.8559 30.1321 73.9209 31.2871 73.5909 33.2221L72.7809 37.8271H71.1609L71.9409 33.3871C72.1359 32.2321 71.6109 31.6471 70.5609 31.6471C69.5559 31.6471 68.6109 32.2171 68.3109 33.6121L67.5759 37.8271H65.9559L67.2759 30.3271H68.8959L68.7309 31.2271C69.3759 30.4771 70.2609 30.1321 71.1759 30.1321ZM78.1709 38.0221C75.8009 38.0221 74.3459 36.1771 74.7809 33.8821C75.2009 31.6321 77.1359 30.1321 79.3559 30.1321C81.5759 30.1321 83.0309 31.9621 82.6409 34.2271C82.2359 36.5071 80.2709 38.0221 78.1709 38.0221ZM78.2909 36.4471C79.5209 36.4471 80.7659 35.5921 81.0359 34.0471C81.3059 32.5621 80.3459 31.7071 79.1309 31.7071C77.9009 31.7071 76.6709 32.5621 76.4009 34.0771C76.1459 35.5921 77.0609 36.4471 78.2909 36.4471ZM86.7039 31.8871L86.0739 35.4871C85.9089 36.4621 86.5839 36.4471 87.7839 36.3721L87.5289 37.8271C85.1889 38.1271 84.1089 37.4371 84.4539 35.4871L85.0839 31.8871H83.7039L83.9889 30.3271H85.3689L85.6539 28.7071L87.3489 28.2271L86.9739 30.3271H88.8489L88.5639 31.8871H86.7039ZM94.2179 30.1321C95.8979 30.1321 96.9629 31.2871 96.6329 33.2221L95.8229 37.8271H94.2029L94.9829 33.3871C95.1779 32.2321 94.6529 31.6471 93.6029 31.6471C92.5829 31.6471 91.6379 32.2171 91.3529 33.6571L90.6179 37.8271H88.9979L90.8429 27.3271H92.4629L91.7729 31.2271C92.4179 30.4771 93.3029 30.1321 94.2179 30.1321ZM102.278 30.1321C104.528 30.1321 105.938 31.9021 105.518 34.0921C105.488 34.2121 105.413 34.5421 105.338 34.7671H99.3679C99.3979 35.9671 100.253 36.5371 101.393 36.5371C102.278 36.5371 103.013 36.1921 103.508 35.5921L104.693 36.4921C103.883 37.4971 102.638 38.0221 101.258 38.0221C98.7979 38.0221 97.4329 36.1921 97.8079 33.9271C98.1829 31.7371 100.058 30.1321 102.278 30.1321ZM99.5929 33.4321H103.988C104.003 32.1421 103.208 31.6021 102.173 31.6021C100.988 31.6021 100.028 32.2921 99.5929 33.4321ZM108.984 31.4521C109.629 30.5071 110.559 30.1621 111.519 30.1921L111.204 31.9471C110.214 31.8721 108.924 32.3071 108.564 33.8521L107.859 37.8271H106.239L107.559 30.3271H109.179L108.984 31.4521ZM122.946 28.9771H118.521L117.996 31.9171H122.271L121.986 33.5671H117.711L116.961 37.8271H115.236L117.081 27.3271H123.231L122.946 28.9771ZM122.909 37.8271L123.719 33.1921L124.829 26.8771H126.449L125.324 33.2371L124.529 37.8271H122.909ZM132.71 30.3271H134.51L130.265 38.0671C129.14 40.1521 127.76 40.9321 126.125 40.8271L126.395 39.3121C127.415 39.3721 128 38.8921 128.57 37.8721L128.705 37.6621L126.86 30.3271H128.525L129.815 35.8321L132.71 30.3271ZM136.528 29.2021C135.943 29.2021 135.583 28.7221 135.673 28.1671C135.763 27.6121 136.288 27.1321 136.873 27.1321C137.458 27.1321 137.848 27.5971 137.743 28.1671C137.653 28.7221 137.143 29.2021 136.528 29.2021ZM134.203 37.8271L135.523 30.3271H137.143L135.823 37.8271H134.203ZM142.924 30.1321C144.604 30.1321 145.669 31.2871 145.339 33.2221L144.529 37.8271H142.909L143.689 33.3871C143.884 32.2321 143.359 31.6471 142.309 31.6471C141.304 31.6471 140.359 32.2171 140.059 33.6121L139.324 37.8271H137.704L139.024 30.3271H140.644L140.479 31.2271C141.124 30.4771 142.009 30.1321 142.924 30.1321ZM153.564 30.3271H155.154L153.894 37.4821C153.459 39.9721 151.674 41.0221 149.574 41.0221C147.954 41.0221 146.709 40.3921 146.169 39.2071L147.624 38.4571C147.894 39.0721 148.494 39.5521 149.679 39.5521C151.134 39.5521 152.064 38.8171 152.304 37.4821L152.439 36.7021C151.779 37.4221 150.864 37.8721 149.724 37.8721C147.369 37.8721 146.184 35.9671 146.529 33.8371C146.874 31.7221 148.629 30.1321 150.729 30.1321C151.914 30.1321 152.859 30.6571 153.339 31.5871L153.564 30.3271ZM150.144 36.3421C151.479 36.3421 152.649 35.4271 152.904 34.0471C153.189 32.5321 152.154 31.6621 150.894 31.6621C149.634 31.6621 148.374 32.5321 148.149 33.9571C147.924 35.3371 148.749 36.3421 150.144 36.3421ZM161.797 37.8271L160.672 27.3271H162.397L163.177 35.5621L167.002 27.3271H168.592L169.537 35.5621L173.197 27.3271H175.057L170.242 37.8271H168.247L167.362 30.1621L163.792 37.8271H161.797ZM176.489 29.2021C175.904 29.2021 175.544 28.7221 175.634 28.1671C175.724 27.6121 176.249 27.1321 176.834 27.1321C177.419 27.1321 177.809 27.5971 177.704 28.1671C177.614 28.7221 177.104 29.2021 176.489 29.2021ZM174.164 37.8271L175.484 30.3271H177.104L175.784 37.8271H174.164ZM180.426 38.0221C178.866 38.0221 177.906 37.3171 177.486 36.2071L178.941 35.4571C179.121 36.0871 179.676 36.5371 180.561 36.5371C181.311 36.5371 181.821 36.2671 181.911 35.7421C182.151 34.3621 177.906 35.1121 178.416 32.2621C178.656 30.9121 179.976 30.1321 181.371 30.1321C182.661 30.1321 183.621 30.7171 184.071 31.6921L182.616 32.4271C182.436 31.8721 181.911 31.5871 181.281 31.5871C180.741 31.5871 180.141 31.8271 180.036 32.3971C179.766 33.8521 184.041 32.9671 183.531 35.8921C183.276 37.3171 182.016 38.0221 180.426 38.0221ZM189.916 30.1321C191.596 30.1321 192.661 31.2871 192.331 33.2221L191.521 37.8271H189.901L190.681 33.3871C190.876 32.2321 190.351 31.6471 189.301 31.6471C188.281 31.6471 187.336 32.2171 187.051 33.6571L186.316 37.8271H184.696L186.541 27.3271H188.161L187.471 31.2271C188.116 30.4771 189.001 30.1321 189.916 30.1321ZM195.276 34.5271C195.666 32.1721 198.381 31.7521 198.666 30.1171C198.816 29.2471 198.231 28.8121 197.361 28.8121C196.401 28.8121 195.651 29.3221 195.201 30.2371L193.776 29.3521C194.541 27.8821 196.041 27.1321 197.601 27.1321C199.296 27.1321 200.751 28.2421 200.406 30.1321C200.001 32.4121 197.271 32.9071 197.001 34.5271H195.276ZM195.516 38.0071C194.901 38.0071 194.496 37.4821 194.601 36.8521C194.706 36.2371 195.246 35.7571 195.921 35.7571C196.536 35.7571 196.956 36.2821 196.851 36.8971C196.731 37.5271 196.221 38.0071 195.516 38.0071ZM213.244 30.3121C213.109 31.2271 212.569 31.9621 211.819 32.4271C212.569 32.9071 213.004 33.7621 212.839 34.9021C212.614 36.5371 211.249 37.8271 209.104 37.8271H204.679L206.524 27.3271H210.514C212.254 27.3271 213.499 28.6021 213.244 30.3121ZM210.334 28.9471H207.964L207.484 31.7071H209.884C210.679 31.7071 211.369 31.1071 211.519 30.3271C211.654 29.5771 211.204 28.9471 210.334 28.9471ZM211.144 34.7371C211.294 33.9121 210.799 33.2671 209.944 33.2671H207.199L206.689 36.2071H209.374C210.274 36.2071 211.009 35.5471 211.144 34.7371ZM220.221 30.3271H221.841L220.521 37.8271H218.901L219.066 36.9271C218.421 37.6771 217.536 38.0221 216.621 38.0221C214.941 38.0221 213.876 36.8671 214.206 34.9321L215.016 30.3271H216.636L215.856 34.7671C215.661 35.9221 216.186 36.5071 217.236 36.5071C218.241 36.5071 219.186 35.9371 219.486 34.5421L220.221 30.3271ZM228.716 30.3271H230.516L226.271 38.0671C225.146 40.1521 223.766 40.9321 222.131 40.8271L222.401 39.3121C223.421 39.3721 224.006 38.8921 224.576 37.8721L224.711 37.6621L222.866 30.3271H224.531L225.821 35.8321L228.716 30.3271ZM17.5009 54.3271H19.1209L17.8009 61.8271H16.1809L16.3309 60.9421C15.6709 61.6171 14.7559 62.0221 13.5859 62.0221C11.3359 62.0221 10.1059 60.0271 10.4959 57.9121C10.9009 55.6771 12.6559 54.1321 14.7559 54.1321C15.9109 54.1321 16.7959 54.6421 17.2909 55.5421L17.5009 54.3271ZM14.0659 60.4771C15.3409 60.4771 16.4659 59.6221 16.7959 58.3471L16.8709 57.9121C17.0209 56.4721 16.0609 55.6771 14.8459 55.6771C13.6159 55.6771 12.3859 56.5021 12.1159 58.0321C11.8759 59.4271 12.7009 60.4771 14.0659 60.4771ZM24.9088 54.1321C26.5888 54.1321 27.6538 55.2871 27.3238 57.2221L26.5138 61.8271H24.8938L25.6738 57.3871C25.8688 56.2321 25.3438 55.6471 24.2938 55.6471C23.2888 55.6471 22.3438 56.2171 22.0438 57.6121L21.3088 61.8271H19.6888L21.0088 54.3271H22.6288L22.4638 55.2271C23.1088 54.4771 23.9938 54.1321 24.9088 54.1321ZM31.9038 62.0221C29.5338 62.0221 28.0788 60.1771 28.5138 57.8821C28.9338 55.6321 30.8688 54.1321 33.0888 54.1321C35.3088 54.1321 36.7638 55.9621 36.3738 58.2271C35.9688 60.5071 34.0038 62.0221 31.9038 62.0221ZM32.0238 60.4471C33.2538 60.4471 34.4988 59.5921 34.7688 58.0471C35.0388 56.5621 34.0788 55.7071 32.8638 55.7071C31.6338 55.7071 30.4038 56.5621 30.1338 58.0771C29.8788 59.5921 30.7938 60.4471 32.0238 60.4471ZM40.4369 55.8871L39.8069 59.4871C39.6419 60.4621 40.3169 60.4471 41.5169 60.3721L41.2619 61.8271C38.9219 62.1271 37.8419 61.4371 38.1869 59.4871L38.8169 55.8871H37.4369L37.7219 54.3271H39.1019L39.3869 52.7071L41.0819 52.2271L40.7069 54.3271H42.5819L42.2969 55.8871H40.4369ZM47.9508 54.1321C49.6308 54.1321 50.6958 55.2871 50.3658 57.2221L49.5558 61.8271H47.9358L48.7158 57.3871C48.9108 56.2321 48.3858 55.6471 47.3358 55.6471C46.3158 55.6471 45.3708 56.2171 45.0858 57.6571L44.3508 61.8271H42.7308L44.5758 51.3271H46.1958L45.5058 55.2271C46.1508 54.4771 47.0358 54.1321 47.9508 54.1321ZM56.0108 54.1321C58.2608 54.1321 59.6708 55.9021 59.2508 58.0921C59.2208 58.2121 59.1458 58.5421 59.0708 58.7671H53.1008C53.1308 59.9671 53.9858 60.5371 55.1258 60.5371C56.0108 60.5371 56.7458 60.1921 57.2408 59.5921L58.4258 60.4921C57.6158 61.4971 56.3708 62.0221 54.9908 62.0221C52.5308 62.0221 51.1658 60.1921 51.5408 57.9271C51.9158 55.7371 53.7908 54.1321 56.0108 54.1321ZM53.3258 57.4321H57.7208C57.7358 56.1421 56.9408 55.6021 55.9058 55.6021C54.7208 55.6021 53.7608 56.2921 53.3258 57.4321ZM62.717 55.4521C63.362 54.5071 64.292 54.1621 65.252 54.1921L64.937 55.9471C63.947 55.8721 62.657 56.3071 62.297 57.8521L61.592 61.8271H59.972L61.292 54.3271H62.912L62.717 55.4521ZM76.6786 52.9771H72.2536L71.7286 55.9171H76.0036L75.7186 57.5671H71.4436L70.6936 61.8271H68.9686L70.8136 51.3271H76.9636L76.6786 52.9771ZM76.6423 61.8271L77.4523 57.1921L78.5623 50.8771H80.1823L79.0573 57.2371L78.2623 61.8271H76.6423ZM86.4429 54.3271H88.2429L83.9979 62.0671C82.8729 64.1521 81.4929 64.9321 79.8579 64.8271L80.1279 63.3121C81.1479 63.3721 81.7329 62.8921 82.3029 61.8721L82.4379 61.6621L80.5929 54.3271H82.2579L83.5479 59.8321L86.4429 54.3271ZM90.2609 53.2021C89.6759 53.2021 89.3159 52.7221 89.4059 52.1671C89.4959 51.6121 90.0209 51.1321 90.6059 51.1321C91.1909 51.1321 91.5809 51.5971 91.4759 52.1671C91.3859 52.7221 90.8759 53.2021 90.2609 53.2021ZM87.9359 61.8271L89.2559 54.3271H90.8759L89.5559 61.8271H87.9359ZM96.6569 54.1321C98.3369 54.1321 99.4019 55.2871 99.0719 57.2221L98.2619 61.8271H96.6419L97.4219 57.3871C97.6169 56.2321 97.0919 55.6471 96.0419 55.6471C95.0369 55.6471 94.0919 56.2171 93.7919 57.6121L93.0569 61.8271H91.4369L92.7569 54.3271H94.3769L94.2119 55.2271C94.8569 54.4771 95.7419 54.1321 96.6569 54.1321ZM107.297 54.3271H108.887L107.627 61.4821C107.192 63.9721 105.407 65.0221 103.307 65.0221C101.687 65.0221 100.442 64.3921 99.9019 63.2071L101.357 62.4571C101.627 63.0721 102.227 63.5521 103.412 63.5521C104.867 63.5521 105.797 62.8171 106.037 61.4821L106.172 60.7021C105.512 61.4221 104.597 61.8721 103.457 61.8721C101.102 61.8721 99.9169 59.9671 100.262 57.8371C100.607 55.7221 102.362 54.1321 104.462 54.1321C105.647 54.1321 106.592 54.6571 107.072 55.5871L107.297 54.3271ZM103.877 60.3421C105.212 60.3421 106.382 59.4271 106.637 58.0471C106.922 56.5321 105.887 55.6621 104.627 55.6621C103.367 55.6621 102.107 56.5321 101.882 57.9571C101.657 59.3371 102.482 60.3421 103.877 60.3421ZM121.019 52.9771H116.594L116.069 55.9171H120.344L120.059 57.5671H115.784L115.034 61.8271H113.309L115.154 51.3271H121.304L121.019 52.9771ZM123.293 53.2021C122.708 53.2021 122.348 52.7221 122.438 52.1671C122.528 51.6121 123.053 51.1321 123.638 51.1321C124.223 51.1321 124.613 51.5971 124.508 52.1671C124.418 52.7221 123.908 53.2021 123.293 53.2021ZM120.968 61.8271L122.288 54.3271H123.908L122.588 61.8271H120.968ZM127.23 62.0221C125.67 62.0221 124.71 61.3171 124.29 60.2071L125.745 59.4571C125.925 60.0871 126.48 60.5371 127.365 60.5371C128.115 60.5371 128.625 60.2671 128.715 59.7421C128.955 58.3621 124.71 59.1121 125.22 56.2621C125.46 54.9121 126.78 54.1321 128.175 54.1321C129.465 54.1321 130.425 54.7171 130.875 55.6921L129.42 56.4271C129.24 55.8721 128.715 55.5871 128.085 55.5871C127.545 55.5871 126.945 55.8271 126.84 56.3971C126.57 57.8521 130.845 56.9671 130.335 59.8921C130.08 61.3171 128.82 62.0221 127.23 62.0221ZM136.72 54.1321C138.4 54.1321 139.465 55.2871 139.135 57.2221L138.325 61.8271H136.705L137.485 57.3871C137.68 56.2321 137.155 55.6471 136.105 55.6471C135.085 55.6471 134.14 56.2171 133.855 57.6571L133.12 61.8271H131.5L133.345 51.3271H134.965L134.275 55.2271C134.92 54.4771 135.805 54.1321 136.72 54.1321ZM147.165 55.8871L146.535 59.4871C146.37 60.4621 147.045 60.4471 148.245 60.3721L147.99 61.8271C145.65 62.1271 144.57 61.4371 144.915 59.4871L145.545 55.8871H144.165L144.45 54.3271H145.83L146.115 52.7071L147.81 52.2271L147.435 54.3271H149.31L149.025 55.8871H147.165ZM152.827 62.0221C150.457 62.0221 149.002 60.1771 149.437 57.8821C149.857 55.6321 151.792 54.1321 154.012 54.1321C156.232 54.1321 157.687 55.9621 157.297 58.2271C156.892 60.5071 154.927 62.0221 152.827 62.0221ZM152.947 60.4471C154.177 60.4471 155.422 59.5921 155.692 58.0471C155.962 56.5621 155.002 55.7071 153.787 55.7071C152.557 55.7071 151.327 56.5621 151.057 58.0771C150.802 59.5921 151.717 60.4471 152.947 60.4471ZM166.621 54.1321C168.871 54.1321 170.281 55.9021 169.861 58.0921C169.831 58.2121 169.756 58.5421 169.681 58.7671H163.711C163.741 59.9671 164.596 60.5371 165.736 60.5371C166.621 60.5371 167.356 60.1921 167.851 59.5921L169.036 60.4921C168.226 61.4971 166.981 62.0221 165.601 62.0221C163.141 62.0221 161.776 60.1921 162.151 57.9271C162.526 55.7371 164.401 54.1321 166.621 54.1321ZM163.936 57.4321H168.331C168.346 56.1421 167.551 55.6021 166.516 55.6021C165.331 55.6021 164.371 56.2921 163.936 57.4321ZM175.802 54.1321C177.482 54.1321 178.547 55.2871 178.217 57.2221L177.407 61.8271H175.787L176.567 57.3871C176.762 56.2321 176.237 55.6471 175.187 55.6471C174.182 55.6471 173.237 56.2171 172.937 57.6121L172.202 61.8271H170.582L171.902 54.3271H173.522L173.357 55.2271C174.002 54.4771 174.887 54.1321 175.802 54.1321ZM182.497 55.8871L181.867 59.4871C181.702 60.4621 182.377 60.4471 183.577 60.3721L183.322 61.8271C180.982 62.1271 179.902 61.4371 180.247 59.4871L180.877 55.8871H179.497L179.782 54.3271H181.162L181.447 52.7071L183.142 52.2271L182.767 54.3271H184.642L184.357 55.8871H182.497ZM189.224 54.1321C191.474 54.1321 192.884 55.9021 192.464 58.0921C192.434 58.2121 192.359 58.5421 192.284 58.7671H186.314C186.344 59.9671 187.199 60.5371 188.339 60.5371C189.224 60.5371 189.959 60.1921 190.454 59.5921L191.639 60.4921C190.829 61.4971 189.584 62.0221 188.204 62.0221C185.744 62.0221 184.379 60.1921 184.754 57.9271C185.129 55.7371 187.004 54.1321 189.224 54.1321ZM186.539 57.4321H190.934C190.949 56.1421 190.154 55.6021 189.119 55.6021C187.934 55.6021 186.974 56.2921 186.539 57.4321ZM195.93 55.4521C196.575 54.5071 197.505 54.1621 198.465 54.1921L198.15 55.9471C197.16 55.8721 195.87 56.3071 195.51 57.8521L194.805 61.8271H193.185L194.505 54.3271H196.125L195.93 55.4521ZM209.352 54.3271H210.972L209.652 61.8271H208.032L208.182 60.9421C207.522 61.6171 206.607 62.0221 205.437 62.0221C203.187 62.0221 201.957 60.0271 202.347 57.9121C202.752 55.6771 204.507 54.1321 206.607 54.1321C207.762 54.1321 208.647 54.6421 209.142 55.5421L209.352 54.3271ZM205.917 60.4771C207.192 60.4771 208.317 59.6221 208.647 58.3471L208.722 57.9121C208.872 56.4721 207.912 55.6771 206.697 55.6771C205.467 55.6771 204.237 56.5021 203.967 58.0321C203.727 59.4271 204.552 60.4771 205.917 60.4771ZM218.859 54.3271H220.449L219.189 61.4821C218.754 63.9721 216.969 65.0221 214.869 65.0221C213.249 65.0221 212.004 64.3921 211.464 63.2071L212.919 62.4571C213.189 63.0721 213.789 63.5521 214.974 63.5521C216.429 63.5521 217.359 62.8171 217.599 61.4821L217.734 60.7021C217.074 61.4221 216.159 61.8721 215.019 61.8721C212.664 61.8721 211.479 59.9671 211.824 57.8371C212.169 55.7221 213.924 54.1321 216.024 54.1321C217.209 54.1321 218.154 54.6571 218.634 55.5871L218.859 54.3271ZM215.439 60.3421C216.774 60.3421 217.944 59.4271 218.199 58.0471C218.484 56.5321 217.449 55.6621 216.189 55.6621C214.929 55.6621 213.669 56.5321 213.444 57.9571C213.219 59.3371 214.044 60.3421 215.439 60.3421ZM228.292 54.3271H229.912L228.592 61.8271H226.972L227.122 60.9421C226.462 61.6171 225.547 62.0221 224.377 62.0221C222.127 62.0221 220.897 60.0271 221.287 57.9121C221.692 55.6771 223.447 54.1321 225.547 54.1321C226.702 54.1321 227.587 54.6421 228.082 55.5421L228.292 54.3271ZM224.857 60.4771C226.132 60.4771 227.257 59.6221 227.587 58.3471L227.662 57.9121C227.812 56.4721 226.852 55.6771 225.637 55.6771C224.407 55.6771 223.177 56.5021 222.907 58.0321C222.667 59.4271 223.492 60.4771 224.857 60.4771ZM232.805 53.2021C232.22 53.2021 231.86 52.7221 231.95 52.1671C232.04 51.6121 232.565 51.1321 233.15 51.1321C233.735 51.1321 234.125 51.5971 234.02 52.1671C233.93 52.7221 233.42 53.2021 232.805 53.2021ZM230.48 61.8271L231.8 54.3271H233.42L232.1 61.8271H230.48ZM239.201 54.1321C240.881 54.1321 241.946 55.2871 241.616 57.2221L240.806 61.8271H239.186L239.966 57.3871C240.161 56.2321 239.636 55.6471 238.586 55.6471C237.581 55.6471 236.636 56.2171 236.336 57.6121L235.601 61.8271H233.981L235.301 54.3271H236.921L236.756 55.2271C237.401 54.4771 238.286 54.1321 239.201 54.1321ZM243.436 58.5271L243.841 54.3271L244.366 51.3271H246.316L245.791 54.3271L244.711 58.5271H243.436ZM243.451 62.0071C242.836 62.0071 242.431 61.4821 242.536 60.8521C242.641 60.2371 243.181 59.7571 243.856 59.7571C244.471 59.7571 244.891 60.2821 244.786 60.8971C244.666 61.5271 244.156 62.0071 243.451 62.0071Z" fill="white"/>
</svg>
