<svg width="256" height="128" viewBox="0 0 256 128" fill="none" xmlns="http://www.w3.org/2000/svg">
<mask id="path-1-inside-1_569_3850" fill="white">
<path fill-rule="evenodd" clip-rule="evenodd" d="M31.1239 0.151611C29.7336 0.151611 28.671 1.40578 26.5459 3.91411L22.0653 9.20278C21.0863 10.3584 20.2398 11.3575 19.5419 12.2347C11.1337 12.2947 6.53386 12.7204 3.51472 15.7396C0 19.2543 0 24.9111 0 36.2248V104C0 115.314 0 120.971 3.51472 124.485C7.02944 128 12.6863 128 24 128H232C243.314 128 248.971 128 252.485 124.485C256 120.971 256 115.314 256 104V36.2248C256 24.9111 256 19.2543 252.485 15.7396C248.971 12.2248 243.314 12.2248 232 12.2248H42.698C42.0016 11.35 41.1578 10.354 40.1824 9.20278L35.7018 3.91411C33.5767 1.40578 32.5141 0.151611 31.1239 0.151611Z"/>
</mask>
<path fill-rule="evenodd" clip-rule="evenodd" d="M31.1239 0.151611C29.7336 0.151611 28.671 1.40578 26.5459 3.91411L22.0653 9.20278C21.0863 10.3584 20.2398 11.3575 19.5419 12.2347C11.1337 12.2947 6.53386 12.7204 3.51472 15.7396C0 19.2543 0 24.9111 0 36.2248V104C0 115.314 0 120.971 3.51472 124.485C7.02944 128 12.6863 128 24 128H232C243.314 128 248.971 128 252.485 124.485C256 120.971 256 115.314 256 104V36.2248C256 24.9111 256 19.2543 252.485 15.7396C248.971 12.2248 243.314 12.2248 232 12.2248H42.698C42.0016 11.35 41.1578 10.354 40.1824 9.20278L35.7018 3.91411C33.5767 1.40578 32.5141 0.151611 31.1239 0.151611Z" fill="#0A3085" fill-opacity="0.6"/>
<path d="M26.5459 3.91411L27.3089 4.56052L26.5459 3.91411ZM22.0653 9.20278L21.3023 8.55637V8.55637L22.0653 9.20278ZM19.5419 12.2347L19.549 13.2347L20.0269 13.2313L20.3244 12.8573L19.5419 12.2347ZM3.51472 15.7396L4.22183 16.4467L3.51472 15.7396ZM252.485 124.485L251.778 123.778L252.485 124.485ZM252.485 15.7396L251.778 16.4467L252.485 15.7396ZM42.698 12.2248L41.9157 12.8477L42.2159 13.2248H42.698V12.2248ZM40.1824 9.20278L40.9454 8.55637V8.55637L40.1824 9.20278ZM35.7018 3.91411L34.9388 4.56053L35.7018 3.91411ZM27.3089 4.56052C28.3912 3.28304 29.1354 2.40832 29.775 1.83945C30.3938 1.28916 30.778 1.15161 31.1239 1.15161V-0.848389C30.0795 -0.848389 29.2373 -0.358858 28.4459 0.345019C27.6754 1.03032 26.8258 2.03684 25.783 3.2677L27.3089 4.56052ZM22.8283 9.8492L27.3089 4.56052L25.783 3.2677L21.3023 8.55637L22.8283 9.8492ZM20.3244 12.8573C21.0107 11.9947 21.8461 11.0085 22.8283 9.8492L21.3023 8.55637C20.3264 9.70823 19.4689 10.7203 18.7593 11.6121L20.3244 12.8573ZM4.22183 16.4467C5.54739 15.1211 7.24501 14.3266 9.69458 13.8598C12.1724 13.3876 15.3395 13.2647 19.549 13.2347L19.5347 11.2347C15.336 11.2647 11.9991 11.3846 9.3202 11.8951C6.61304 12.411 4.50119 13.3389 2.80761 15.0325L4.22183 16.4467ZM1 36.2248C1 30.5397 1.00212 26.3765 1.43042 23.1908C1.85485 20.0339 2.68124 17.9873 4.22183 16.4467L2.80761 15.0325C0.833483 17.0066 -0.0974946 19.5457 -0.551743 22.9243C-1.00212 26.2742 -1 30.5963 -1 36.2248H1ZM1 104V36.2248H-1V104H1ZM4.22183 123.778C2.68124 122.238 1.85485 120.191 1.43042 117.034C1.00212 113.848 1 109.685 1 104H-1C-1 109.629 -1.00212 113.951 -0.551743 117.301C-0.0974946 120.679 0.833484 123.218 2.80761 125.192L4.22183 123.778ZM24 127C18.3149 127 14.1516 126.998 10.966 126.57C7.80911 126.145 5.76242 125.319 4.22183 123.778L2.80761 125.192C4.78174 127.167 7.32084 128.097 10.6995 128.552C14.0494 129.002 18.3714 129 24 129V127ZM232 127H24V129H232V127ZM251.778 123.778C250.238 125.319 248.191 126.145 245.034 126.57C241.848 126.998 237.685 127 232 127V129C237.629 129 241.951 129.002 245.301 128.552C248.679 128.097 251.218 127.167 253.192 125.192L251.778 123.778ZM255 104C255 109.685 254.998 113.848 254.57 117.034C254.145 120.191 253.319 122.238 251.778 123.778L253.192 125.192C255.167 123.218 256.098 120.679 256.552 117.301C257.002 113.951 257 109.629 257 104H255ZM255 36.2248V104H257V36.2248H255ZM251.778 16.4467C253.319 17.9873 254.145 20.0339 254.57 23.1908C254.998 26.3765 255 30.5397 255 36.2248H257C257 30.5963 257.002 26.2742 256.552 22.9243C256.098 19.5457 255.167 17.0066 253.192 15.0325L251.778 16.4467ZM232 13.2248C237.685 13.2248 241.848 13.227 245.034 13.6553C248.191 14.0797 250.238 14.9061 251.778 16.4467L253.192 15.0325C251.218 13.0583 248.679 12.1273 245.301 11.6731C241.951 11.2227 237.629 11.2248 232 11.2248V13.2248ZM42.698 13.2248H232V11.2248H42.698V13.2248ZM39.4194 9.8492C40.3979 11.0041 41.2308 11.9873 41.9157 12.8477L43.4804 11.602C42.7724 10.7127 41.9177 9.70395 40.9454 8.55637L39.4194 9.8492ZM34.9388 4.56053L39.4194 9.8492L40.9454 8.55637L36.4648 3.2677L34.9388 4.56053ZM31.1239 1.15161C31.4697 1.15161 31.854 1.28916 32.4727 1.83945C33.1123 2.40832 33.8565 3.28304 34.9388 4.56053L36.4648 3.2677C35.422 2.03684 34.5724 1.03032 33.8018 0.345019C33.0104 -0.358858 32.1683 -0.848389 31.1239 -0.848389V1.15161Z" fill="#FFFF00" mask="url(#path-1-inside-1_569_3850)"/>
<path d="M30.3442 30.3271L30.0592 31.9771H27.1042L25.5442 40.8271H23.8192L25.3792 31.9771H22.4092L22.6942 30.3271H30.3442ZM34.8898 33.1321C36.5698 33.1321 37.6348 34.2871 37.3048 36.2221L36.4948 40.8271H34.8748L35.6548 36.3871C35.8498 35.2321 35.3248 34.6471 34.2748 34.6471C33.2548 34.6471 32.3098 35.2171 32.0248 36.6571L31.2898 40.8271H29.6698L31.5148 30.3271H33.1348L32.4448 34.2271C33.0898 33.4771 33.9748 33.1321 34.8898 33.1321ZM45.4848 33.3271H47.1048L45.7848 40.8271H44.1648L44.3148 39.9421C43.6548 40.6171 42.7398 41.0221 41.5698 41.0221C39.3198 41.0221 38.0898 39.0271 38.4798 36.9121C38.8848 34.6771 40.6398 33.1321 42.7398 33.1321C43.8948 33.1321 44.7798 33.6421 45.2748 34.5421L45.4848 33.3271ZM42.0498 39.4771C43.3248 39.4771 44.4498 38.6221 44.7798 37.3471L44.8548 36.9121C45.0048 35.4721 44.0448 34.6771 42.8298 34.6771C41.5998 34.6771 40.3698 35.5021 40.0998 37.0321C39.8598 38.4271 40.6848 39.4771 42.0498 39.4771ZM52.8927 33.1321C54.5727 33.1321 55.6377 34.2871 55.3077 36.2221L54.4977 40.8271H52.8777L53.6577 36.3871C53.8527 35.2321 53.3277 34.6471 52.2777 34.6471C51.2727 34.6471 50.3277 35.2171 50.0277 36.6121L49.2927 40.8271H47.6727L48.9927 33.3271H50.6127L50.4477 34.2271C51.0927 33.4771 51.9777 33.1321 52.8927 33.1321ZM63.9677 33.3271L60.0527 37.0021L62.7677 40.8271H60.9677L58.4627 37.2271L57.8327 40.8271H56.2127L58.0577 30.3271H59.6777L58.5827 36.5221L61.9877 33.3271H63.9677ZM66.1369 41.0221C64.5769 41.0221 63.6169 40.3171 63.1969 39.2071L64.6519 38.4571C64.8319 39.0871 65.3869 39.5371 66.2719 39.5371C67.0219 39.5371 67.5319 39.2671 67.6219 38.7421C67.8619 37.3621 63.6169 38.1121 64.1269 35.2621C64.3669 33.9121 65.6869 33.1321 67.0819 33.1321C68.3719 33.1321 69.3319 33.7171 69.7819 34.6921L68.3269 35.4271C68.1469 34.8721 67.6219 34.5871 66.9919 34.5871C66.4519 34.5871 65.8519 34.8271 65.7469 35.3971C65.4769 36.8521 69.7519 35.9671 69.2419 38.8921C68.9869 40.3171 67.7269 41.0221 66.1369 41.0221ZM76.0471 33.1771C76.4071 31.0771 77.7421 29.9821 79.9771 30.1321L79.7071 31.6921C78.6121 31.5871 77.8621 32.0221 77.6671 33.1771L77.6371 33.3271H79.4071L79.1371 34.8871H77.3671L76.3171 40.8271H74.6971L75.7471 34.8871H74.6071L74.8771 33.3271H76.0171L76.0471 33.1771ZM82.3438 41.0221C79.9738 41.0221 78.5188 39.1771 78.9538 36.8821C79.3738 34.6321 81.3088 33.1321 83.5288 33.1321C85.7488 33.1321 87.2038 34.9621 86.8138 37.2271C86.4088 39.5071 84.4438 41.0221 82.3438 41.0221ZM82.4638 39.4471C83.6938 39.4471 84.9388 38.5921 85.2088 37.0471C85.4788 35.5621 84.5188 34.7071 83.3038 34.7071C82.0738 34.7071 80.8438 35.5621 80.5738 37.0771C80.3188 38.5921 81.2338 39.4471 82.4638 39.4471ZM90.3933 34.4521C91.0383 33.5071 91.9683 33.1621 92.9283 33.1921L92.6133 34.9471C91.6233 34.8721 90.3333 35.3071 89.9733 36.8521L89.2683 40.8271H87.6483L88.9683 33.3271H90.5883L90.3933 34.4521ZM102.84 33.3271H104.64L100.395 41.0671C99.2699 43.1521 97.8899 43.9321 96.2549 43.8271L96.5249 42.3121C97.5449 42.3721 98.1299 41.8921 98.6999 40.8721L98.8349 40.6621L96.9899 33.3271H98.6549L99.9449 38.8321L102.84 33.3271ZM107.715 41.0221C105.345 41.0221 103.89 39.1771 104.325 36.8821C104.745 34.6321 106.68 33.1321 108.9 33.1321C111.12 33.1321 112.575 34.9621 112.185 37.2271C111.78 39.5071 109.815 41.0221 107.715 41.0221ZM107.835 39.4471C109.065 39.4471 110.31 38.5921 110.58 37.0471C110.85 35.5621 109.89 34.7071 108.675 34.7071C107.445 34.7071 106.215 35.5621 105.945 37.0771C105.69 38.5921 106.605 39.4471 107.835 39.4471ZM119.364 33.3271H120.984L119.664 40.8271H118.044L118.209 39.9271C117.564 40.6771 116.679 41.0221 115.764 41.0221C114.084 41.0221 113.019 39.8671 113.349 37.9321L114.159 33.3271H115.779L114.999 37.7671C114.804 38.9221 115.329 39.5071 116.379 39.5071C117.384 39.5071 118.329 38.9371 118.629 37.5421L119.364 33.3271ZM124.304 34.4521C124.949 33.5071 125.879 33.1621 126.839 33.1921L126.524 34.9471C125.534 34.8721 124.244 35.3071 123.884 36.8521L123.179 40.8271H121.559L122.879 33.3271H124.499L124.304 34.4521ZM140.381 33.3271H142.151L138.476 40.8271H136.886L136.211 35.7721L133.826 40.8271H132.161L131.126 33.3271H132.746L133.346 38.5021L135.776 33.3271H137.366L137.351 33.3571L138.041 38.5021L140.381 33.3271ZM144.407 32.2021C143.822 32.2021 143.462 31.7221 143.552 31.1671C143.642 30.6121 144.167 30.1321 144.752 30.1321C145.337 30.1321 145.727 30.5971 145.622 31.1671C145.532 31.7221 145.022 32.2021 144.407 32.2021ZM142.082 40.8271L143.402 33.3271H145.022L143.702 40.8271H142.082ZM148.344 41.0221C146.784 41.0221 145.824 40.3171 145.404 39.2071L146.859 38.4571C147.039 39.0871 147.594 39.5371 148.479 39.5371C149.229 39.5371 149.739 39.2671 149.829 38.7421C150.069 37.3621 145.824 38.1121 146.334 35.2621C146.574 33.9121 147.894 33.1321 149.289 33.1321C150.579 33.1321 151.539 33.7171 151.989 34.6921L150.534 35.4271C150.354 34.8721 149.829 34.5871 149.199 34.5871C148.659 34.5871 148.059 34.8271 147.954 35.3971C147.684 36.8521 151.959 35.9671 151.449 38.8921C151.194 40.3171 149.934 41.0221 148.344 41.0221ZM157.834 33.1321C159.514 33.1321 160.579 34.2871 160.249 36.2221L159.439 40.8271H157.819L158.599 36.3871C158.794 35.2321 158.269 34.6471 157.219 34.6471C156.199 34.6471 155.254 35.2171 154.969 36.6571L154.234 40.8271H152.614L154.459 30.3271H156.079L155.389 34.2271C156.034 33.4771 156.919 33.1321 157.834 33.1321ZM163.719 39.0271L161.979 42.9271H160.614L161.919 39.0271H163.719ZM170.824 30.3271H172.549L170.704 40.8271H168.979L170.824 30.3271ZM176.807 30.3271L175.067 34.2271H173.702L175.007 30.3271H176.807ZM176.696 40.8271L177.506 36.1921L178.616 29.8771H180.236L179.111 36.2371L178.316 40.8271H176.696ZM180.212 40.8271L181.022 36.1921L182.132 29.8771H183.752L182.627 36.2371L181.832 40.8271H180.212ZM187.478 40.8271L188.288 36.1921L189.398 29.8771H191.018L189.893 36.2371L189.098 40.8271H187.478ZM195.718 33.1321C197.968 33.1321 199.378 34.9021 198.958 37.0921C198.928 37.2121 198.853 37.5421 198.778 37.7671H192.808C192.838 38.9671 193.693 39.5371 194.833 39.5371C195.718 39.5371 196.453 39.1921 196.948 38.5921L198.133 39.4921C197.323 40.4971 196.078 41.0221 194.698 41.0221C192.238 41.0221 190.873 39.1921 191.248 36.9271C191.623 34.7371 193.498 33.1321 195.718 33.1321ZM193.033 36.4321H197.428C197.443 35.1421 196.648 34.6021 195.613 34.6021C194.428 34.6021 193.468 35.2921 193.033 36.4321ZM202.864 34.8871L202.234 38.4871C202.069 39.4621 202.744 39.4471 203.944 39.3721L203.689 40.8271C201.349 41.1271 200.269 40.4371 200.614 38.4871L201.244 34.8871H199.864L200.149 33.3271H201.529L201.814 31.7071L203.509 31.2271L203.134 33.3271H205.009L204.724 34.8871H202.864ZM215.281 33.3271H217.081L212.836 41.0671C211.711 43.1521 210.331 43.9321 208.696 43.8271L208.966 42.3121C209.986 42.3721 210.571 41.8921 211.141 40.8721L211.276 40.6621L209.431 33.3271H211.096L212.386 38.8321L215.281 33.3271ZM220.156 41.0221C217.786 41.0221 216.331 39.1771 216.766 36.8821C217.186 34.6321 219.121 33.1321 221.341 33.1321C223.561 33.1321 225.016 34.9621 224.626 37.2271C224.221 39.5071 222.256 41.0221 220.156 41.0221ZM220.276 39.4471C221.506 39.4471 222.751 38.5921 223.021 37.0471C223.291 35.5621 222.331 34.7071 221.116 34.7071C219.886 34.7071 218.656 35.5621 218.386 37.0771C218.131 38.5921 219.046 39.4471 220.276 39.4471ZM231.806 33.3271H233.426L232.106 40.8271H230.486L230.651 39.9271C230.006 40.6771 229.121 41.0221 228.206 41.0221C226.526 41.0221 225.461 39.8671 225.791 37.9321L226.601 33.3271H228.221L227.441 37.7671C227.246 38.9221 227.771 39.5071 228.821 39.5071C229.826 39.5071 230.771 38.9371 231.071 37.5421L231.806 33.3271ZM23.6626 57.3271L19.7476 61.0021L22.4626 64.8271H20.6626L18.1576 61.2271L17.5276 64.8271H15.9076L17.7526 54.3271H19.3726L18.2776 60.5221L21.6826 57.3271H23.6626ZM28.774 57.1321C30.454 57.1321 31.519 58.2871 31.189 60.2221L30.379 64.8271H28.759L29.539 60.3871C29.734 59.2321 29.209 58.6471 28.159 58.6471C27.154 58.6471 26.209 59.2171 25.909 60.6121L25.174 64.8271H23.554L24.874 57.3271H26.494L26.329 58.2271C26.974 57.4771 27.859 57.1321 28.774 57.1321ZM35.7691 65.0221C33.3991 65.0221 31.9441 63.1771 32.3791 60.8821C32.7991 58.6321 34.7341 57.1321 36.9541 57.1321C39.1741 57.1321 40.6291 58.9621 40.2391 61.2271C39.8341 63.5071 37.8691 65.0221 35.7691 65.0221ZM35.8891 63.4471C37.1191 63.4471 38.3641 62.5921 38.6341 61.0471C38.9041 59.5621 37.9441 58.7071 36.7291 58.7071C35.4991 58.7071 34.2691 59.5621 33.9991 61.0771C33.7441 62.5921 34.6591 63.4471 35.8891 63.4471ZM50.5788 57.3271H52.3488L48.6738 64.8271H47.0838L46.4088 59.7721L44.0238 64.8271H42.3588L41.3238 57.3271H42.9438L43.5438 62.5021L45.9738 57.3271H47.5638L47.5488 57.3571L48.2388 62.5021L50.5788 57.3271ZM58.3546 56.2021C57.7696 56.2021 57.4096 55.7221 57.4996 55.1671C57.5896 54.6121 58.1146 54.1321 58.6996 54.1321C59.2846 54.1321 59.6746 54.5971 59.5696 55.1671C59.4796 55.7221 58.9696 56.2021 58.3546 56.2021ZM56.0296 64.8271L57.3496 57.3271H58.9696L57.6496 64.8271H56.0296ZM61.4206 57.1771C61.7806 55.0771 63.1156 53.9821 65.3506 54.1321L65.0806 55.6921C63.9856 55.5871 63.2356 56.0221 63.0406 57.1771L63.0106 57.3271H64.7806L64.5106 58.8871H62.7406L61.6906 64.8271H60.0706L61.1206 58.8871H59.9806L60.2506 57.3271H61.3906L61.4206 57.1771ZM70.4982 56.2021C69.9132 56.2021 69.5532 55.7221 69.6432 55.1671C69.7332 54.6121 70.2582 54.1321 70.8432 54.1321C71.4282 54.1321 71.8182 54.5971 71.7132 55.1671C71.6232 55.7221 71.1132 56.2021 70.4982 56.2021ZM68.1732 64.8271L69.4932 57.3271H71.1132L69.7932 64.8271H68.1732ZM75.0492 58.8871L74.4192 62.4871C74.2542 63.4621 74.9292 63.4471 76.1292 63.3721L75.8742 64.8271C73.5342 65.1271 72.4542 64.4371 72.7992 62.4871L73.4292 58.8871H72.0492L72.3342 57.3271H73.7142L73.9992 55.7071L75.6942 55.2271L75.3192 57.3271H77.1942L76.9092 58.8871H75.0492ZM81.6728 54.3271L79.9328 58.2271H78.5678L79.8728 54.3271H81.6728ZM83.151 65.0221C81.591 65.0221 80.631 64.3171 80.211 63.2071L81.666 62.4571C81.846 63.0871 82.401 63.5371 83.286 63.5371C84.036 63.5371 84.546 63.2671 84.636 62.7421C84.876 61.3621 80.631 62.1121 81.141 59.2621C81.381 57.9121 82.701 57.1321 84.096 57.1321C85.386 57.1321 86.346 57.7171 86.796 58.6921L85.341 59.4271C85.161 58.8721 84.636 58.5871 84.006 58.5871C83.466 58.5871 82.866 58.8271 82.761 59.3971C82.491 60.8521 86.766 59.9671 86.256 62.8921C86.001 64.3171 84.741 65.0221 83.151 65.0221ZM98.4912 57.3271H100.081L98.8212 64.4821C98.3862 66.9721 96.6012 68.0221 94.5012 68.0221C92.8812 68.0221 91.6362 67.3921 91.0962 66.2071L92.5512 65.4571C92.8212 66.0721 93.4212 66.5521 94.6062 66.5521C96.0612 66.5521 96.9912 65.8171 97.2312 64.4821L97.3662 63.7021C96.7062 64.4221 95.7912 64.8721 94.6512 64.8721C92.2962 64.8721 91.1112 62.9671 91.4562 60.8371C91.8012 58.7221 93.5562 57.1321 95.6562 57.1321C96.8412 57.1321 97.7862 57.6571 98.2662 58.5871L98.4912 57.3271ZM95.0712 63.3421C96.4062 63.3421 97.5762 62.4271 97.8312 61.0471C98.1162 59.5321 97.0812 58.6621 95.8212 58.6621C94.5612 58.6621 93.3012 59.5321 93.0762 60.9571C92.8512 62.3371 93.6762 63.3421 95.0712 63.3421ZM103.394 58.4521C104.039 57.5071 104.969 57.1621 105.929 57.1921L105.614 58.9471C104.624 58.8721 103.334 59.3071 102.974 60.8521L102.269 64.8271H100.649L101.969 57.3271H103.589L103.394 58.4521ZM112.802 57.3271H114.422L113.102 64.8271H111.482L111.632 63.9421C110.972 64.6171 110.057 65.0221 108.887 65.0221C106.637 65.0221 105.407 63.0271 105.797 60.9121C106.202 58.6771 107.957 57.1321 110.057 57.1321C111.212 57.1321 112.097 57.6421 112.592 58.5421L112.802 57.3271ZM109.367 63.4771C110.642 63.4771 111.767 62.6221 112.097 61.3471L112.172 60.9121C112.322 59.4721 111.362 58.6771 110.147 58.6771C108.917 58.6771 107.687 59.5021 107.417 61.0321C107.177 62.4271 108.002 63.4771 109.367 63.4771ZM120.21 57.1321C121.89 57.1321 122.955 58.2871 122.625 60.2221L121.815 64.8271H120.195L120.975 60.3871C121.17 59.2321 120.645 58.6471 119.595 58.6471C118.59 58.6471 117.645 59.2171 117.345 60.6121L116.61 64.8271H114.99L116.31 57.3271H117.93L117.765 58.2271C118.41 57.4771 119.295 57.1321 120.21 57.1321ZM126.905 58.8871L126.275 62.4871C126.11 63.4621 126.785 63.4471 127.985 63.3721L127.73 64.8271C125.39 65.1271 124.31 64.4371 124.655 62.4871L125.285 58.8871H123.905L124.19 57.3271H125.57L125.855 55.7071L127.55 55.2271L127.175 57.3271H129.05L128.765 58.8871H126.905ZM133.631 57.1321C135.881 57.1321 137.291 58.9021 136.871 61.0921C136.841 61.2121 136.766 61.5421 136.691 61.7671H130.721C130.751 62.9671 131.606 63.5371 132.746 63.5371C133.631 63.5371 134.366 63.1921 134.861 62.5921L136.046 63.4921C135.236 64.4971 133.991 65.0221 132.611 65.0221C130.151 65.0221 128.786 63.1921 129.161 60.9271C129.536 58.7371 131.411 57.1321 133.631 57.1321ZM130.946 60.4321H135.341C135.356 59.1421 134.561 58.6021 133.526 58.6021C132.341 58.6021 131.381 59.2921 130.946 60.4321ZM145.407 54.3271H147.027L145.182 64.8271H143.562L143.727 63.9271C143.052 64.6171 142.122 65.0221 140.952 65.0221C138.702 65.0221 137.472 63.0271 137.862 60.9121C138.267 58.6771 140.022 57.1321 142.122 57.1321C143.277 57.1321 144.177 57.6571 144.657 58.5571L145.407 54.3271ZM141.447 63.4771C142.722 63.4771 143.847 62.6071 144.177 61.3321L144.252 60.8971C144.402 59.4571 143.442 58.6771 142.227 58.6771C140.997 58.6771 139.752 59.5021 139.482 61.0321C139.242 62.4271 140.082 63.4771 141.447 63.4771ZM147.985 61.5271L148.39 57.3271L148.915 54.3271H150.865L150.34 57.3271L149.26 61.5271H147.985ZM148 65.0071C147.385 65.0071 146.98 64.4821 147.085 63.8521C147.19 63.2371 147.73 62.7571 148.405 62.7571C149.02 62.7571 149.44 63.2821 149.335 63.8971C149.215 64.5271 148.705 65.0071 148 65.0071ZM165.923 59.3971L165.803 60.1171C165.308 63.0121 162.968 65.0221 159.878 65.0221C156.548 65.0221 154.643 62.4571 155.183 59.3821C155.708 56.3521 158.318 54.1321 161.408 54.1321C163.508 54.1321 164.993 55.1221 165.773 56.6971L164.198 57.5221C163.673 56.4871 162.758 55.8121 161.273 55.8121C159.038 55.8121 157.268 57.3871 156.893 59.5471C156.518 61.7071 157.703 63.3421 160.028 63.3421C162.008 63.3421 163.298 62.3521 163.853 60.9421H160.403L160.673 59.3971H165.923ZM170.125 65.0221C167.755 65.0221 166.3 63.1771 166.735 60.8821C167.155 58.6321 169.09 57.1321 171.31 57.1321C173.53 57.1321 174.985 58.9621 174.595 61.2271C174.19 63.5071 172.225 65.0221 170.125 65.0221ZM170.245 63.4471C171.475 63.4471 172.72 62.5921 172.99 61.0471C173.26 59.5621 172.3 58.7071 171.085 58.7071C169.855 58.7071 168.625 59.5621 168.355 61.0771C168.1 62.5921 169.015 63.4471 170.245 63.4471ZM178.658 58.8871L178.028 62.4871C177.863 63.4621 178.538 63.4471 179.738 63.3721L179.483 64.8271C177.143 65.1271 176.063 64.4371 176.408 62.4871L177.038 58.8871H175.658L175.943 57.3271H177.323L177.608 55.7071L179.303 55.2271L178.928 57.3271H180.803L180.518 58.8871H178.658ZM192.05 57.3271H193.67L192.35 64.8271H190.73L190.88 63.9421C190.22 64.6171 189.305 65.0221 188.135 65.0221C185.885 65.0221 184.655 63.0271 185.045 60.9121C185.45 58.6771 187.205 57.1321 189.305 57.1321C190.46 57.1321 191.345 57.6421 191.84 58.5421L192.05 57.3271ZM188.615 63.4771C189.89 63.4771 191.015 62.6221 191.345 61.3471L191.42 60.9121C191.57 59.4721 190.61 58.6771 189.395 58.6771C188.165 58.6771 186.935 59.5021 186.665 61.0321C186.425 62.4271 187.25 63.4771 188.615 63.4771ZM199.458 57.1321C201.138 57.1321 202.203 58.2871 201.873 60.2221L201.063 64.8271H199.443L200.223 60.3871C200.418 59.2321 199.893 58.6471 198.843 58.6471C197.838 58.6471 196.893 59.2171 196.593 60.6121L195.858 64.8271H194.238L195.558 57.3271H197.178L197.013 58.2271C197.658 57.4771 198.543 57.1321 199.458 57.1321ZM206.453 65.0221C204.083 65.0221 202.628 63.1771 203.063 60.8821C203.483 58.6321 205.418 57.1321 207.638 57.1321C209.858 57.1321 211.313 58.9621 210.923 61.2271C210.518 63.5071 208.553 65.0221 206.453 65.0221ZM206.573 63.4471C207.803 63.4471 209.048 62.5921 209.318 61.0471C209.588 59.5621 208.628 58.7071 207.413 58.7071C206.183 58.7071 204.953 59.5621 204.683 61.0771C204.428 62.5921 205.343 63.4471 206.573 63.4471ZM214.986 58.8871L214.356 62.4871C214.191 63.4621 214.866 63.4471 216.066 63.3721L215.811 64.8271C213.471 65.1271 212.391 64.4371 212.736 62.4871L213.366 58.8871H211.986L212.271 57.3271H213.651L213.936 55.7071L215.631 55.2271L215.256 57.3271H217.131L216.846 58.8871H214.986ZM222.5 57.1321C224.18 57.1321 225.245 58.2871 224.915 60.2221L224.105 64.8271H222.485L223.265 60.3871C223.46 59.2321 222.935 58.6471 221.885 58.6471C220.865 58.6471 219.92 59.2171 219.635 60.6571L218.9 64.8271H217.28L219.125 54.3271H220.745L220.055 58.2271C220.7 57.4771 221.585 57.1321 222.5 57.1321ZM230.56 57.1321C232.81 57.1321 234.22 58.9021 233.8 61.0921C233.77 61.2121 233.695 61.5421 233.62 61.7671H227.65C227.68 62.9671 228.535 63.5371 229.675 63.5371C230.56 63.5371 231.295 63.1921 231.79 62.5921L232.975 63.4921C232.165 64.4971 230.92 65.0221 229.54 65.0221C227.08 65.0221 225.715 63.1921 226.09 60.9271C226.465 58.7371 228.34 57.1321 230.56 57.1321ZM227.875 60.4321H232.27C232.285 59.1421 231.49 58.6021 230.455 58.6021C229.27 58.6021 228.31 59.2921 227.875 60.4321ZM237.266 58.4521C237.911 57.5071 238.841 57.1621 239.801 57.1921L239.486 58.9471C238.496 58.8721 237.206 59.3071 236.846 60.8521L236.141 64.8271H234.521L235.841 57.3271H237.461L237.266 58.4521ZM26.5717 79.9771H22.1467L21.6217 82.9171H25.8967L25.6117 84.5671H21.3367L20.5867 88.8271H18.8617L20.7067 78.3271H26.8567L26.5717 79.9771ZM26.5354 88.8271L27.3454 84.1921L28.4554 77.8771H30.0754L28.9504 84.2371L28.1554 88.8271H26.5354ZM36.336 81.3271H38.136L33.891 89.0671C32.766 91.1521 31.386 91.9321 29.751 91.8271L30.021 90.3121C31.041 90.3721 31.626 89.8921 32.196 88.8721L32.331 88.6621L30.486 81.3271H32.151L33.441 86.8321L36.336 81.3271ZM40.1539 80.2021C39.5689 80.2021 39.2089 79.7221 39.2989 79.1671C39.3889 78.6121 39.9139 78.1321 40.4989 78.1321C41.0839 78.1321 41.4739 78.5971 41.3689 79.1671C41.2789 79.7221 40.7689 80.2021 40.1539 80.2021ZM37.8289 88.8271L39.1489 81.3271H40.7689L39.4489 88.8271H37.8289ZM46.5499 81.1321C48.2299 81.1321 49.2949 82.2871 48.9649 84.2221L48.1549 88.8271H46.5349L47.3149 84.3871C47.5099 83.2321 46.9849 82.6471 45.9349 82.6471C44.9299 82.6471 43.9849 83.2171 43.6849 84.6121L42.9499 88.8271H41.3299L42.6499 81.3271H44.2699L44.1049 82.2271C44.7499 81.4771 45.6349 81.1321 46.5499 81.1321ZM57.19 81.3271H58.78L57.52 88.4821C57.085 90.9721 55.3 92.0221 53.2 92.0221C51.58 92.0221 50.335 91.3921 49.795 90.2071L51.25 89.4571C51.52 90.0721 52.12 90.5521 53.305 90.5521C54.76 90.5521 55.69 89.8171 55.93 88.4821L56.065 87.7021C55.405 88.4221 54.49 88.8721 53.35 88.8721C50.995 88.8721 49.81 86.9671 50.155 84.8371C50.5 82.7221 52.255 81.1321 54.355 81.1321C55.54 81.1321 56.485 81.6571 56.965 82.5871L57.19 81.3271ZM53.77 87.3421C55.105 87.3421 56.275 86.4271 56.53 85.0471C56.815 83.5321 55.78 82.6621 54.52 82.6621C53.26 82.6621 52 83.5321 51.775 84.9571C51.55 86.3371 52.375 87.3421 53.77 87.3421ZM65.4225 88.8271L64.2975 78.3271H66.0225L66.8025 86.5621L70.6275 78.3271H72.2175L73.1625 86.5621L76.8225 78.3271H78.6825L73.8675 88.8271H71.8725L70.9875 81.1621L67.4175 88.8271H65.4225ZM80.1149 80.2021C79.5299 80.2021 79.1699 79.7221 79.2599 79.1671C79.3499 78.6121 79.8749 78.1321 80.4599 78.1321C81.0449 78.1321 81.4349 78.5971 81.3299 79.1671C81.2399 79.7221 80.7299 80.2021 80.1149 80.2021ZM77.7899 88.8271L79.1099 81.3271H80.7299L79.4099 88.8271H77.7899ZM84.0519 89.0221C82.4919 89.0221 81.5319 88.3171 81.1119 87.2071L82.5669 86.4571C82.7469 87.0871 83.3019 87.5371 84.1869 87.5371C84.9369 87.5371 85.4469 87.2671 85.5369 86.7421C85.7769 85.3621 81.5319 86.1121 82.0419 83.2621C82.2819 81.9121 83.6019 81.1321 84.9969 81.1321C86.2869 81.1321 87.2469 81.7171 87.6969 82.6921L86.2419 83.4271C86.0619 82.8721 85.5369 82.5871 84.9069 82.5871C84.3669 82.5871 83.7669 82.8271 83.6619 83.3971C83.3919 84.8521 87.6669 83.9671 87.1569 86.8921C86.9019 88.3171 85.6419 89.0221 84.0519 89.0221ZM93.5421 81.1321C95.2221 81.1321 96.2871 82.2871 95.9571 84.2221L95.1471 88.8271H93.5271L94.3071 84.3871C94.5021 83.2321 93.9771 82.6471 92.9271 82.6471C91.9071 82.6471 90.9621 83.2171 90.6771 84.6571L89.9421 88.8271H88.3221L90.1671 78.3271H91.7871L91.0971 82.2271C91.7421 81.4771 92.6271 81.1321 93.5421 81.1321ZM98.9016 85.5271C99.2916 83.1721 102.007 82.7521 102.292 81.1171C102.442 80.2471 101.857 79.8121 100.987 79.8121C100.027 79.8121 99.2766 80.3221 98.8266 81.2371L97.4016 80.3521C98.1666 78.8821 99.6666 78.1321 101.227 78.1321C102.922 78.1321 104.377 79.2421 104.032 81.1321C103.627 83.4121 100.897 83.9071 100.627 85.5271H98.9016ZM99.1416 89.0071C98.5266 89.0071 98.1216 88.4821 98.2266 87.8521C98.3316 87.2371 98.8716 86.7571 99.5466 86.7571C100.162 86.7571 100.582 87.2821 100.477 87.8971C100.357 88.5271 99.8466 89.0071 99.1416 89.0071ZM116.87 81.3121C116.735 82.2271 116.195 82.9621 115.445 83.4271C116.195 83.9071 116.63 84.7621 116.465 85.9021C116.24 87.5371 114.875 88.8271 112.73 88.8271H108.305L110.15 78.3271H114.14C115.88 78.3271 117.125 79.6021 116.87 81.3121ZM113.96 79.9471H111.59L111.11 82.7071H113.51C114.305 82.7071 114.995 82.1071 115.145 81.3271C115.28 80.5771 114.83 79.9471 113.96 79.9471ZM114.77 85.7371C114.92 84.9121 114.425 84.2671 113.57 84.2671H110.825L110.315 87.2071H113C113.9 87.2071 114.635 86.5471 114.77 85.7371ZM123.847 81.3271H125.467L124.147 88.8271H122.527L122.692 87.9271C122.047 88.6771 121.162 89.0221 120.247 89.0221C118.567 89.0221 117.502 87.8671 117.832 85.9321L118.642 81.3271H120.262L119.482 85.7671C119.287 86.9221 119.812 87.5071 120.862 87.5071C121.867 87.5071 122.812 86.9371 123.112 85.5421L123.847 81.3271ZM132.342 81.3271H134.142L129.897 89.0671C128.772 91.1521 127.392 91.9321 125.757 91.8271L126.027 90.3121C127.047 90.3721 127.632 89.8921 128.202 88.8721L128.337 88.6621L126.492 81.3271H128.157L129.447 86.8321L132.342 81.3271ZM144.86 81.3271H146.48L145.16 88.8271H143.54L143.69 87.9421C143.03 88.6171 142.115 89.0221 140.945 89.0221C138.695 89.0221 137.465 87.0271 137.855 84.9121C138.26 82.6771 140.015 81.1321 142.115 81.1321C143.27 81.1321 144.155 81.6421 144.65 82.5421L144.86 81.3271ZM141.425 87.4771C142.7 87.4771 143.825 86.6221 144.155 85.3471L144.23 84.9121C144.38 83.4721 143.42 82.6771 142.205 82.6771C140.975 82.6771 139.745 83.5021 139.475 85.0321C139.235 86.4271 140.06 87.4771 141.425 87.4771ZM152.268 81.1321C153.948 81.1321 155.013 82.2871 154.683 84.2221L153.873 88.8271H152.253L153.033 84.3871C153.228 83.2321 152.703 82.6471 151.653 82.6471C150.648 82.6471 149.703 83.2171 149.403 84.6121L148.668 88.8271H147.048L148.368 81.3271H149.988L149.823 82.2271C150.468 81.4771 151.353 81.1321 152.268 81.1321ZM159.263 89.0221C156.893 89.0221 155.438 87.1771 155.873 84.8821C156.293 82.6321 158.228 81.1321 160.448 81.1321C162.668 81.1321 164.123 82.9621 163.733 85.2271C163.328 87.5071 161.363 89.0221 159.263 89.0221ZM159.383 87.4471C160.613 87.4471 161.858 86.5921 162.128 85.0471C162.398 83.5621 161.438 82.7071 160.223 82.7071C158.993 82.7071 157.763 83.5621 157.493 85.0771C157.238 86.5921 158.153 87.4471 159.383 87.4471ZM167.796 82.8871L167.166 86.4871C167.001 87.4621 167.676 87.4471 168.876 87.3721L168.621 88.8271C166.281 89.1271 165.201 88.4371 165.546 86.4871L166.176 82.8871H164.796L165.081 81.3271H166.461L166.746 79.7071L168.441 79.2271L168.066 81.3271H169.941L169.656 82.8871H167.796ZM175.31 81.1321C176.99 81.1321 178.055 82.2871 177.725 84.2221L176.915 88.8271H175.295L176.075 84.3871C176.27 83.2321 175.745 82.6471 174.695 82.6471C173.675 82.6471 172.73 83.2171 172.445 84.6571L171.71 88.8271H170.09L171.935 78.3271H173.555L172.865 82.2271C173.51 81.4771 174.395 81.1321 175.31 81.1321ZM183.37 81.1321C185.62 81.1321 187.03 82.9021 186.61 85.0921C186.58 85.2121 186.505 85.5421 186.43 85.7671H180.46C180.49 86.9671 181.345 87.5371 182.485 87.5371C183.37 87.5371 184.105 87.1921 184.6 86.5921L185.785 87.4921C184.975 88.4971 183.73 89.0221 182.35 89.0221C179.89 89.0221 178.525 87.1921 178.9 84.9271C179.275 82.7371 181.15 81.1321 183.37 81.1321ZM180.685 84.4321H185.08C185.095 83.1421 184.3 82.6021 183.265 82.6021C182.08 82.6021 181.12 83.2921 180.685 84.4321ZM190.076 82.4521C190.721 81.5071 191.651 81.1621 192.611 81.1921L192.296 82.9471C191.306 82.8721 190.016 83.3071 189.656 84.8521L188.951 88.8271H187.331L188.651 81.3271H190.271L190.076 82.4521ZM204.038 79.9771H199.613L199.088 82.9171H203.363L203.078 84.5671H198.803L198.053 88.8271H196.328L198.173 78.3271H204.323L204.038 79.9771ZM204.001 88.8271L204.811 84.1921L205.921 77.8771H207.541L206.416 84.2371L205.621 88.8271H204.001ZM213.802 81.3271H215.602L211.357 89.0671C210.232 91.1521 208.852 91.9321 207.217 91.8271L207.487 90.3121C208.507 90.3721 209.092 89.8921 209.662 88.8721L209.797 88.6621L207.952 81.3271H209.617L210.907 86.8321L213.802 81.3271ZM217.62 80.2021C217.035 80.2021 216.675 79.7221 216.765 79.1671C216.855 78.6121 217.38 78.1321 217.965 78.1321C218.55 78.1321 218.94 78.5971 218.835 79.1671C218.745 79.7221 218.235 80.2021 217.62 80.2021ZM215.295 88.8271L216.615 81.3271H218.235L216.915 88.8271H215.295ZM224.016 81.1321C225.696 81.1321 226.761 82.2871 226.431 84.2221L225.621 88.8271H224.001L224.781 84.3871C224.976 83.2321 224.451 82.6471 223.401 82.6471C222.396 82.6471 221.451 83.2171 221.151 84.6121L220.416 88.8271H218.796L220.116 81.3271H221.736L221.571 82.2271C222.216 81.4771 223.101 81.1321 224.016 81.1321ZM234.656 81.3271H236.246L234.986 88.4821C234.551 90.9721 232.766 92.0221 230.666 92.0221C229.046 92.0221 227.801 91.3921 227.261 90.2071L228.716 89.4571C228.986 90.0721 229.586 90.5521 230.771 90.5521C232.226 90.5521 233.156 89.8171 233.396 88.4821L233.531 87.7021C232.871 88.4221 231.956 88.8721 230.816 88.8721C228.461 88.8721 227.276 86.9671 227.621 84.8371C227.966 82.7221 229.721 81.1321 231.821 81.1321C233.006 81.1321 233.951 81.6571 234.431 82.5871L234.656 81.3271ZM231.236 87.3421C232.571 87.3421 233.741 86.4271 233.996 85.0471C234.281 83.5321 233.246 82.6621 231.986 82.6621C230.726 82.6621 229.466 83.5321 229.241 84.9571C229.016 86.3371 229.841 87.3421 231.236 87.3421ZM69.0302 103.977H64.6052L64.0802 106.917H68.3552L68.0702 108.567H63.7952L63.0452 112.827H61.3202L63.1652 102.327H69.3152L69.0302 103.977ZM71.3038 104.202C70.7188 104.202 70.3588 103.722 70.4488 103.167C70.5388 102.612 71.0638 102.132 71.6488 102.132C72.2338 102.132 72.6238 102.597 72.5188 103.167C72.4288 103.722 71.9188 104.202 71.3038 104.202ZM68.9788 112.827L70.2988 105.327H71.9188L70.5988 112.827H68.9788ZM75.2409 113.022C73.6809 113.022 72.7209 112.317 72.3009 111.207L73.7559 110.457C73.9359 111.087 74.4909 111.537 75.3759 111.537C76.1259 111.537 76.6359 111.267 76.7259 110.742C76.9659 109.362 72.7209 110.112 73.2309 107.262C73.4709 105.912 74.7909 105.132 76.1859 105.132C77.4759 105.132 78.4359 105.717 78.8859 106.692L77.4309 107.427C77.2509 106.872 76.7259 106.587 76.0959 106.587C75.5559 106.587 74.9559 106.827 74.8509 107.397C74.5809 108.852 78.8559 107.967 78.3459 110.892C78.0909 112.317 76.8309 113.022 75.2409 113.022ZM84.7311 105.132C86.4111 105.132 87.4761 106.287 87.1461 108.222L86.3361 112.827H84.7161L85.4961 108.387C85.6911 107.232 85.1661 106.647 84.1161 106.647C83.0961 106.647 82.1511 107.217 81.8661 108.657L81.1311 112.827H79.5111L81.3561 102.327H82.9761L82.2861 106.227C82.9311 105.477 83.8161 105.132 84.7311 105.132ZM95.1761 106.887L94.5461 110.487C94.3811 111.462 95.0561 111.447 96.2561 111.372L96.0011 112.827C93.6611 113.127 92.5811 112.437 92.9261 110.487L93.5561 106.887H92.1761L92.4611 105.327H93.8411L94.1261 103.707L95.8211 103.227L95.4461 105.327H97.3211L97.0361 106.887H95.1761ZM100.837 113.022C98.4674 113.022 97.0124 111.177 97.4474 108.882C97.8674 106.632 99.8024 105.132 102.022 105.132C104.242 105.132 105.697 106.962 105.307 109.227C104.902 111.507 102.937 113.022 100.837 113.022ZM100.957 111.447C102.187 111.447 103.432 110.592 103.702 109.047C103.972 107.562 103.012 106.707 101.797 106.707C100.567 106.707 99.3374 107.562 99.0674 109.077C98.8124 110.592 99.7274 111.447 100.957 111.447ZM114.632 105.132C116.882 105.132 118.292 106.902 117.872 109.092C117.842 109.212 117.767 109.542 117.692 109.767H111.722C111.752 110.967 112.607 111.537 113.747 111.537C114.632 111.537 115.367 111.192 115.862 110.592L117.047 111.492C116.237 112.497 114.992 113.022 113.612 113.022C111.152 113.022 109.787 111.192 110.162 108.927C110.537 106.737 112.412 105.132 114.632 105.132ZM111.947 108.432H116.342C116.357 107.142 115.562 106.602 114.527 106.602C113.342 106.602 112.382 107.292 111.947 108.432ZM123.813 105.132C125.493 105.132 126.558 106.287 126.228 108.222L125.418 112.827H123.798L124.578 108.387C124.773 107.232 124.248 106.647 123.198 106.647C122.193 106.647 121.248 107.217 120.948 108.612L120.213 112.827H118.593L119.913 105.327H121.533L121.368 106.227C122.013 105.477 122.898 105.132 123.813 105.132ZM130.508 106.887L129.878 110.487C129.713 111.462 130.388 111.447 131.588 111.372L131.333 112.827C128.993 113.127 127.913 112.437 128.258 110.487L128.888 106.887H127.508L127.793 105.327H129.173L129.458 103.707L131.153 103.227L130.778 105.327H132.653L132.368 106.887H130.508ZM137.234 105.132C139.484 105.132 140.894 106.902 140.474 109.092C140.444 109.212 140.369 109.542 140.294 109.767H134.324C134.354 110.967 135.209 111.537 136.349 111.537C137.234 111.537 137.969 111.192 138.464 110.592L139.649 111.492C138.839 112.497 137.594 113.022 136.214 113.022C133.754 113.022 132.389 111.192 132.764 108.927C133.139 106.737 135.014 105.132 137.234 105.132ZM134.549 108.432H138.944C138.959 107.142 138.164 106.602 137.129 106.602C135.944 106.602 134.984 107.292 134.549 108.432ZM143.941 106.452C144.586 105.507 145.516 105.162 146.476 105.192L146.161 106.947C145.171 106.872 143.881 107.307 143.521 108.852L142.816 112.827H141.196L142.516 105.327H144.136L143.941 106.452ZM157.362 105.327H158.982L157.662 112.827H156.042L156.192 111.942C155.532 112.617 154.617 113.022 153.447 113.022C151.197 113.022 149.967 111.027 150.357 108.912C150.762 106.677 152.517 105.132 154.617 105.132C155.772 105.132 156.657 105.642 157.152 106.542L157.362 105.327ZM153.927 111.477C155.202 111.477 156.327 110.622 156.657 109.347L156.732 108.912C156.882 107.472 155.922 106.677 154.707 106.677C153.477 106.677 152.247 107.502 151.977 109.032C151.737 110.427 152.562 111.477 153.927 111.477ZM166.87 105.327H168.46L167.2 112.482C166.765 114.972 164.98 116.022 162.88 116.022C161.26 116.022 160.015 115.392 159.475 114.207L160.93 113.457C161.2 114.072 161.8 114.552 162.985 114.552C164.44 114.552 165.37 113.817 165.61 112.482L165.745 111.702C165.085 112.422 164.17 112.872 163.03 112.872C160.675 112.872 159.49 110.967 159.835 108.837C160.18 106.722 161.935 105.132 164.035 105.132C165.22 105.132 166.165 105.657 166.645 106.587L166.87 105.327ZM163.45 111.342C164.785 111.342 165.955 110.427 166.21 109.047C166.495 107.532 165.46 106.662 164.2 106.662C162.94 106.662 161.68 107.532 161.455 108.957C161.23 110.337 162.055 111.342 163.45 111.342ZM176.303 105.327H177.923L176.603 112.827H174.983L175.133 111.942C174.473 112.617 173.558 113.022 172.388 113.022C170.138 113.022 168.908 111.027 169.298 108.912C169.703 106.677 171.458 105.132 173.558 105.132C174.713 105.132 175.598 105.642 176.093 106.542L176.303 105.327ZM172.868 111.477C174.143 111.477 175.268 110.622 175.598 109.347L175.673 108.912C175.823 107.472 174.863 106.677 173.648 106.677C172.418 106.677 171.188 107.502 170.918 109.032C170.678 110.427 171.503 111.477 172.868 111.477ZM180.816 104.202C180.231 104.202 179.871 103.722 179.961 103.167C180.051 102.612 180.576 102.132 181.161 102.132C181.746 102.132 182.136 102.597 182.031 103.167C181.941 103.722 181.431 104.202 180.816 104.202ZM178.491 112.827L179.811 105.327H181.431L180.111 112.827H178.491ZM187.212 105.132C188.892 105.132 189.957 106.287 189.627 108.222L188.817 112.827H187.197L187.977 108.387C188.172 107.232 187.647 106.647 186.597 106.647C185.592 106.647 184.647 107.217 184.347 108.612L183.612 112.827H181.992L183.312 105.327H184.932L184.767 106.227C185.412 105.477 186.297 105.132 187.212 105.132ZM191.447 109.527L191.852 105.327L192.377 102.327H194.327L193.802 105.327L192.722 109.527H191.447ZM191.462 113.007C190.847 113.007 190.442 112.482 190.547 111.852C190.652 111.237 191.192 110.757 191.867 110.757C192.482 110.757 192.902 111.282 192.797 111.897C192.677 112.527 192.167 113.007 191.462 113.007Z" fill="white"/>
</svg>
